SplineFontDB: 3.0
FontName: NovaSquareSlim-Bold
FullName: Nova Square Slim Bold
FamilyName: Nova Square Slim
Weight: Bold
Copyright: Copyright (c) 2020-2024 by Wojciech Kalinowski "wmk69" with Reserved Font Name "NovaSquareSlim-Bold".\nThis Font Software is licensed under the SIL Open Font License, Version 1.1.
Version: 3.1.0; 2021-05-23
ItalicAngle: 0
UnderlinePosition: -80
UnderlineWidth: 320
Ascent: 1638
Descent: 410
InvalidEm: 0
LayerCount: 2
Layer: 0 1 "Warstwa t+AUIA-a" 1
Layer: 1 1 "Plan pierwszy" 0
XUID: [1021 783 23647091 8360855]
StyleMap: 0x0020
FSType: 0
OS2Version: 3
OS2_WeightWidthSlopeOnly: 0
OS2_UseTypoMetrics: 1
CreationTime: 1260698820
ModificationTime: 1621762522
PfmFamily: 33
TTFWeight: 700
TTFWidth: 5
LineGap: 200
VLineGap: 0
Panose: 2 12 8 4 5 5 3 6 2 4
OS2TypoAscent: 2000
OS2TypoAOffset: 0
OS2TypoDescent: -500
OS2TypoDOffset: 0
OS2TypoLinegap: 200
OS2WinAscent: 2000
OS2WinAOffset: 0
OS2WinDescent: 500
OS2WinDOffset: 0
HheadAscent: 2000
HheadAOffset: 0
HheadDescent: -500
HheadDOffset: 0
OS2SubXSize: 1434
OS2SubYSize: 1331
OS2SubXOff: 0
OS2SubYOff: 287
OS2SupXSize: 1434
OS2SupYSize: 1331
OS2SupXOff: 0
OS2SupYOff: 977
OS2StrikeYSize: 102
OS2StrikeYPos: 512
OS2CapHeight: 1530
OS2XHeight: 1120
OS2Vendor: '    '
OS2CodePages: 20000093.00000000
OS2UnicodeRanges: 8000002f.4000204b.00000000.00000000
Lookup: 258 0 0 "'kern' Horizontal Kerning lookup 0" { "'kern' Horizontal Kerning lookup 0-1 subtable" [307,0,4] } ['kern' ('DFLT' <'dflt' > 'grek' <'dflt' > 'latn' <'dflt' > ) ]
MarkAttachClasses: 1
DEI: 91125
KernClass2: 65 55 "'kern' Horizontal Kerning lookup 0-1 subtable"
 134 A M N Agrave Aacute Acircumflex Atilde Adieresis Aring Ntilde Amacron Abreve Aogonek Nacute Ncommaaccent Ncaron Eng Aringacute uni1E40
 28 B germandbls uni1E02 uni1E9E
 47 C Ccedilla Cacute Ccircumflex Cdotaccent Ccaron
 122 D O Q Eth Ograve Oacute Ocircumflex Otilde Odieresis Oslash Dcaron Dcroat Omacron Obreve Ohungarumlaut Oslashacute uni1E0A

StartChar: .notdef
Encoding: 65536 -1 0
Width: 1034
Flags: W
HStem: 0 118<298 736> 1392 118<298 736>
VStem: 110 188<118 1392> 736 188<118 1392>
LayerCount: 2
Fore
SplineSet
110 0 m 1,0,-1
 110 1510 l 1,1,-1
 924 1510 l 1,2,-1
 924 0 l 1,3,-1
 110 0 l 1,0,-1
298 118 m 1,4,-1
 736 118 l 1,5,-1
 736 1392 l 1,6,-1
 298 1392 l 1,7,-1
 298 118 l 1,4,-1
EndSplineSet
Validated: 1
EndChar

StartChar: exclam
Encoding: 33 33 4
Width: 640
GlyphClass: 2
Flags: W
HStem: -20 365<202.131 436.878> 1510 20G<427.823 480>
VStem: 140 360<42.5657 282.578> 160 320<542 1383>
LayerCount: 2
Fore
SplineSet
470 1530 m 1,0,-1
 480 1530 l 1,1,-1
 480 542 l 1,2,-1
 170 395 l 1,3,-1
 160 395 l 1,4,-1
 160 1383 l 1,5,-1
 470 1530 l 1,0,-1
320 -20 m 0,6,7
 244 -20 244 -20 192 34 c 128,-1,8
 140 88 140 88 140 162 c 0,9,10
 140 238 140 238 192 291 c 0,11,12
 245 345 245 345 320 345 c 128,-1,13
 395 345 395 345 447.5 291.5 c 128,-1,14
 500 238 500 238 500 163 c 128,-1,15
 500 88 500 88 447 34 c 128,-1,16
 394 -20 394 -20 320 -20 c 0,6,7
EndSplineSet
Validated: 1
EndChar

StartChar: quotedbl
Encoding: 34 34 5
Width: 510
GlyphClass: 2
Flags: W
HStem: 1100 480
VStem: 30 180<1181 1499> 300 180<1181 1499>
LayerCount: 2
Fore
SplineSet
470 1580 m 1,0,-1
 480 1580 l 1,1,-1
 480 1181 l 1,2,-1
 310 1100 l 1,3,-1
 300 1100 l 1,4,-1
 300 1499 l 1,5,-1
 470 1580 l 1,0,-1
200 1580 m 1,6,-1
 210 1580 l 1,7,-1
 210 1181 l 1,8,-1
 40 1100 l 1,9,-1
 30 1100 l 1,10,-1
 30 1499 l 1,11,-1
 200 1580 l 1,6,-1
EndSplineSet
Validated: 1
EndChar

StartChar: numbersign
Encoding: 35 35 6
Width: 1408
GlyphClass: 2
Flags: W
HStem: 460 180<190 408 588 820 1000 1218> 872 180<190 408 588 820 1000 1218>
VStem: 408 180<242 460 640 872 1052 1269> 820 180<242 460 640 872 1052 1269>
LayerCount: 2
Fore
SplineSet
578 1350 m 1,0,-1
 588 1350 l 1,1,-1
 588 1052 l 1,2,-1
 820 1052 l 1,3,-1
 820 1269 l 1,4,-1
 990 1350 l 1,5,-1
 1000 1350 l 1,6,-1
 1000 1052 l 1,7,-1
 1298 1052 l 1,8,-1
 1298 1042 l 1,9,-1
 1218 872 l 1,10,-1
 1000 872 l 1,11,-1
 1000 640 l 1,12,-1
 1298 640 l 1,13,-1
 1298 630 l 1,14,-1
 1218 460 l 1,15,-1
 1000 460 l 1,16,-1
 1000 242 l 1,17,-1
 830 161 l 1,18,-1
 820 161 l 1,19,-1
 820 460 l 1,20,-1
 588 460 l 1,21,-1
 588 242 l 1,22,-1
 418 161 l 1,23,-1
 408 161 l 1,24,-1
 408 460 l 1,25,-1
 110 460 l 1,26,-1
 110 470 l 1,27,-1
 190 640 l 1,28,-1
 408 640 l 1,29,-1
 408 872 l 1,30,-1
 110 872 l 1,31,-1
 110 882 l 1,32,-1
 190 1052 l 1,33,-1
 408 1052 l 1,34,-1
 408 1269 l 1,35,-1
 578 1350 l 1,0,-1
820 640 m 1,36,-1
 820 872 l 1,37,-1
 588 872 l 1,38,-1
 588 640 l 1,39,-1
 820 640 l 1,36,-1
EndSplineSet
Validated: 1
EndChar

StartChar: dollar
Encoding: 36 36 7
Width: 1140
GlyphClass: 2
Flags: W
HStem: 0 150<368.44 498 618 763.271> 758 151<429.406 498 618 763.271> 1370 140<429.406 498 618 689.691>
VStem: 20 335<170.635 378> 113 310<918.703 1363.57> 498 120<-70 0 150 758 909 1370 1510 1578> 692 325<1179 1360.58> 770 330<172.892 736.108>
LayerCount: 2
Fore
SplineSet
690 0 m 2,0,-1
 618 0 l 1,1,-1
 618 -70 l 1,2,-1
 508 -121 l 1,3,-1
 498 -121 l 1,4,-1
 498 0 l 1,5,-1
 430 0 l 2,6,7
 20 0 20 0 20 378 c 1,8,-1
 345 533 l 1,9,-1
 355 533 l 1,10,-1
 355 217 l 2,11,12
 355 150 355 150 435 150 c 2,13,-1
 498 150 l 1,14,-1
 498 758 l 1,15,-1
 473 758 l 2,16,17
 113 758 113 758 113 1098 c 2,18,-1
 113 1170 l 2,19,20
 113 1510 113 1510 473 1510 c 2,21,-1
 498 1510 l 1,22,-1
 498 1578 l 1,23,-1
 608 1629 l 1,24,-1
 618 1629 l 1,25,-1
 618 1510 l 1,26,-1
 657 1510 l 2,27,28
 1014 1510 1014 1510 1017 1179 c 1,29,-1
 702 1029 l 1,30,-1
 692 1029 l 1,31,-1
 692 1308 l 2,32,33
 692 1368 692 1368 618 1370 c 1,34,-1
 618 909 l 1,35,-1
 690 909 l 2,36,37
 1100 909 1100 909 1100 526 c 2,38,-1
 1100 383 l 2,39,40
 1100 0 1100 0 690 0 c 2,0,-1
498 909 m 1,41,-1
 498 1370 l 1,42,43
 423 1368 423 1368 423 1304 c 2,44,-1
 423 975 l 2,45,46
 423 911 423 911 498 909 c 1,41,-1
618 758 m 1,47,-1
 618 150 l 1,48,-1
 690 150 l 2,49,50
 770 150 770 150 770 217 c 2,51,-1
 770 691 l 2,52,53
 770 758 770 758 690 758 c 2,54,-1
 618 758 l 1,47,-1
EndSplineSet
Validated: 1
EndChar

StartChar: percent
Encoding: 37 37 8
Width: 1946
GlyphClass: 2
Flags: W
HStem: -20 21G<709.053 770.325> 0 103<1313.91 1620.09> 639 110<1313.91 1620.09> 761 110<325.906 632.094> 1407 103<325.906 632.094> 1510 20G<1175.66 1236.77>
VStem: 110 214<875.502 1401.02> 634 214<875.502 1401.02> 1098 214<108.984 634.498> 1622 214<108.984 634.498>
DStem2: 514 93 761 -20 0.423093 0.906086<2.11609 1585.94>
LayerCount: 2
Fore
SplineSet
1565 103 m 2,0,1
 1622 103 1622 103 1622 159 c 2,2,-1
 1622 583 l 2,3,4
 1622 639 1622 639 1565 639 c 2,5,-1
 1369 639 l 2,6,7
 1312 639 1312 639 1312 583 c 2,8,-1
 1312 159 l 2,9,10
 1312 103 1312 103 1369 103 c 2,11,-1
 1565 103 l 2,0,1
1554 0 m 2,12,-1
 1380 0 l 2,13,14
 1098 0 1098 0 1098 279 c 2,15,-1
 1098 470 l 2,16,17
 1098 749 1098 749 1380 749 c 2,18,-1
 1554 749 l 2,19,20
 1836 749 1836 749 1836 470 c 2,21,-1
 1836 279 l 2,22,23
 1836 0 1836 0 1554 0 c 2,12,-1
381 1407 m 2,24,25
 324 1407 324 1407 324 1351 c 2,26,-1
 324 927 l 2,27,28
 324 871 324 871 381 871 c 2,29,-1
 577 871 l 2,30,31
 634 871 634 871 634 927 c 2,32,-1
 634 1351 l 2,33,34
 634 1407 634 1407 577 1407 c 2,35,-1
 381 1407 l 2,24,25
392 1510 m 2,36,-1
 566 1510 l 2,37,38
 848 1510 848 1510 848 1231 c 2,39,-1
 848 1040 l 2,40,41
 848 761 848 761 566 761 c 2,42,-1
 392 761 l 2,43,44
 110 761 110 761 110 1040 c 2,45,-1
 110 1231 l 2,46,47
 110 1510 110 1510 392 1510 c 2,36,-1
751 -20 m 1,48,-1
 514 93 l 1,49,-1
 1185 1530 l 1,50,-1
 1195 1530 l 1,51,-1
 1431 1417 l 1,52,-1
 761 -20 l 1,53,-1
 751 -20 l 1,48,-1
EndSplineSet
Validated: 1
EndChar

StartChar: ampersand
Encoding: 38 38 9
Width: 1692
GlyphClass: 2
Flags: W
HStem: -20 21G<1263.3 1333.17> 0 150<443.685 992.964> 750 150<514.504 593> 1370 140<516.203 803.717>
VStem: 110 330<170.184 741.496> 200 310<907.465 1353.81> 808 326<1186.19 1346.24> 1210 325<649.25 851>
DStem2: 883 900 593 750 0.666432 -0.745565<0 455.342 761.412 951.16>
LayerCount: 2
Fore
SplineSet
440 679 m 2,0,-1
 440 221 l 2,1,2
 440 150 440 150 517 150 c 2,3,-1
 845 150 l 2,4,5
 964 150 964 150 1049 239 c 1,6,-1
 593 750 l 1,7,-1
 516 750 l 2,8,9
 440 750 440 750 440 679 c 2,0,-1
516 0 m 2,10,11
 110 0 110 0 110 377 c 2,12,-1
 110 585 l 2,13,14
 110 796 110 796 250 886 c 1,15,16
 200 960 200 960 200 1067 c 2,17,-1
 200 1164 l 2,18,19
 200 1510 200 1510 613 1510 c 2,20,-1
 724 1510 l 2,21,22
 1108 1510 1108 1510 1134 1193 c 1,23,-1
 818 1043 l 1,24,-1
 808 1043 l 1,25,-1
 808 1299 l 2,26,27
 808 1370 808 1370 727 1370 c 2,28,-1
 591 1370 l 2,29,30
 510 1370 510 1370 510 1299 c 2,31,-1
 510 976 l 2,32,33
 510 900 510 900 592 900 c 2,34,-1
 883 900 l 1,35,-1
 1187 561 l 1,36,37
 1210 692 1210 692 1210 851 c 1,38,-1
 1525 1000 l 1,39,-1
 1535 1000 l 1,40,41
 1535 618 1535 618 1364 361 c 1,42,-1
 1582 118 l 1,43,-1
 1291 -20 l 1,44,-1
 1281 -20 l 1,45,-1
 1158 119 l 1,46,47
 1004 0 1004 0 845 0 c 2,48,-1
 516 0 l 2,10,11
EndSplineSet
Validated: 1
EndChar

StartChar: quotesingle
Encoding: 39 39 10
Width: 240
GlyphClass: 2
Flags: W
HStem: 1100 480
VStem: 30 180<1181 1499>
LayerCount: 2
Fore
SplineSet
200 1580 m 1,0,-1
 210 1580 l 1,1,-1
 210 1181 l 1,2,-1
 40 1100 l 1,3,-1
 30 1100 l 1,4,-1
 30 1499 l 1,5,-1
 200 1580 l 1,0,-1
EndSplineSet
Validated: 1
EndChar

StartChar: parenleft
Encoding: 40 40 11
Width: 756
GlyphClass: 2
Flags: W
HStem: -240 150<485.217 726> 1600 150<485.217 726>
VStem: 160 320<-68.4619 1578.46>
LayerCount: 2
Fore
SplineSet
726 -240 m 1,0,-1
 570 -240 l 2,1,2
 160 -240 160 -240 160 140 c 2,3,-1
 160 1370 l 2,4,5
 160 1750 160 1750 570 1750 c 2,6,-1
 726 1750 l 1,7,-1
 726 1600 l 1,8,-1
 560 1600 l 2,9,10
 480 1600 480 1600 480 1529 c 2,11,-1
 480 -19 l 2,12,13
 480 -90 480 -90 560 -90 c 2,14,-1
 726 -90 l 1,15,-1
 726 -240 l 1,0,-1
EndSplineSet
Validated: 1
EndChar

StartChar: parenright
Encoding: 41 41 12
Width: 756
GlyphClass: 2
Flags: W
HStem: -240 150<30 270.783> 1600 150<30 270.783>
VStem: 276 320<-68.4619 1578.46>
LayerCount: 2
Fore
SplineSet
30 -240 m 1,0,-1
 30 -90 l 1,1,-1
 196 -90 l 2,2,3
 276 -90 276 -90 276 -19 c 2,4,-1
 276 1529 l 2,5,6
 276 1600 276 1600 196 1600 c 2,7,-1
 30 1600 l 1,8,-1
 30 1750 l 1,9,-1
 186 1750 l 2,10,11
 596 1750 596 1750 596 1370 c 2,12,-1
 596 140 l 2,13,14
 596 -240 596 -240 186 -240 c 2,15,-1
 30 -240 l 1,0,-1
EndSplineSet
Validated: 1
EndChar

StartChar: asterisk
Encoding: 42 42 13
Width: 790
GlyphClass: 2
Flags: W
VStem: 305 180<921 1054 1366 1499>
DStem2: 190 1432 30 1317 0.866084 -0.499898<0 132.593 444.456 577.049> 30 1103 190 988 0.866084 0.499898<81.0853 213.678 525.542 658.134>
LayerCount: 2
Fore
SplineSet
475 1580 m 1,0,-1
 485 1580 l 1,1,-1
 485 1366 l 1,2,-1
 600 1432 l 1,3,-1
 755 1326 l 1,4,-1
 760 1317 l 1,5,-1
 575 1210 l 1,6,-1
 760 1103 l 1,7,-1
 755 1094 l 1,8,-1
 600 988 l 1,9,-1
 485 1054 l 1,10,-1
 485 921 l 1,11,-1
 315 840 l 1,12,-1
 305 840 l 1,13,-1
 305 1054 l 1,14,-1
 190 988 l 1,15,-1
 35 1094 l 1,16,-1
 30 1103 l 1,17,-1
 215 1210 l 1,18,-1
 30 1317 l 1,19,-1
 35 1326 l 1,20,-1
 190 1432 l 1,21,-1
 305 1366 l 1,22,-1
 305 1499 l 1,23,-1
 475 1580 l 1,0,-1
EndSplineSet
Validated: 1
EndChar

StartChar: plus
Encoding: 43 43 14
Width: 1240
GlyphClass: 2
Flags: W
HStem: 620 270<235 485 755 1005>
VStem: 485 270<370 620 890 1140>
LayerCount: 2
Fore
SplineSet
745 1265 m 1,0,-1
 755 1265 l 1,1,-1
 755 890 l 1,2,-1
 1130 890 l 1,3,-1
 1130 880 l 1,4,-1
 1005 620 l 1,5,-1
 755 620 l 1,6,-1
 755 370 l 1,7,-1
 495 245 l 1,8,-1
 485 245 l 1,9,-1
 485 620 l 1,10,-1
 110 620 l 1,11,-1
 110 630 l 1,12,-1
 235 890 l 1,13,-1
 485 890 l 1,14,-1
 485 1140 l 1,15,-1
 745 1265 l 1,0,-1
EndSplineSet
Validated: 1
EndChar

StartChar: comma
Encoding: 44 44 15
Width: 496
GlyphClass: 2
Flags: W
HStem: -328 666
VStem: 202 264<-112.817 113.6>
LayerCount: 2
Fore
SplineSet
30 212 m 1,0,-1
 299 338 l 1,1,-1
 309 338 l 1,2,3
 466 236 466 236 466 54 c 0,4,5
 466 -203 466 -203 130 -328 c 1,6,-1
 123 -321 l 1,7,8
 202 -172 202 -172 202 -24 c 0,9,10
 202 132 202 132 30 212 c 1,0,-1
EndSplineSet
Validated: 1
EndChar

StartChar: hyphen
Encoding: 45 45 16
Width: 1240
GlyphClass: 2
Flags: W
HStem: 620 270<235 1005>
LayerCount: 2
Fore
SplineSet
235 890 m 1,0,-1
 1130 890 l 1,1,-1
 1130 880 l 1,2,-1
 1005 620 l 1,3,-1
 110 620 l 1,4,-1
 110 630 l 1,5,-1
 235 890 l 1,0,-1
EndSplineSet
Validated: 1
EndChar

StartChar: period
Encoding: 46 46 17
Width: 420
GlyphClass: 2
Flags: W
HStem: -20 365<92.1309 326.878>
VStem: 30 360<42.5657 282.578>
LayerCount: 2
Fore
SplineSet
210 -20 m 0,0,1
 134 -20 134 -20 82 34 c 128,-1,2
 30 88 30 88 30 162 c 0,3,4
 30 238 30 238 82 291 c 0,5,6
 135 345 135 345 210 345 c 128,-1,7
 285 345 285 345 337.5 291.5 c 128,-1,8
 390 238 390 238 390 163 c 128,-1,9
 390 88 390 88 337 34 c 128,-1,10
 284 -20 284 -20 210 -20 c 0,0,1
EndSplineSet
Validated: 1
EndChar

StartChar: slash
Encoding: 47 47 18
Width: 1105
GlyphClass: 2
Flags: W
DStem2: 10 -87 257 -200 0.423051 0.906106<2.10366 1983.21>
LayerCount: 2
Fore
SplineSet
247 -200 m 1,0,-1
 10 -87 l 1,1,-1
 849 1710 l 1,2,-1
 859 1710 l 1,3,-1
 1095 1597 l 1,4,-1
 257 -200 l 1,5,-1
 247 -200 l 1,0,-1
EndSplineSet
Validated: 1
EndChar

StartChar: zero
Encoding: 48 48 19
Width: 1370
GlyphClass: 2
Flags: W
HStem: 0 150<456.729 913.271> 1360 150<456.729 913.271>
VStem: 120 330<171.538 1338.46> 920 330<171.538 1338.46>
LayerCount: 2
Fore
SplineSet
530 150 m 2,0,-1
 840 150 l 2,1,2
 920 150 920 150 920 221 c 2,3,-1
 920 1289 l 2,4,5
 920 1360 920 1360 840 1360 c 2,6,-1
 530 1360 l 2,7,8
 450 1360 450 1360 450 1289 c 2,9,-1
 450 221 l 2,10,11
 450 150 450 150 530 150 c 2,0,-1
530 0 m 2,12,13
 120 0 120 0 120 380 c 2,14,-1
 120 1130 l 2,15,16
 120 1510 120 1510 530 1510 c 2,17,-1
 840 1510 l 2,18,19
 1250 1510 1250 1510 1250 1130 c 2,20,-1
 1250 380 l 2,21,22
 1250 0 1250 0 840 0 c 2,23,-1
 530 0 l 2,12,13
EndSplineSet
Validated: 1
EndChar

StartChar: one
Encoding: 49 49 20
Width: 794
GlyphClass: 2
Flags: W
HStem: -20 21G<264 316.177> 1117 21G<20 66.4762> 1510 20G<531.871 584>
VStem: 264 320<127 1222>
DStem2: 20 1267 20 1117 0.903372 0.428857<0 201.124>
LayerCount: 2
Fore
SplineSet
274 -20 m 1,0,-1
 264 -20 l 1,1,-1
 264 1222 l 1,2,-1
 20 1117 l 1,3,-1
 20 1267 l 1,4,-1
 574 1530 l 1,5,-1
 584 1530 l 1,6,-1
 584 127 l 1,7,-1
 274 -20 l 1,0,-1
EndSplineSet
Validated: 1
EndChar

StartChar: two
Encoding: 50 50 21
Width: 1273
GlyphClass: 2
Flags: W
HStem: 0 300<442 1047> 1360 150<415.217 833.271>
VStem: 90 320<1100 1338.46> 840 330<813.438 1338.46>
DStem2: 187 323 442 300 0.846263 0.532765<203.543 722.729>
LayerCount: 2
Fore
SplineSet
40 0 m 1,0,-1
 40 10 l 1,1,-1
 187 323 l 1,2,-1
 654 617 l 2,3,4
 840 734 840 734 840 1007 c 2,5,-1
 840 1289 l 2,6,7
 840 1360 840 1360 760 1360 c 2,8,-1
 490 1360 l 2,9,10
 410 1360 410 1360 410 1289 c 2,11,-1
 410 1100 l 1,12,-1
 100 952 l 1,13,-1
 90 952 l 1,14,-1
 90 1130 l 2,15,16
 90 1510 90 1510 500 1510 c 2,17,-1
 760 1510 l 2,18,19
 1170 1510 1170 1510 1170 1130 c 2,20,-1
 1170 1018 l 2,21,22
 1170 722 1170 722 873 550 c 2,23,-1
 442 300 l 1,24,-1
 1183 300 l 1,25,-1
 1183 290 l 1,26,-1
 1047 0 l 1,27,-1
 40 0 l 1,0,-1
EndSplineSet
Validated: 1
EndChar

StartChar: three
Encoding: 51 51 22
Width: 1158
GlyphClass: 2
Flags: W
HStem: 0 150<408.44 813.271> 1360 150<239 716>
VStem: 60 335<175.149 388> 820 330<171.538 822.063>
LayerCount: 2
Fore
SplineSet
470 0 m 2,0,1
 60 0 60 0 60 388 c 1,2,-1
 385 543 l 1,3,-1
 395 543 l 1,4,-1
 395 221 l 2,5,6
 395 150 395 150 475 150 c 2,7,-1
 740 150 l 2,8,9
 820 150 820 150 820 221 c 2,10,-1
 820 777 l 2,11,12
 820 848 820 848 740 848 c 2,13,-1
 531 848 l 1,14,-1
 458 930 l 1,15,-1
 716 1360 l 1,16,-1
 172 1360 l 1,17,-1
 172 1370 l 1,18,-1
 239 1510 l 1,19,-1
 1139 1510 l 1,20,-1
 825 993 l 1,21,22
 1150 956 1150 956 1150 618 c 2,23,-1
 1150 380 l 2,24,25
 1150 0 1150 0 740 0 c 2,26,-1
 470 0 l 2,0,1
EndSplineSet
Validated: 1
EndChar

StartChar: four
Encoding: 52 52 23
Width: 1317
GlyphClass: 2
Flags: W
HStem: -20 21G<787 839.177> 304 150<295 787 1107 1190> 1510 20G<1054.79 1107>
VStem: 787 320<127 304 454 1139>
DStem2: 10 314 295 454 0.582974 0.812491<279.896 1123.28>
LayerCount: 2
Fore
SplineSet
295 454 m 1,0,-1
 787 454 l 1,1,-1
 787 1139 l 1,2,-1
 295 454 l 1,0,-1
797 -20 m 1,3,-1
 787 -20 l 1,4,-1
 787 304 l 1,5,-1
 10 304 l 1,6,-1
 10 314 l 1,7,-1
 772 1376 l 1,8,-1
 1097 1530 l 1,9,-1
 1107 1530 l 1,10,-1
 1107 454 l 1,11,-1
 1257 454 l 1,12,-1
 1257 444 l 1,13,-1
 1190 304 l 1,14,-1
 1107 304 l 1,15,-1
 1107 127 l 1,16,-1
 797 -20 l 1,3,-1
EndSplineSet
Validated: 1
EndChar

StartChar: five
Encoding: 53 53 24
Width: 1230
GlyphClass: 2
Flags: W
HStem: 0 150<408.44 813.271> 848 150<493.939 813.271> 1360 150<592 1037>
VStem: 60 335<175.149 388> 820 330<171.538 826.462>
LayerCount: 2
Fore
SplineSet
470 0 m 2,0,1
 60 0 60 0 60 388 c 1,2,-1
 385 543 l 1,3,-1
 395 543 l 1,4,-1
 395 221 l 2,5,6
 395 150 395 150 475 150 c 2,7,-1
 740 150 l 2,8,9
 820 150 820 150 820 221 c 2,10,-1
 820 777 l 2,11,12
 820 848 820 848 740 848 c 2,13,-1
 498 848 l 2,14,15
 432 848 432 848 432 777 c 1,16,-1
 149 902 l 1,17,-1
 304 1510 l 1,18,-1
 1104 1510 l 1,19,-1
 1104 1500 l 1,20,-1
 1037 1360 l 1,21,-1
 592 1360 l 1,22,-1
 492 998 l 1,23,-1
 740 998 l 2,24,25
 1150 998 1150 998 1150 618 c 2,26,-1
 1150 380 l 2,27,28
 1150 0 1150 0 740 0 c 2,29,-1
 470 0 l 2,0,1
EndSplineSet
Validated: 1
EndChar

StartChar: six
Encoding: 54 54 25
Width: 1320
GlyphClass: 2
Flags: W
HStem: 0 150<445.217 873.271> 780 150<444.219 873.271> 1360 150<445.217 884.783>
VStem: 120 320<171.538 775.562 920 1338.46> 880 330<171.538 762.073 1122 1334.85>
LayerCount: 2
Fore
SplineSet
880 709 m 2,0,1
 880 780 880 780 800 780 c 2,2,-1
 520 780 l 2,3,4
 440 780 440 780 440 709 c 2,5,-1
 440 221 l 2,6,7
 440 150 440 150 520 150 c 2,8,-1
 800 150 l 2,9,10
 880 150 880 150 880 221 c 2,11,-1
 880 709 l 2,0,1
800 0 m 2,12,-1
 530 0 l 2,13,14
 120 0 120 0 120 380 c 2,15,-1
 120 1130 l 2,16,17
 120 1510 120 1510 530 1510 c 2,18,-1
 800 1510 l 2,19,20
 1210 1510 1210 1510 1210 1122 c 1,21,-1
 900 974 l 1,22,-1
 890 974 l 1,23,-1
 890 1289 l 2,24,25
 890 1360 890 1360 810 1360 c 2,26,-1
 520 1360 l 2,27,28
 440 1360 440 1360 440 1289 c 2,29,-1
 440 920 l 1,30,31
 485 930 485 930 530 930 c 2,32,-1
 800 930 l 2,33,34
 1210 930 1210 930 1210 558 c 2,35,-1
 1210 380 l 2,36,37
 1210 0 1210 0 800 0 c 2,12,-1
EndSplineSet
Validated: 1
EndChar

StartChar: seven
Encoding: 55 55 26
Width: 1098
GlyphClass: 2
Flags: W
HStem: -20 21G<132 184.412> 1360 150<77 686>
DStem2: 132 -20 564 179 0.37255 0.928012<345.616 1487.05>
LayerCount: 2
Fore
SplineSet
142 -20 m 1,0,-1
 132 -20 l 1,1,-1
 686 1360 l 1,2,-1
 10 1360 l 1,3,-1
 10 1370 l 1,4,-1
 77 1510 l 1,5,-1
 1088 1510 l 1,6,-1
 1088 1500 l 1,7,-1
 564 179 l 1,8,-1
 142 -20 l 1,0,-1
EndSplineSet
Validated: 1
EndChar

StartChar: eight
Encoding: 56 56 27
Width: 1260
GlyphClass: 2
Flags: W
HStem: 0 150<406.729 853.271> 746 145<463.457 796.543> 1375 135<462.812 797.188>
VStem: 70 330<171.538 740.494> 160 300<929.688 1355.62> 800 300<929.688 1355.62> 860 330<171.538 740.494>
LayerCount: 2
Fore
SplineSet
480 150 m 2,0,1
 780 150 l 2,2,3
 860 150 860 150 860 217 c 2,4,-1
 860 679 l 2,5,6
 860 746 860 746 780 746 c 2,7,-1
 480 746 l 2,8,9
 400 746 400 746 400 679 c 2,10,-1
 400 217 l 2,11,12
 400 150 400 150 480 150 c 2,0,1
540 891 m 2,13,-1
 720 891 l 2,14,15
 800 891 800 891 800 957 c 2,16,-1
 800 1309 l 2,17,18
 800 1375 800 1375 720 1375 c 2,19,-1
 540 1375 l 2,20,21
 460 1375 460 1375 460 1309 c 2,22,-1
 460 957 l 2,23,24
 460 891 460 891 540 891 c 2,13,-1
480 0 m 2,25,26
 70 0 70 0 70 380 c 2,27,-1
 70 590 l 2,28,29
 70 809 70 809 250 893 c 1,30,31
 160 942 160 942 160 1072 c 2,32,-1
 160 1168 l 2,33,34
 160 1510 160 1510 570 1510 c 2,35,-1
 690 1510 l 2,36,37
 1100 1510 1100 1510 1100 1168 c 2,38,-1
 1100 1072 l 2,39,40
 1100 942 1100 942 1010 893 c 1,41,42
 1190 809 1190 809 1190 590 c 2,43,-1
 1190 380 l 2,44,45
 1190 0 1190 0 780 0 c 2,46,-1
 480 0 l 2,25,26
EndSplineSet
Validated: 1
EndChar

StartChar: nine
Encoding: 57 57 28
Width: 1320
GlyphClass: 2
Flags: W
HStem: 0 150<435.217 874.783> 580 150<446.729 875.781> 1360 150<446.729 874.783>
VStem: 110 330<175.149 388 747.927 1338.46> 880 320<171.538 590 734.438 1338.46>
LayerCount: 2
Fore
SplineSet
440 801 m 2,0,1
 440 730 440 730 520 730 c 2,2,-1
 800 730 l 2,3,4
 880 730 880 730 880 801 c 2,5,-1
 880 1289 l 2,6,7
 880 1360 880 1360 800 1360 c 2,8,-1
 520 1360 l 2,9,10
 440 1360 440 1360 440 1289 c 2,11,-1
 440 801 l 2,0,1
520 0 m 2,12,13
 110 0 110 0 110 388 c 1,14,-1
 420 536 l 1,15,-1
 430 536 l 1,16,-1
 430 221 l 2,17,18
 430 150 430 150 510 150 c 2,19,-1
 800 150 l 2,20,21
 880 150 880 150 880 221 c 2,22,-1
 880 590 l 1,23,24
 835 580 835 580 790 580 c 2,25,-1
 520 580 l 2,26,27
 110 580 110 580 110 952 c 2,28,-1
 110 1130 l 2,29,30
 110 1510 110 1510 520 1510 c 2,31,-1
 790 1510 l 2,32,33
 1200 1510 1200 1510 1200 1130 c 2,34,-1
 1200 380 l 2,35,36
 1200 0 1200 0 790 0 c 2,37,-1
 520 0 l 2,12,13
EndSplineSet
Validated: 1
EndChar

StartChar: colon
Encoding: 58 58 29
Width: 420
GlyphClass: 2
Flags: W
HStem: -20 365<92.1309 326.878> 573 365<92.1309 326.878>
VStem: 30 360<42.5657 282.578 635.566 875.578>
LayerCount: 2
Fore
SplineSet
210 938 m 128,-1,1
 285 938 285 938 337.5 884.5 c 128,-1,2
 390 831 390 831 390 756 c 128,-1,3
 390 681 390 681 337 627 c 128,-1,4
 284 573 284 573 210 573 c 0,5,6
 134 573 134 573 82 627 c 128,-1,7
 30 681 30 681 30 755 c 0,8,9
 30 831 30 831 82 884 c 0,10,0
 135 938 135 938 210 938 c 128,-1,1
210 -20 m 0,11,12
 134 -20 134 -20 82 34 c 128,-1,13
 30 88 30 88 30 162 c 0,14,15
 30 238 30 238 82 291 c 0,16,17
 135 345 135 345 210 345 c 128,-1,18
 285 345 285 345 337.5 291.5 c 128,-1,19
 390 238 390 238 390 163 c 128,-1,20
 390 88 390 88 337 34 c 128,-1,21
 284 -20 284 -20 210 -20 c 0,11,12
EndSplineSet
Validated: 1
EndChar

StartChar: semicolon
Encoding: 59 59 30
Width: 496
GlyphClass: 2
Flags: W
HStem: 573 365<130.131 364.878>
VStem: 68 360<635.566 875.578> 202 264<-112.817 113.6>
LayerCount: 2
Fore
SplineSet
30 212 m 1,0,-1
 299 338 l 1,1,-1
 309 338 l 1,2,3
 466 236 466 236 466 54 c 0,4,5
 466 -203 466 -203 130 -328 c 1,6,-1
 123 -321 l 1,7,8
 202 -172 202 -172 202 -24 c 0,9,10
 202 132 202 132 30 212 c 1,0,-1
248 938 m 128,-1,12
 323 938 323 938 375.5 884.5 c 128,-1,13
 428 831 428 831 428 756 c 128,-1,14
 428 681 428 681 375 627 c 128,-1,15
 322 573 322 573 248 573 c 0,16,17
 172 573 172 573 120 627 c 128,-1,18
 68 681 68 681 68 755 c 0,19,20
 68 831 68 831 120 884 c 0,21,11
 173 938 173 938 248 938 c 128,-1,12
EndSplineSet
Validated: 1
EndChar

StartChar: less
Encoding: 60 60 31
Width: 1355
GlyphClass: 2
Flags: W
DStem2: 408 812 110 638 0.942398 -0.334493<0 808.778> 227 891 408 812 0.937798 0.347181<142.314 973.557>
LayerCount: 2
Fore
SplineSet
227 891 m 1,0,-1
 1140 1229 l 1,1,-1
 1195 1116 l 1,2,-1
 1195 1106 l 1,3,-1
 408 812 l 1,4,-1
 1195 539 l 1,5,-1
 1195 529 l 1,6,-1
 1082 293 l 1,7,-1
 110 638 l 1,8,-1
 110 648 l 1,9,-1
 227 891 l 1,0,-1
EndSplineSet
Validated: 1
EndChar

StartChar: equal
Encoding: 61 61 32
Width: 1240
GlyphClass: 2
Flags: W
HStem: 390 270<235 1005> 850 270<235 1005>
LayerCount: 2
Fore
SplineSet
235 660 m 1,0,-1
 1130 660 l 1,1,-1
 1130 650 l 1,2,-1
 1005 390 l 1,3,-1
 110 390 l 1,4,-1
 110 400 l 1,5,-1
 235 660 l 1,0,-1
235 1120 m 1,6,-1
 1130 1120 l 1,7,-1
 1130 1110 l 1,8,-1
 1005 850 l 1,9,-1
 110 850 l 1,10,-1
 110 860 l 1,11,-1
 235 1120 l 1,6,-1
EndSplineSet
Validated: 1
EndChar

StartChar: greater
Encoding: 62 62 33
Width: 1355
GlyphClass: 2
Flags: W
DStem2: 273 1217 160 971 0.942398 -0.334493<0 808.778> 160 404 215 281 0.937798 0.347181<8.8757 840.118>
LayerCount: 2
Fore
SplineSet
1128 619 m 1,0,-1
 215 281 l 1,1,-1
 160 394 l 1,2,-1
 160 404 l 1,3,-1
 947 698 l 1,4,-1
 160 971 l 1,5,-1
 160 981 l 1,6,-1
 273 1217 l 1,7,-1
 1245 872 l 1,8,-1
 1245 862 l 1,9,-1
 1128 619 l 1,0,-1
EndSplineSet
Validated: 1
EndChar

StartChar: question
Encoding: 63 63 34
Width: 1300
GlyphClass: 2
Flags: W
HStem: -20 365<487.131 721.878> 1360 150<435.217 853.271>
VStem: 110 320<1100 1338.46> 425 360<42.5657 282.578> 860 330<883.399 1338.46>
LayerCount: 2
Fore
SplineSet
520 1510 m 2,0,-1
 780 1510 l 2,1,2
 1190 1510 1190 1510 1190 1130 c 2,3,-1
 1190 1056 l 2,4,5
 1190 813 1190 813 904 683 c 0,6,7
 771 622 771 622 771 506 c 1,8,-1
 458 359 l 1,9,-1
 448 359 l 1,10,11
 448 612 448 612 691 721 c 0,12,13
 860 797 860 797 860 963 c 2,14,-1
 860 1289 l 2,15,16
 860 1360 860 1360 780 1360 c 2,17,-1
 510 1360 l 2,18,19
 430 1360 430 1360 430 1289 c 2,20,-1
 430 1100 l 1,21,-1
 120 952 l 1,22,-1
 110 952 l 1,23,-1
 110 1130 l 2,24,25
 110 1510 110 1510 520 1510 c 2,0,-1
605 -20 m 0,26,27
 529 -20 529 -20 477 34 c 128,-1,28
 425 88 425 88 425 162 c 0,29,30
 425 238 425 238 477 291 c 0,31,32
 530 345 530 345 605 345 c 128,-1,33
 680 345 680 345 732.5 291.5 c 128,-1,34
 785 238 785 238 785 163 c 128,-1,35
 785 88 785 88 732 34 c 128,-1,36
 679 -20 679 -20 605 -20 c 0,26,27
EndSplineSet
Validated: 1
EndChar

StartChar: at
Encoding: 64 64 35
Width: 1420
GlyphClass: 2
Flags: W
HStem: -410 140<453.906 774> 0 140<812.6 980> 522 140<812.6 977> 960 140<453.906 966.094>
VStem: 140 300<-238.462 928.462> 558 250<140.39 516.835> 980 300<140 522 662 934.782>
LayerCount: 2
Fore
SplineSet
1031 0 m 1,0,-1
 868 0 l 2,1,2
 558 0 558 0 558 311 c 2,3,-1
 558 381 l 2,4,5
 558 662 558 662 868 662 c 2,6,-1
 977 662 l 1,7,-1
 977 908 l 2,8,9
 977 960 977 960 897 960 c 10,10,-1
 520 960 l 2,11,12
 440 960 440 960 440 889 c 2,13,-1
 440 -199 l 2,14,15
 440 -270 440 -270 520 -270 c 2,16,-1
 836 -270 l 1,17,-1
 836 -280 l 1,18,-1
 774 -410 l 1,19,-1
 550 -410 l 2,20,21
 140 -410 140 -410 140 -30 c 2,22,-1
 140 720 l 2,23,24
 140 1100 140 1100 550 1100 c 2,25,-1
 870 1100 l 2,26,27
 1280 1100 1280 1100 1280 734 c 2,28,-1
 1280 118 l 1,29,-1
 1031 0 l 1,0,-1
980 140 m 1,30,-1
 980 522 l 1,31,-1
 848 522 l 2,32,33
 808 522 808 522 808 493 c 2,34,-1
 808 171 l 2,35,36
 808 140 808 140 848 140 c 2,37,-1
 980 140 l 1,30,-1
EndSplineSet
Validated: 1
EndChar

StartChar: A
Encoding: 65 65 36
Width: 1410
GlyphClass: 2
Flags: W
HStem: -20 21G<140 192.177 950 1002.18> 680 150<460 950> 1360 150<465.217 944.783>
VStem: 140 320<127 680 830 1338.46> 950 320<127 680 830 1338.46>
LayerCount: 2
Fore
SplineSet
150 -20 m 1,0,-1
 140 -20 l 1,1,-1
 140 1130 l 2,2,3
 140 1510 140 1510 550 1510 c 2,4,-1
 860 1510 l 2,5,6
 1270 1510 1270 1510 1270 1130 c 2,7,-1
 1270 127 l 1,8,-1
 960 -20 l 1,9,-1
 950 -20 l 1,10,-1
 950 680 l 1,11,-1
 460 680 l 1,12,-1
 460 127 l 1,13,-1
 150 -20 l 1,0,-1
460 830 m 1,14,-1
 950 830 l 1,15,-1
 950 1289 l 2,16,17
 950 1360 950 1360 870 1360 c 2,18,19
 540 1360 l 2,20,21
 460 1360 460 1360 460 1289 c 2,22,-1
 460 830 l 1,14,-1
EndSplineSet
Validated: 1
EndChar

StartChar: B
Encoding: 66 66 37
Width: 1300
GlyphClass: 2
Flags: W
HStem: 0 150<480 913.271> 751 135<480 847.188> 1375 135<480 846.094>
VStem: 160 320<150 751 886 1375> 850 310<902.254 1355.62> 920 330<171.538 742.28>
LayerCount: 2
Fore
SplineSet
480 150 m 1,0,-1
 840 150 l 2,1,2
 920 150 920 150 920 217 c 2,3,-1
 920 684 l 2,4,5
 920 751 920 751 840 751 c 2,6,-1
 480 751 l 1,7,-1
 480 150 l 1,0,-1
160 0 m 1,8,-1
 160 1384 l 1,9,-1
 428 1510 l 1,10,-1
 750 1510 l 2,11,12
 1160 1510 1160 1510 1160 1168 c 2,13,-1
 1160 1072 l 2,14,15
 1160 966 1160 966 1110 893 c 1,16,17
 1250 802 1250 802 1250 590 c 2,18,-1
 1250 380 l 2,19,20
 1250 0 1250 0 840 0 c 2,21,-1
 160 0 l 1,8,-1
480 886 m 1,22,-1
 770 886 l 2,23,24
 850 886 850 886 850 952 c 2,25,-1
 850 1309 l 2,26,27
 850 1375 850 1375 770 1375 c 2,28,-1
 480 1375 l 1,29,-1
 480 886 l 1,22,-1
EndSplineSet
Validated: 1
EndChar

StartChar: C
Encoding: 67 67 38
Width: 1250
GlyphClass: 2
Flags: W
HStem: 0 150<456.729 861.56> 1360 150<456.729 861.56>
VStem: 120 330<171.538 1338.46> 875 335<171.538 403 1122 1334.85>
LayerCount: 2
Fore
SplineSet
530 0 m 2,0,1
 120 0 120 0 120 380 c 2,2,-1
 120 1130 l 2,3,4
 120 1510 120 1510 530 1510 c 2,5,-1
 800 1510 l 2,6,7
 1210 1510 1210 1510 1210 1122 c 1,8,-1
 885 967 l 1,9,-1
 875 967 l 1,10,-1
 875 1289 l 2,11,12
 875 1360 875 1360 795 1360 c 2,13,-1
 530 1360 l 2,14,15
 450 1360 450 1360 450 1289 c 2,16,-1
 450 221 l 2,17,18
 450 150 450 150 530 150 c 2,19,-1
 795 150 l 2,20,21
 875 150 875 150 875 221 c 2,22,-1
 875 403 l 1,23,-1
 1200 558 l 1,24,-1
 1210 558 l 1,25,-1
 1210 380 l 2,26,27
 1210 0 1210 0 800 0 c 2,28,-1
 530 0 l 2,0,1
EndSplineSet
Validated: 1
EndChar

StartChar: D
Encoding: 68 68 39
Width: 1390
GlyphClass: 2
Flags: W
HStem: 0 150<480 933.271> 1360 150<480 933.271>
VStem: 160 320<150 1360> 940 330<171.538 1338.46>
LayerCount: 2
Fore
SplineSet
480 150 m 1,0,-1
 860 150 l 2,1,2
 940 150 940 150 940 221 c 2,3,-1
 940 1289 l 2,4,5
 940 1360 940 1360 860 1360 c 2,6,-1
 480 1360 l 1,7,-1
 480 150 l 1,0,-1
160 0 m 1,8,-1
 160 1383 l 1,9,-1
 428 1510 l 1,10,-1
 860 1510 l 2,11,12
 1270 1510 1270 1510 1270 1130 c 2,13,-1
 1270 380 l 2,14,15
 1270 0 1270 0 860 0 c 2,16,-1
 160 0 l 1,8,-1
EndSplineSet
Validated: 1
EndChar

StartChar: E
Encoding: 69 69 40
Width: 1100
GlyphClass: 2
Flags: W
HStem: 0 150<480 1023> 680 150<480 973> 1360 150<480 973>
VStem: 160 320<150 680 830 1360>
CounterMasks: 1 e0
LayerCount: 2
Fore
SplineSet
160 0 m 1,0,-1
 160 1384 l 1,1,-1
 428 1510 l 1,2,-1
 1040 1510 l 1,3,-1
 1040 1500 l 1,4,-1
 973 1360 l 1,5,-1
 480 1360 l 1,6,-1
 480 830 l 1,7,-1
 1040 830 l 1,8,-1
 1040 820 l 1,9,-1
 973 680 l 1,10,-1
 480 680 l 1,11,-1
 480 150 l 1,12,-1
 1090 150 l 1,13,-1
 1090 140 l 1,14,-1
 1023 0 l 1,15,-1
 160 0 l 1,0,-1
EndSplineSet
Validated: 1
EndChar

StartChar: F
Encoding: 70 70 41
Width: 1050
GlyphClass: 2
Flags: W
HStem: -20 21G<160 212.177> 680 150<480 973> 1360 150<480 973>
VStem: 160 320<127 680 830 1360>
LayerCount: 2
Fore
SplineSet
170 -20 m 1,0,-1
 160 -20 l 1,1,-1
 160 1384 l 1,2,-1
 428 1510 l 1,3,-1
 1040 1510 l 1,4,-1
 1040 1500 l 1,5,-1
 973 1360 l 1,6,-1
 480 1360 l 1,7,-1
 480 830 l 1,8,-1
 1040 830 l 1,9,-1
 1040 820 l 1,10,-1
 973 680 l 1,11,-1
 480 680 l 1,12,-1
 480 127 l 1,13,-1
 170 -20 l 1,0,-1
EndSplineSet
Validated: 1
EndChar

StartChar: G
Encoding: 71 71 42
Width: 1330
GlyphClass: 2
Flags: W
HStem: 0 150<456.729 884.783> 680 150<629 890> 1360 150<456.729 861.56>
VStem: 120 330<171.538 1338.46> 875 335<1122 1334.85> 890 320<171.538 680>
CounterMasks: 1 e0
LayerCount: 2
Fore
SplineSet
530 0 m 2,0,1
 120 0 120 0 120 380 c 2,2,-1
 120 1130 l 2,3,4
 120 1510 120 1510 530 1510 c 2,5,-1
 800 1510 l 2,6,7
 1210 1510 1210 1510 1210 1122 c 1,8,-1
 885 967 l 1,9,-1
 875 967 l 1,10,-1
 875 1289 l 2,11,12
 875 1360 875 1360 795 1360 c 2,13,-1
 530 1360 l 2,14,15
 450 1360 450 1360 450 1289 c 2,16,-1
 450 221 l 2,17,18
 450 150 450 150 530 150 c 2,19,-1
 810 150 l 2,20,21
 890 150 890 150 890 221 c 2,22,-1
 890 680 l 1,23,-1
 562 680 l 1,24,-1
 562 690 l 1,25,-1
 629 830 l 1,26,-1
 1210 830 l 1,27,-1
 1210 380 l 2,28,29
 1210 0 1210 0 800 0 c 2,30,-1
 530 0 l 2,0,1
EndSplineSet
Validated: 1
EndChar

StartChar: H
Encoding: 72 72 43
Width: 1440
GlyphClass: 2
Flags: W
HStem: -20 21G<160 212.177 960 1012.18> 680 150<480 960> 1510 20G<427.823 480 1227.82 1280>
VStem: 160 320<127 680 830 1383> 960 320<127 680 830 1383>
LayerCount: 2
Fore
SplineSet
170 -20 m 1,0,-1
 160 -20 l 1,1,-1
 160 1383 l 1,2,-1
 470 1530 l 1,3,-1
 480 1530 l 1,4,-1
 480 830 l 1,5,-1
 960 830 l 1,6,-1
 960 1383 l 1,7,-1
 1270 1530 l 1,8,-1
 1280 1530 l 1,9,-1
 1280 127 l 1,10,-1
 970 -20 l 1,11,-1
 960 -20 l 1,12,-1
 960 680 l 1,13,-1
 480 680 l 1,14,-1
 480 127 l 1,15,-1
 170 -20 l 1,0,-1
EndSplineSet
Validated: 1
EndChar

StartChar: I
Encoding: 73 73 44
Width: 640
GlyphClass: 2
Flags: W
HStem: -20 21G<160 212.177> 1510 20G<427.823 480>
VStem: 160 320<127 1383>
LayerCount: 2
Fore
SplineSet
170 -20 m 1,0,-1
 160 -20 l 1,1,-1
 160 1383 l 1,2,-1
 470 1530 l 1,3,-1
 480 1530 l 1,4,-1
 480 127 l 1,5,-1
 170 -20 l 1,0,-1
EndSplineSet
Validated: 1
EndChar

StartChar: J
Encoding: 74 74 45
Width: 1180
GlyphClass: 2
Flags: W
HStem: 0 150<358.44 734.783> 1360 150<162 740>
VStem: 10 335<175.601 389> 740 320<171.538 1360>
LayerCount: 2
Fore
SplineSet
650 0 m 2,0,-1
 420 0 l 2,1,2
 10 0 10 0 10 389 c 1,3,-1
 335 542 l 1,4,-1
 345 542 l 1,5,-1
 345 221 l 2,6,7
 345 150 345 150 425 150 c 2,8,-1
 660 150 l 2,9,10
 740 150 740 150 740 221 c 2,11,-1
 740 1360 l 1,12,-1
 95 1360 l 1,13,-1
 95 1370 l 1,14,-1
 162 1510 l 1,15,-1
 1060 1510 l 1,16,-1
 1060 380 l 2,17,18
 1060 0 1060 0 650 0 c 2,0,-1
EndSplineSet
Validated: 1
EndChar

StartChar: K
Encoding: 75 75 46
Width: 1370
GlyphClass: 2
Flags: W
HStem: -20 21G<160 212.177 930 982.177> 900 150<738 924.783> 1510 20G<427.823 480 1066.11 1143.29>
VStem: 160 320<127 895.562 1040 1383> 930 320<127 878.462>
DStem2: 480 1040 738 1050 0.779498 0.626405<207.374 783.838>
LayerCount: 2
Fore
SplineSet
170 -20 m 1,0,-1
 160 -20 l 1,1,-1
 160 1383 l 1,2,-1
 470 1530 l 1,3,-1
 480 1530 l 1,4,-1
 480 1040 l 1,5,-1
 1091 1531 l 1,6,-1
 1101 1531 l 1,7,-1
 1249 1461 l 1,8,-1
 738 1050 l 1,9,-1
 840 1050 l 2,10,11
 1250 1050 1250 1050 1250 670 c 2,12,-1
 1250 127 l 1,13,-1
 940 -20 l 1,14,-1
 930 -20 l 1,15,-1
 930 829 l 2,16,17
 930 900 930 900 850 900 c 2,18,-1
 560 900 l 2,19,20
 480 900 480 900 480 829 c 2,21,-1
 480 127 l 1,22,-1
 170 -20 l 1,0,-1
EndSplineSet
Validated: 1
EndChar

StartChar: L
Encoding: 76 76 47
Width: 1100
GlyphClass: 2
Flags: W
HStem: 0 150<480 1023> 1510 20G<427.534 480>
VStem: 160 320<150 1384>
LayerCount: 2
Fore
SplineSet
160 0 m 1,0,-1
 160 1384 l 1,1,-1
 470 1530 l 1,2,-1
 480 1530 l 1,3,-1
 480 150 l 1,4,-1
 1090 150 l 1,5,-1
 1090 140 l 1,6,-1
 1023 0 l 1,7,-1
 160 0 l 1,0,-1
EndSplineSet
Validated: 1
EndChar

StartChar: M
Encoding: 77 77 48
Width: 2220
GlyphClass: 2
Flags: W
HStem: -20 21G<140 192.177 950 1002.18 1760 1812.18> 1360 150<465.217 946.172 1273.83 1754.78>
VStem: 140 320<127 1338.46> 950 320<127 1355.56> 1760 320<127 1338.46>
CounterMasks: 1 38
LayerCount: 2
Fore
SplineSet
150 -20 m 1,0,-1
 140 -20 l 1,1,-1
 140 1130 l 2,2,3
 140 1510 140 1510 550 1510 c 2,4,-1
 860 1510 l 2,5,6
 1014 1510 1014 1510 1110 1456 c 1,7,8
 1206 1510 1206 1510 1360 1510 c 2,9,-1
 1670 1510 l 2,10,11
 2080 1510 2080 1510 2080 1130 c 2,12,-1
 2080 127 l 1,13,-1
 1770 -20 l 1,14,-1
 1760 -20 l 1,15,-1
 1760 1289 l 2,16,17
 1760 1360 1760 1360 1680 1360 c 2,18,-1
 1350 1360 l 2,19,20
 1270 1360 1270 1360 1270 1289 c 2,21,-1
 1270 127 l 1,22,-1
 960 -20 l 1,23,-1
 950 -20 l 1,24,-1
 950 1289 l 2,25,26
 950 1360 950 1360 870 1360 c 2,27,-1
 540 1360 l 2,28,29
 460 1360 460 1360 460 1289 c 2,30,-1
 460 127 l 1,31,-1
 150 -20 l 1,0,-1
EndSplineSet
Validated: 1
EndChar

StartChar: N
Encoding: 78 78 49
Width: 1410
GlyphClass: 2
Flags: W
HStem: -20 21G<140 192.177 950 1002.18> 1360 150<465.217 944.783>
VStem: 140 320<127 1338.46> 950 320<127 1338.46>
LayerCount: 2
Fore
SplineSet
150 -20 m 1,0,-1
 140 -20 l 1,1,-1
 140 1130 l 2,2,3
 140 1510 140 1510 550 1510 c 2,4,-1
 860 1510 l 2,5,6
 1270 1510 1270 1510 1270 1130 c 2,7,-1
 1270 127 l 1,8,-1
 960 -20 l 1,9,-1
 950 -20 l 1,10,-1
 950 1289 l 2,11,12
 950 1360 950 1360 870 1360 c 2,13,-1
 540 1360 l 2,14,15
 460 1360 460 1360 460 1289 c 2,16,-1
 460 127 l 1,17,-1
 150 -20 l 1,0,-1
EndSplineSet
Validated: 1
EndChar

StartChar: O
Encoding: 79 79 50
Width: 1370
GlyphClass: 2
Flags: W
HStem: 0 150<456.729 913.271> 1360 150<456.729 913.271>
VStem: 120 330<171.538 1338.46> 920 330<171.538 1338.46>
LayerCount: 2
Fore
SplineSet
530 150 m 2,0,-1
 840 150 l 2,1,2
 920 150 920 150 920 221 c 2,3,-1
 920 1289 l 2,4,5
 920 1360 920 1360 840 1360 c 2,6,-1
 530 1360 l 2,7,8
 450 1360 450 1360 450 1289 c 2,9,-1
 450 221 l 2,10,11
 450 150 450 150 530 150 c 2,0,-1
530 0 m 2,12,13
 120 0 120 0 120 380 c 2,14,-1
 120 1130 l 2,15,16
 120 1510 120 1510 530 1510 c 2,17,-1
 840 1510 l 2,18,19
 1250 1510 1250 1510 1250 1130 c 2,20,-1
 1250 380 l 2,21,22
 1250 0 1250 0 840 0 c 2,23,-1
 530 0 l 2,12,13
EndSplineSet
Validated: 1
EndChar

StartChar: P
Encoding: 80 80 51
Width: 1250
GlyphClass: 2
Flags: W
HStem: -20 21G<160 212.177> 440 150<480 873.271> 1360 150<480 873.271>
VStem: 160 320<127 440 590 1360> 880 330<615.149 1334.85>
LayerCount: 2
Fore
SplineSet
170 -20 m 1,0,-1
 160 -20 l 1,1,-1
 160 1383 l 1,2,-1
 428 1510 l 1,3,-1
 800 1510 l 2,4,5
 1210 1510 1210 1510 1210 1122 c 2,6,-1
 1210 828 l 2,7,8
 1210 440 1210 440 800 440 c 2,9,-1
 480 440 l 1,10,-1
 480 127 l 1,11,-1
 170 -20 l 1,0,-1
480 590 m 1,12,-1
 800 590 l 2,13,14
 880 590 880 590 880 661 c 2,15,-1
 880 1289 l 2,16,17
 880 1360 880 1360 800 1360 c 2,18,-1
 480 1360 l 1,19,-1
 480 590 l 1,12,-1
EndSplineSet
Validated: 1
EndChar

StartChar: Q
Encoding: 81 81 52
Width: 1370
GlyphClass: 2
Flags: W
HStem: 0 150<445.217 760> 1360 150<445.217 924.783>
VStem: 120 320<171.538 1338.46> 930 320<420 1338.46>
LayerCount: 2
Fore
SplineSet
530 0 m 2,0,1
 120 0 120 0 120 380 c 2,2,-1
 120 1130 l 2,3,4
 120 1510 120 1510 530 1510 c 2,5,-1
 840 1510 l 2,6,7
 1250 1510 1250 1510 1250 1130 c 2,8,-1
 1250 380 l 2,9,10
 1250 198 1250 198 1163 103 c 1,11,-1
 1197 57 l 1,12,-1
 910 -40 l 1,13,-1
 900 -40 l 1,14,-1
 871 0 l 1,15,-1
 530 0 l 2,0,1
930 420 m 1,16,-1
 930 1289 l 2,17,18
 930 1360 930 1360 850 1360 c 2,19,-1
 520 1360 l 2,20,21
 440 1360 440 1360 440 1289 c 2,22,-1
 440 221 l 2,23,24
 440 150 440 150 520 150 c 2,25,-1
 760 150 l 1,26,-1
 494 512 l 1,27,-1
 781 609 l 1,28,-1
 791 609 l 1,29,-1
 930 420 l 1,16,-1
EndSplineSet
Validated: 1
EndChar

StartChar: R
Encoding: 82 82 53
Width: 1369
GlyphClass: 2
Flags: W
HStem: -20 21G<160 212.177 998.87 1068> 440 150<480 688> 1360 150<480 873.271>
VStem: 160 320<127 440 590 1360> 880 330<615.052 1334.85>
LayerCount: 2
Fore
SplineSet
480 590 m 1,0,-1
 800 590 l 2,1,2
 880 590 880 590 880 661 c 2,3,-1
 880 1289 l 2,4,5
 880 1360 880 1360 800 1360 c 2,6,-1
 480 1360 l 1,7,-1
 480 590 l 1,0,-1
170 -20 m 1,8,-1
 160 -20 l 1,9,-1
 160 1383 l 1,10,-1
 428 1510 l 1,11,-1
 800 1510 l 2,12,13
 1210 1510 1210 1510 1210 1122 c 2,14,-1
 1210 828 l 2,15,16
 1210 588 1210 588 1054 497 c 1,17,-1
 1329 116 l 1,18,-1
 1023 -20 l 1,19,-1
 1013 -20 l 1,20,-1
 688 440 l 1,21,-1
 480 440 l 1,22,-1
 480 127 l 1,23,-1
 170 -20 l 1,8,-1
EndSplineSet
Validated: 1
EndChar

StartChar: T
Encoding: 84 84 54
Width: 1190
GlyphClass: 2
Flags: W
HStem: -20 21G<435 487.466> 1360 150<77 435 755 1113>
VStem: 435 320<126 1360>
LayerCount: 2
Fore
SplineSet
445 -20 m 1,0,-1
 435 -20 l 1,1,-1
 435 1360 l 1,2,-1
 10 1360 l 1,3,-1
 10 1370 l 1,4,-1
 77 1510 l 1,5,-1
 1180 1510 l 1,6,-1
 1180 1500 l 1,7,-1
 1113 1360 l 1,8,-1
 755 1360 l 1,9,-1
 755 126 l 1,10,-1
 445 -20 l 1,0,-1
EndSplineSet
Validated: 1
EndChar

StartChar: U
Encoding: 85 85 55
Width: 1410
GlyphClass: 2
Flags: W
HStem: 0 150<465.217 944.783> 1510 20G<407.823 460 1217.82 1270>
VStem: 140 320<171.538 1383> 950 320<171.538 1383>
LayerCount: 2
Fore
SplineSet
860 0 m 2,0,-1
 550 0 l 2,1,2
 140 0 140 0 140 380 c 2,3,-1
 140 1383 l 1,4,-1
 450 1530 l 1,5,-1
 460 1530 l 1,6,-1
 460 221 l 2,7,8
 460 150 460 150 540 150 c 2,9,-1
 870 150 l 2,10,11
 950 150 950 150 950 221 c 2,12,-1
 950 1383 l 1,13,-1
 1260 1530 l 1,14,-1
 1270 1530 l 1,15,-1
 1270 380 l 2,16,17
 1270 0 1270 0 860 0 c 2,0,-1
EndSplineSet
Validated: 1
EndChar

StartChar: V
Encoding: 86 86 56
Width: 1385
GlyphClass: 2
Flags: W
HStem: -20 21G<540.336 600.222> 1510 20G<244.594 304.665 1225.81 1286.5>
DStem2: 297 1530 5 1397 0.357831 -0.933786<19.707 1265.83> 750 348 824 106 0.378421 0.925634<0 1273.26>
LayerCount: 2
Fore
SplineSet
558 -20 m 1,0,-1
 548 -20 l 1,1,-1
 5 1397 l 1,2,-1
 287 1530 l 1,3,-1
 297 1530 l 1,4,-1
 750 348 l 1,5,-1
 1234 1530 l 1,6,-1
 1244 1530 l 1,7,-1
 1380 1466 l 1,8,-1
 824 106 l 1,9,-1
 558 -20 l 1,0,-1
EndSplineSet
Validated: 1
EndChar

StartChar: W
Encoding: 87 87 57
Width: 2220
GlyphClass: 2
Flags: W
HStem: 0 150<465.217 946.172 1273.83 1754.78> 1510 20G<407.823 460 1217.82 1270 2027.82 2080>
VStem: 140 320<171.538 1383> 950 320<154.438 1383> 1760 320<171.538 1383>
CounterMasks: 1 38
LayerCount: 2
Fore
SplineSet
550 0 m 2,0,1
 140 0 140 0 140 380 c 2,2,-1
 140 1383 l 1,3,-1
 450 1530 l 1,4,-1
 460 1530 l 1,5,-1
 460 221 l 2,6,7
 460 150 460 150 540 150 c 2,8,-1
 870 150 l 2,9,10
 950 150 950 150 950 221 c 2,11,-1
 950 1383 l 1,12,-1
 1260 1530 l 1,13,-1
 1270 1530 l 1,14,-1
 1270 221 l 2,15,16
 1270 150 1270 150 1350 150 c 2,17,-1
 1680 150 l 2,18,19
 1760 150 1760 150 1760 221 c 2,20,-1
 1760 1383 l 1,21,-1
 2070 1530 l 1,22,-1
 2080 1530 l 1,23,-1
 2080 380 l 2,24,25
 2080 0 2080 0 1670 0 c 2,26,-1
 1360 0 l 2,27,28
 1206 0 1206 0 1110 54 c 1,29,30
 1014 0 1014 0 860 0 c 2,31,-1
 550 0 l 2,0,1
EndSplineSet
Validated: 1
EndChar

StartChar: X
Encoding: 88 88 58
Width: 1249
GlyphClass: 2
Flags: W
HStem: -20 21G<104.846 171.583 949.597 1015.22> 1510 20G<233.778 299.38 1077.44 1143.52>
DStem2: 286 1530 10 1404 0.556181 -0.831061<0 694.208 971.302 1664.68> 10 45 157 -20 0.588883 0.808218<34.0317 746.896 1123.7 1837.38>
LayerCount: 2
Fore
SplineSet
157 -20 m 1,0,-1
 147 -20 l 1,1,-1
 10 45 l 1,2,-1
 484 696 l 1,3,-1
 10 1404 l 1,4,-1
 276 1530 l 1,5,-1
 286 1530 l 1,6,-1
 672 953 l 1,7,-1
 1092 1530 l 1,8,-1
 1102 1530 l 1,9,-1
 1239 1464 l 1,10,-1
 765 814 l 1,11,-1
 1239 106 l 1,12,-1
 973 -20 l 1,13,-1
 963 -20 l 1,14,-1
 577 556 l 1,15,-1
 157 -20 l 1,0,-1
EndSplineSet
Validated: 1
EndChar

StartChar: Y
Encoding: 89 89 59
Width: 1250
GlyphClass: 2
Flags: W
HStem: -20 21G<465 517.177> 417 150<407.194 465 785 842.806> 1510 20G<347.823 400 1117.82 1170>
VStem: 80 320<593.388 1383> 465 320<127 417> 850 320<593.388 1383>
CounterMasks: 1 1c
LayerCount: 2
Fore
SplineSet
475 -20 m 1,0,-1
 465 -20 l 1,1,-1
 465 417 l 1,2,3
 80 428 80 428 80 797 c 2,4,-1
 80 1383 l 1,5,-1
 390 1530 l 1,6,-1
 400 1530 l 1,7,-1
 400 638 l 2,8,9
 400 567 400 567 480 567 c 2,10,-1
 770 567 l 2,11,12
 850 567 850 567 850 638 c 2,13,-1
 850 1383 l 1,14,-1
 1160 1530 l 1,15,-1
 1170 1530 l 1,16,-1
 1170 797 l 2,17,18
 1170 428 1170 428 785 417 c 1,19,-1
 785 127 l 1,20,-1
 475 -20 l 1,0,-1
EndSplineSet
Validated: 1
EndChar

StartChar: Z
Encoding: 90 90 60
Width: 1138
GlyphClass: 2
Flags: W
HStem: 0 150<419 1061> 1360 150<108 718>
DStem2: 10 10 419 150 0.464962 0.88533<314.116 1524.39>
LayerCount: 2
Fore
SplineSet
10 0 m 1,0,-1
 10 10 l 1,1,-1
 718 1360 l 1,2,-1
 41 1360 l 1,3,-1
 41 1370 l 1,4,-1
 108 1510 l 1,5,-1
 1128 1510 l 1,6,-1
 1128 1500 l 1,7,-1
 419 150 l 1,8,-1
 1128 150 l 1,9,-1
 1128 140 l 1,10,-1
 1061 0 l 1,11,-1
 10 0 l 1,0,-1
EndSplineSet
Validated: 1
EndChar

StartChar: bracketleft
Encoding: 91 91 61
Width: 920
GlyphClass: 2
Flags: W
HStem: -240 150<480 843> 1600 150<480 843>
VStem: 160 320<-90 1600>
LayerCount: 2
Fore
SplineSet
160 -240 m 1,0,-1
 160 1624 l 1,1,-1
 428 1750 l 1,2,-1
 910 1750 l 1,3,-1
 910 1740 l 1,4,-1
 843 1600 l 1,5,-1
 480 1600 l 1,6,-1
 480 -90 l 1,7,-1
 910 -90 l 1,8,-1
 910 -100 l 1,9,-1
 843 -240 l 1,10,-1
 160 -240 l 1,0,-1
EndSplineSet
Validated: 1
EndChar

StartChar: backslash
Encoding: 92 92 62
Width: 1105
GlyphClass: 2
Flags: W
DStem2: 256 1710 10 1597 0.423051 -0.906106<0 1981.11>
LayerCount: 2
Fore
SplineSet
858 -200 m 1,0,-1
 848 -200 l 1,1,-1
 10 1597 l 1,2,-1
 246 1710 l 1,3,-1
 256 1710 l 1,4,-1
 1095 -87 l 1,5,-1
 858 -200 l 1,0,-1
EndSplineSet
Validated: 1
EndChar

StartChar: bracketright
Encoding: 93 93 63
Width: 920
GlyphClass: 2
Flags: W
HStem: -240 150<77 440> 1600 150<77 440>
VStem: 440 320<-90 1600>
LayerCount: 2
Fore
SplineSet
492 -240 m 1,0,-1
 10 -240 l 1,1,-1
 10 -230 l 1,2,-1
 77 -90 l 1,3,-1
 440 -90 l 1,4,-1
 440 1600 l 1,5,-1
 10 1600 l 1,6,-1
 10 1610 l 1,7,-1
 77 1750 l 1,8,-1
 760 1750 l 1,9,-1
 760 -114 l 1,10,-1
 492 -240 l 1,0,-1
EndSplineSet
Validated: 1
EndChar

StartChar: asciicircum
Encoding: 94 94 64
Width: 1061
GlyphClass: 2
Flags: W
HStem: 1039 531
DStem2: 30 1112 193 1039 0.701689 0.712484<62.3639 462.65> 634 1570 469 1329 0.700901 -0.713259<56.2468 462.849>
LayerCount: 2
Fore
SplineSet
355 1442 m 1,0,-1
 624 1570 l 1,1,-1
 634 1570 l 1,2,-1
 1031 1166 l 1,3,-1
 764 1039 l 1,4,-1
 754 1039 l 1,5,-1
 469 1329 l 1,6,-1
 193 1039 l 1,7,-1
 183 1039 l 1,8,-1
 30 1112 l 1,9,-1
 355 1442 l 1,0,-1
EndSplineSet
Validated: 1
EndChar

StartChar: underscore
Encoding: 95 95 65
Width: 1404
GlyphClass: 2
Flags: W
HStem: -410 200<201 1203>
LayerCount: 2
Fore
SplineSet
110 -410 m 1,0,-1
 110 -400 l 1,1,-1
 201 -210 l 1,2,-1
 1294 -210 l 1,3,-1
 1294 -220 l 1,4,-1
 1203 -410 l 1,5,-1
 110 -410 l 1,0,-1
EndSplineSet
Validated: 1
EndChar

StartChar: grave
Encoding: 96 96 66
Width: 405
GlyphClass: 2
Flags: W
HStem: 1160 410
VStem: 30 345
DStem2: 220 1570 30 1485 0.429396 -0.903116<0 356.108>
LayerCount: 2
Fore
SplineSet
210 1570 m 1,0,-1
 220 1570 l 1,1,-1
 375 1244 l 1,2,-1
 197 1160 l 1,3,-1
 187 1160 l 1,4,-1
 30 1485 l 1,5,-1
 210 1570 l 1,0,-1
EndSplineSet
Validated: 1
EndChar

StartChar: a
Encoding: 97 97 67
Width: 1094
GlyphClass: 2
Flags: W
HStem: -20 21G<654 706.029> 0 140<369.082 653.406> 580 140<369.082 653.344> 960 140<256 645.128>
VStem: 50 310<145.578 574.422> 654 300<140 580 713 956.312>
LayerCount: 2
Fore
SplineSet
390 0 m 2,0,1
 50 0 50 0 50 308 c 2,2,-1
 50 412 l 2,3,4
 50 720 50 720 390 720 c 2,5,-1
 614 720 l 2,6,7
 633 720 633 720 654 713 c 1,8,-1
 654 925 l 2,9,10
 654 960 654 960 624 960 c 2,11,-1
 194 960 l 1,12,-1
 194 970 l 1,13,-1
 256 1100 l 1,14,-1
 614 1100 l 2,15,16
 954 1100 954 1100 954 796 c 2,17,-1
 954 118 l 1,18,-1
 664 -20 l 1,19,-1
 654 -20 l 1,20,-1
 654 7 l 1,21,22
 635 0 635 0 614 0 c 2,23,-1
 390 0 l 2,0,1
360 172 m 2,24,25
 360 140 360 140 400 140 c 2,26,-1
 619 140 l 2,27,28
 659 140 659 140 659 172 c 2,29,-1
 659 548 l 2,30,31
 659 580 659 580 619 580 c 2,32,-1
 400 580 l 2,33,34
 360 580 360 580 360 548 c 2,35,-1
 360 172 l 2,24,25
EndSplineSet
Validated: 1
EndChar

StartChar: b
Encoding: 98 98 68
Width: 1210
GlyphClass: 2
Flags: W
HStem: 0 140<448.872 770.918> 960 140<440.625 770.918> 1510 20G<387.971 440>
VStem: 140 300<145.105 960 1094 1392> 780 310<145.105 954.895>
LayerCount: 2
Fore
SplineSet
480 0 m 2,0,1
 140 0 140 0 140 307 c 2,2,-1
 140 1392 l 1,3,-1
 430 1530 l 1,4,-1
 440 1530 l 1,5,-1
 440 1094 l 1,6,7
 460 1100 460 1100 480 1100 c 2,8,-1
 750 1100 l 2,9,10
 1090 1100 1090 1100 1090 793 c 2,11,-1
 1090 307 l 2,12,13
 1090 0 1090 0 750 0 c 2,14,-1
 480 0 l 2,0,1
480 140 m 2,15,16
 740 140 l 2,17,18
 780 140 780 140 780 175 c 2,19,-1
 780 925 l 2,20,21
 780 960 780 960 740 960 c 2,22,-1
 480 960 l 2,23,24
 440 960 440 960 440 925 c 2,25,-1
 440 175 l 2,26,27
 440 140 440 140 480 140 c 2,15,16
EndSplineSet
Validated: 1
EndChar

StartChar: c
Encoding: 99 99 69
Width: 1070
GlyphClass: 2
Flags: W
HStem: 0 140<439.082 710.918> 960 140<439.082 710.918>
VStem: 120 310<145.105 954.895> 715 315<145.105 320 791 953.949>
LayerCount: 2
Fore
SplineSet
690 0 m 2,0,-1
 460 0 l 2,1,2
 120 0 120 0 120 307 c 2,3,-1
 120 793 l 2,4,5
 120 1100 120 1100 460 1100 c 2,6,-1
 690 1100 l 2,7,8
 1030 1100 1030 1100 1030 791 c 1,9,-1
 725 646 l 1,10,-1
 715 646 l 1,11,-1
 715 925 l 2,12,13
 715 960 715 960 675 960 c 2,14,-1
 470 960 l 2,15,16
 430 960 430 960 430 925 c 2,17,-1
 430 175 l 2,18,19
 430 140 430 140 470 140 c 2,20,-1
 675 140 l 2,21,22
 715 140 715 140 715 175 c 2,23,-1
 715 320 l 1,24,-1
 1020 465 l 1,25,-1
 1030 465 l 1,26,-1
 1030 307 l 2,27,28
 1030 0 1030 0 690 0 c 2,0,-1
EndSplineSet
Validated: 1
EndChar

StartChar: d
Encoding: 100 100 70
Width: 1210
GlyphClass: 2
Flags: W
HStem: 0 140<439.082 761.128> 960 140<439.082 769.375> 1510 20G<1017.97 1070>
VStem: 120 310<145.105 954.895> 770 300<145.105 960 1094 1392>
LayerCount: 2
Fore
SplineSet
460 0 m 2,0,1
 120 0 120 0 120 307 c 2,2,-1
 120 793 l 2,3,4
 120 1100 120 1100 460 1100 c 2,5,-1
 730 1100 l 2,6,7
 750 1100 750 1100 770 1094 c 1,8,-1
 770 1392 l 1,9,-1
 1060 1530 l 1,10,-1
 1070 1530 l 1,11,-1
 1070 307 l 2,12,13
 1070 0 1070 0 730 0 c 2,14,-1
 460 0 l 2,0,1
730 140 m 2,15,16
 770 140 770 140 770 175 c 2,17,-1
 770 925 l 2,18,19
 770 960 770 960 730 960 c 2,20,-1
 470 960 l 2,21,22
 430 960 430 960 430 925 c 2,23,-1
 430 175 l 2,24,25
 430 140 430 140 470 140 c 2,26,-1
 730 140 l 2,15,16
EndSplineSet
Validated: 1
EndChar

StartChar: e
Encoding: 101 101 71
Width: 1150
GlyphClass: 2
Flags: W
HStem: 0 140<439.082 710.918> 960 140<439.082 710.918>
VStem: 120 310<145.105 357 516 954.895> 715 315<145.105 320 654 954.895>
DStem2: 430 516 430 357 0.90386 0.427827<0 321.16>
LayerCount: 2
Fore
SplineSet
690 0 m 2,0,-1
 460 0 l 2,1,2
 120 0 120 0 120 307 c 2,3,-1
 120 793 l 2,4,5
 120 1100 120 1100 460 1100 c 2,6,-1
 690 1100 l 2,7,8
 1030 1100 1030 1100 1030 793 c 2,9,-1
 1030 641 l 1,10,-1
 430 357 l 1,11,-1
 430 175 l 2,12,13
 430 140 430 140 470 140 c 2,14,-1
 675 140 l 2,15,16
 715 140 715 140 715 175 c 2,17,-1
 715 320 l 1,18,-1
 1020 465 l 1,19,-1
 1030 465 l 1,20,-1
 1030 307 l 2,21,22
 1030 0 1030 0 690 0 c 2,0,-1
430 516 m 1,23,-1
 720 654 l 1,24,-1
 720 925 l 2,25,26
 720 960 720 960 680 960 c 2,27,28
 470 960 l 2,29,30
 430 960 430 960 430 925 c 2,31,-1
 430 516 l 1,23,-1
EndSplineSet
Validated: 1
EndChar

StartChar: f
Encoding: 102 102 72
Width: 860
GlyphClass: 2
Flags: W
HStem: -20 21G<140 192.029> 732 140<440 749> 1370 140<448.872 788>
VStem: 140 300<118 732 872 1364.89>
LayerCount: 2
Fore
SplineSet
150 -20 m 1,0,-1
 140 -20 l 1,1,-1
 140 1203 l 2,2,3
 140 1510 140 1510 480 1510 c 2,4,-1
 850 1510 l 1,5,-1
 850 1500 l 1,6,-1
 788 1370 l 1,7,-1
 480 1370 l 2,8,9
 440 1370 440 1370 440 1335 c 2,10,-1
 440 872 l 1,11,-1
 811 872 l 1,12,-1
 811 862 l 1,13,-1
 749 732 l 1,14,-1
 440 732 l 1,15,-1
 440 118 l 1,16,-1
 150 -20 l 1,0,-1
EndSplineSet
Validated: 1
EndChar

StartChar: g
Encoding: 103 103 73
Width: 1210
GlyphClass: 2
Flags: W
HStem: -410 140<322 761.128> 0 140<439.082 769.375> 960 140<439.082 761.128>
VStem: 120 310<145.105 954.895> 770 300<-264.895 6 140 954.895>
LayerCount: 2
Fore
SplineSet
460 0 m 2,0,1
 120 0 120 0 120 307 c 2,2,-1
 120 793 l 2,3,4
 120 1100 120 1100 460 1100 c 2,5,-1
 730 1100 l 2,6,7
 1070 1100 1070 1100 1070 793 c 2,8,-1
 1070 -103 l 2,9,10
 1070 -410 1070 -410 730 -410 c 2,11,-1
 260 -410 l 1,12,-1
 260 -400 l 1,13,-1
 322 -270 l 1,14,-1
 730 -270 l 2,15,16
 770 -270 770 -270 770 -235 c 2,17,-1
 770 6 l 1,18,19
 750 0 750 0 730 0 c 2,20,-1
 460 0 l 2,0,1
770 925 m 2,21,22
 770 960 770 960 730 960 c 2,23,-1
 470 960 l 2,24,25
 430 960 430 960 430 925 c 2,26,-1
 430 175 l 2,27,28
 430 140 430 140 470 140 c 2,29,-1
 730 140 l 2,30,31
 770 140 770 140 770 175 c 2,32,-1
 770 925 l 2,21,22
EndSplineSet
Validated: 1
EndChar

StartChar: h
Encoding: 104 104 74
Width: 1250
GlyphClass: 2
Flags: W
HStem: -20 21G<160 212.029 810 862.029> 960 140<460.533 801.128> 1510 20G<407.971 460>
VStem: 160 300<118 960 1093 1392> 810 300<118 954.895>
LayerCount: 2
Fore
SplineSet
170 -20 m 1,0,-1
 160 -20 l 1,1,-1
 160 1392 l 1,2,-1
 450 1530 l 1,3,-1
 460 1530 l 1,4,-1
 460 1093 l 1,5,6
 477 1100 477 1100 500 1100 c 2,7,-1
 770 1100 l 2,8,9
 1110 1100 1110 1100 1110 793 c 2,10,-1
 1110 118 l 1,11,-1
 820 -20 l 1,12,-1
 810 -20 l 1,13,-1
 810 925 l 2,14,15
 810 960 810 960 770 960 c 2,16,-1
 500 960 l 2,17,18
 460 960 460 960 460 925 c 2,19,-1
 460 118 l 1,20,-1
 170 -20 l 1,0,-1
EndSplineSet
Validated: 1
EndChar

StartChar: i
Encoding: 105 105 75
Width: 620
GlyphClass: 2
Flags: W
HStem: -20 21G<160 212.029> 1100 20G<407.971 460> 1180 364<192.131 426.338>
VStem: 130 360<1244.3 1481.73> 160 300<118 982>
LayerCount: 2
Fore
SplineSet
170 -20 m 1,0,-1
 160 -20 l 1,1,-1
 160 982 l 1,2,-1
 450 1120 l 1,3,-1
 460 1120 l 1,4,-1
 460 118 l 1,5,-1
 170 -20 l 1,0,-1
310 1544 m 0,6,7
 386 1544 386 1544 438 1491 c 128,-1,8
 490 1438 490 1438 490 1363 c 0,9,10
 490 1289 490 1289 437 1234 c 0,11,12
 385 1180 385 1180 310 1180 c 0,13,14
 233 1180 233 1180 181.5 1234 c 128,-1,15
 130 1288 130 1288 130 1362 c 0,16,17
 130 1438 130 1438 182 1490 c 0,18,19
 235 1544 235 1544 310 1544 c 0,6,7
EndSplineSet
Validated: 1
EndChar

StartChar: j
Encoding: 106 106 76
Width: 620
GlyphClass: 2
Flags: W
HStem: -410 140<-13 151.128> 1100 20G<407.971 460> 1180 364<192.131 426.338>
VStem: 130 360<1244.3 1481.73> 160 300<-264.895 982>
LayerCount: 2
Fore
SplineSet
450 1120 m 1,0,-1
 460 1120 l 1,1,-1
 460 -103 l 2,2,3
 460 -410 460 -410 120 -410 c 2,4,-1
 -75 -410 l 1,5,-1
 -75 -400 l 1,6,-1
 -13 -270 l 1,7,-1
 120 -270 l 2,8,9
 160 -270 160 -270 160 -235 c 2,10,-1
 160 982 l 1,11,-1
 450 1120 l 1,0,-1
310 1544 m 0,12,13
 386 1544 386 1544 438 1491 c 128,-1,14
 490 1438 490 1438 490 1363 c 0,15,16
 490 1289 490 1289 437 1234 c 0,17,18
 385 1180 385 1180 310 1180 c 0,19,20
 233 1180 233 1180 181.5 1234 c 128,-1,21
 130 1288 130 1288 130 1362 c 0,22,23
 130 1438 130 1438 182 1490 c 0,24,25
 235 1544 235 1544 310 1544 c 0,12,13
EndSplineSet
Validated: 1
EndChar

StartChar: k
Encoding: 107 107 77
Width: 1210
GlyphClass: 2
Flags: W
HStem: -20 21G<160 212.029 790 842.029> 677 140<716 781.128> 1100 20G<902.4 986.319> 1510 20G<407.971 460>
VStem: 160 300<118 677 820 1392> 790 300<118 671.895>
DStem2: 460 820 716 817 0.84498 0.534798<214.711 560.96>
LayerCount: 2
Fore
SplineSet
170 -20 m 1,0,-1
 160 -20 l 1,1,-1
 160 1392 l 1,2,-1
 450 1530 l 1,3,-1
 460 1530 l 1,4,-1
 460 820 l 1,5,-1
 934 1120 l 1,6,-1
 944 1120 l 1,7,-1
 1090 1051 l 1,8,-1
 716 817 l 1,9,-1
 750 817 l 2,10,11
 1090 817 1090 817 1090 510 c 2,12,-1
 1090 118 l 1,13,-1
 800 -20 l 1,14,-1
 790 -20 l 1,15,-1
 790 642 l 2,16,17
 790 677 790 677 750 677 c 2,18,-1
 500 677 l 2,19,20
 460 677 460 677 460 642 c 2,21,-1
 460 118 l 1,22,-1
 170 -20 l 1,0,-1
EndSplineSet
Validated: 1
EndChar

StartChar: l
Encoding: 108 108 78
Width: 620
GlyphClass: 2
Flags: W
HStem: -20 21G<160 212.029> 1510 20G<407.971 460>
VStem: 160 300<118 1392>
LayerCount: 2
Fore
SplineSet
170 -20 m 1,0,-1
 160 -20 l 1,1,-1
 160 1392 l 1,2,-1
 450 1530 l 1,3,-1
 460 1530 l 1,4,-1
 460 118 l 1,5,-1
 170 -20 l 1,0,-1
EndSplineSet
Validated: 1
EndChar

StartChar: m
Encoding: 109 109 79
Width: 1880
GlyphClass: 2
Flags: W
HStem: -20 21G<140 192.029 790 842.029 1440 1492.03> 960 140<448.872 788.065 1091.94 1431.13>
VStem: 140 300<118 954.895> 790 300<118 960> 1440 300<118 954.895>
CounterMasks: 1 38
LayerCount: 2
Fore
SplineSet
150 -20 m 1,0,-1
 140 -20 l 1,1,-1
 140 793 l 2,2,3
 140 1100 140 1100 480 1100 c 2,4,-1
 750 1100 l 2,5,6
 864 1100 864 1100 940 1065 c 1,7,8
 1016 1100 1016 1100 1130 1100 c 2,9,-1
 1400 1100 l 2,10,11
 1740 1100 1740 1100 1740 793 c 2,12,-1
 1740 118 l 1,13,-1
 1450 -20 l 1,14,-1
 1440 -20 l 1,15,-1
 1440 925 l 2,16,17
 1440 960 1440 960 1400 960 c 2,18,-1
 1130 960 l 2,19,20
 1090 960 1090 960 1090 925 c 2,21,-1
 1090 118 l 1,22,-1
 800 -20 l 1,23,-1
 790 -20 l 1,24,-1
 790 925 l 2,25,26
 790 960 790 960 750 960 c 2,27,-1
 480 960 l 2,28,29
 440 960 440 960 440 925 c 2,30,-1
 440 118 l 1,31,-1
 150 -20 l 1,0,-1
EndSplineSet
Validated: 1
EndChar

StartChar: n
Encoding: 110 110 80
Width: 1230
GlyphClass: 2
Flags: W
HStem: -20 21G<140 192.029 790 842.029> 960 140<448.872 781.128>
VStem: 140 300<118 954.895> 790 300<118 954.895>
LayerCount: 2
Fore
SplineSet
150 -20 m 1,0,-1
 140 -20 l 1,1,-1
 140 793 l 2,2,3
 140 1100 140 1100 480 1100 c 2,4,-1
 750 1100 l 2,5,6
 1090 1100 1090 1100 1090 793 c 2,7,-1
 1090 118 l 1,8,-1
 800 -20 l 1,9,-1
 790 -20 l 1,10,-1
 790 925 l 2,11,12
 790 960 790 960 750 960 c 2,13,-1
 480 960 l 2,14,15
 440 960 440 960 440 925 c 2,16,-1
 440 118 l 1,17,-1
 150 -20 l 1,0,-1
EndSplineSet
Validated: 1
EndChar

StartChar: o
Encoding: 111 111 81
Width: 1190
GlyphClass: 2
Flags: W
HStem: 0 140<439.082 750.918> 960 140<439.082 750.918>
VStem: 120 310<145.105 954.895> 760 310<145.105 954.895>
LayerCount: 2
Fore
SplineSet
720 140 m 2,0,1
 760 140 760 140 760 175 c 2,2,-1
 760 925 l 2,3,4
 760 960 760 960 720 960 c 2,5,-1
 470 960 l 2,6,7
 430 960 430 960 430 925 c 2,8,-1
 430 175 l 2,9,10
 430 140 430 140 470 140 c 2,11,-1
 720 140 l 2,0,1
730 0 m 2,12,-1
 460 0 l 2,13,14
 120 0 120 0 120 307 c 2,15,-1
 120 793 l 2,16,17
 120 1100 120 1100 460 1100 c 2,18,-1
 730 1100 l 2,19,20
 1070 1100 1070 1100 1070 793 c 2,21,-1
 1070 307 l 2,22,23
 1070 0 1070 0 730 0 c 2,12,-1
EndSplineSet
Validated: 1
EndChar

StartChar: p
Encoding: 112 112 82
Width: 1210
GlyphClass: 2
Flags: W
HStem: -430 21G<140 192.029> 0 140<440.625 770.918> 960 140<448.872 770.918>
VStem: 140 300<-292 6 140 954.895> 780 310<145.105 954.895>
LayerCount: 2
Fore
SplineSet
750 0 m 2,0,-1
 480 0 l 2,1,2
 460 0 460 0 440 6 c 1,3,-1
 440 -292 l 1,4,-1
 150 -430 l 1,5,-1
 140 -430 l 1,6,-1
 140 793 l 2,7,8
 140 1100 140 1100 480 1100 c 2,9,-1
 750 1100 l 2,10,11
 1090 1100 1090 1100 1090 793 c 2,12,-1
 1090 307 l 2,13,14
 1090 0 1090 0 750 0 c 2,0,-1
480 960 m 2,15,16
 440 960 440 960 440 925 c 2,17,-1
 440 175 l 2,18,19
 440 140 440 140 480 140 c 2,20,-1
 740 140 l 2,21,22
 780 140 780 140 780 175 c 2,23,-1
 780 925 l 2,24,25
 780 960 780 960 740 960 c 2,26,-1
 480 960 l 2,15,16
EndSplineSet
Validated: 1
EndChar

StartChar: q
Encoding: 113 113 83
Width: 1210
GlyphClass: 2
Flags: W
HStem: -430 21G<770 822.029> 0 140<439.082 769.375> 960 140<439.082 761.128>
VStem: 120 310<145.105 954.895> 770 300<-292 6 140 954.895>
LayerCount: 2
Fore
SplineSet
460 0 m 2,0,1
 120 0 120 0 120 307 c 2,2,-1
 120 793 l 2,3,4
 120 1100 120 1100 460 1100 c 2,5,-1
 730 1100 l 2,6,7
 1070 1100 1070 1100 1070 793 c 2,8,-1
 1070 -292 l 1,9,-1
 780 -430 l 1,10,-1
 770 -430 l 1,11,-1
 770 6 l 1,12,13
 750 0 750 0 730 0 c 2,14,-1
 460 0 l 2,0,1
730 960 m 2,15,16
 470 960 l 2,17,18
 430 960 430 960 430 925 c 2,19,-1
 430 175 l 2,20,21
 430 140 430 140 470 140 c 2,22,-1
 730 140 l 2,23,24
 770 140 770 140 770 175 c 2,25,-1
 770 925 l 2,26,27
 770 960 770 960 730 960 c 2,15,16
EndSplineSet
Validated: 1
EndChar

StartChar: r
Encoding: 114 114 84
Width: 860
GlyphClass: 2
Flags: W
HStem: -20 21G<140 192.029> 960 140<448.872 788>
VStem: 140 300<118 954.895>
LayerCount: 2
Fore
SplineSet
150 -20 m 1,0,-1
 140 -20 l 1,1,-1
 140 793 l 2,2,3
 140 1100 140 1100 480 1100 c 2,4,-1
 850 1100 l 1,5,-1
 850 1090 l 1,6,-1
 788 960 l 1,7,-1
 480 960 l 2,8,9
 440 960 440 960 440 925 c 2,10,-1
 440 118 l 1,11,-1
 150 -20 l 1,0,-1
EndSplineSet
Validated: 1
EndChar

StartChar: t
Encoding: 116 116 85
Width: 890
GlyphClass: 2
Flags: W
HStem: -20 21G<300 351.985> 960 140<72 300 585 818> 1510 20G<533.015 585>
VStem: 300 285<111 960 1100 1399>
LayerCount: 2
Fore
SplineSet
310 -20 m 1,0,-1
 300 -20 l 1,1,-1
 300 960 l 1,2,-1
 10 960 l 1,3,-1
 10 970 l 1,4,-1
 72 1100 l 1,5,-1
 300 1100 l 1,6,-1
 300 1399 l 1,7,-1
 575 1530 l 1,8,-1
 585 1530 l 1,9,-1
 585 1100 l 1,10,-1
 880 1100 l 1,11,-1
 880 1090 l 1,12,-1
 818 960 l 1,13,-1
 585 960 l 1,14,-1
 585 111 l 1,15,-1
 310 -20 l 1,0,-1
EndSplineSet
Validated: 1
EndChar

StartChar: u
Encoding: 117 117 86
Width: 1230
GlyphClass: 2
Flags: W
HStem: 0 140<448.872 781.128> 1100 20G<387.971 440 1037.97 1090>
VStem: 140 300<145.105 982> 790 300<145.105 982>
LayerCount: 2
Fore
SplineSet
480 0 m 2,0,1
 140 0 140 0 140 307 c 2,2,-1
 140 982 l 1,3,-1
 430 1120 l 1,4,-1
 440 1120 l 1,5,-1
 440 175 l 2,6,7
 440 140 440 140 480 140 c 2,8,-1
 750 140 l 2,9,10
 790 140 790 140 790 175 c 2,11,-1
 790 982 l 1,12,-1
 1080 1120 l 1,13,-1
 1090 1120 l 1,14,-1
 1090 307 l 2,15,16
 1090 0 1090 0 750 0 c 2,17,-1
 480 0 l 2,0,1
EndSplineSet
Validated: 1
EndChar

StartChar: v
Encoding: 118 118 87
Width: 1107
GlyphClass: 2
Flags: W
HStem: -20 21G<404.961 465.031> 1100 20G<225.08 285.029 960.394 1020.69>
DStem2: 277 1120 5 995 0.372966 -0.927845<14.5338 896.538> 611 288 692 108 0.395199 0.918596<0 904.117>
LayerCount: 2
Fore
SplineSet
423 -20 m 1,0,-1
 413 -20 l 1,1,-1
 5 995 l 1,2,-1
 267 1120 l 1,3,-1
 277 1120 l 1,4,-1
 611 288 l 1,5,-1
 969 1120 l 1,6,-1
 979 1120 l 1,7,-1
 1102 1061 l 1,8,-1
 692 108 l 1,9,-1
 423 -20 l 1,0,-1
EndSplineSet
Validated: 1
EndChar

StartChar: w
Encoding: 119 119 88
Width: 1880
GlyphClass: 2
Flags: W
HStem: 0 140<448.872 788.065 1091.94 1431.13> 1100 20G<387.971 440 1037.97 1090 1687.97 1740>
VStem: 140 300<145.105 982> 790 300<140 982> 1440 300<145.105 982>
CounterMasks: 1 38
LayerCount: 2
Fore
SplineSet
480 0 m 2,0,1
 140 0 140 0 140 307 c 2,2,-1
 140 982 l 1,3,-1
 430 1120 l 1,4,-1
 440 1120 l 1,5,-1
 440 175 l 2,6,7
 440 140 440 140 480 140 c 2,8,-1
 750 140 l 2,9,10
 790 140 790 140 790 175 c 2,11,-1
 790 982 l 1,12,-1
 1080 1120 l 1,13,-1
 1090 1120 l 1,14,-1
 1090 175 l 2,15,16
 1090 140 1090 140 1130 140 c 2,17,-1
 1400 140 l 2,18,19
 1440 140 1440 140 1440 175 c 2,20,-1
 1440 982 l 1,21,-1
 1730 1120 l 1,22,-1
 1740 1120 l 1,23,-1
 1740 307 l 2,24,25
 1740 0 1740 0 1400 0 c 2,26,-1
 1130 0 l 2,27,28
 1016 0 1016 0 940 35 c 1,29,30
 864 0 864 0 750 0 c 2,31,-1
 480 0 l 2,0,1
EndSplineSet
Validated: 1
EndChar

StartChar: x
Encoding: 120 120 89
Width: 978
GlyphClass: 2
Flags: W
HStem: -20 21G<93.2881 161.243 698.292 764.414> 1100 20G<213.949 279.724 817.796 884.667>
DStem2: 266 1120 10 1003 0.565434 -0.824793<0 475.421 718.417 1192.45> 10 39 146 -20 0.605755 0.795651<35.4392 527.054 866.225 1358.64>
LayerCount: 2
Fore
SplineSet
146 -20 m 1,0,-1
 136 -20 l 1,1,-1
 10 39 l 1,2,-1
 358 496 l 1,3,-1
 10 1003 l 1,4,-1
 256 1120 l 1,5,-1
 266 1120 l 1,6,-1
 535 728 l 1,7,-1
 833 1120 l 1,8,-1
 843 1120 l 1,9,-1
 968 1060 l 1,10,-1
 620 603 l 1,11,-1
 968 96 l 1,12,-1
 722 -20 l 1,13,-1
 712 -20 l 1,14,-1
 444 371 l 1,15,-1
 146 -20 l 1,0,-1
EndSplineSet
Validated: 1
EndChar

StartChar: y
Encoding: 121 121 90
Width: 1250
GlyphClass: 2
Flags: W
HStem: -410 140<342 781.128> 0 140<448.872 789.375> 1100 20G<387.971 440 1037.97 1090>
VStem: 140 300<145.105 982> 790 300<-264.895 6 140 982>
LayerCount: 2
Fore
SplineSet
480 0 m 2,0,1
 140 0 140 0 140 307 c 2,2,-1
 140 982 l 1,3,-1
 430 1120 l 1,4,-1
 440 1120 l 1,5,-1
 440 175 l 2,6,7
 440 140 440 140 480 140 c 2,8,-1
 750 140 l 2,9,10
 790 140 790 140 790 175 c 2,11,-1
 790 982 l 1,12,-1
 1080 1120 l 1,13,-1
 1090 1120 l 1,14,-1
 1090 -103 l 2,15,16
 1090 -410 1090 -410 750 -410 c 2,17,-1
 280 -410 l 1,18,-1
 280 -400 l 1,19,-1
 342 -270 l 1,20,-1
 750 -270 l 2,21,22
 790 -270 790 -270 790 -235 c 2,23,-1
 790 6 l 1,24,25
 770 0 770 0 750 0 c 2,26,-1
 480 0 l 2,0,1
EndSplineSet
Validated: 1
EndChar

StartChar: z
Encoding: 122 122 91
Width: 974
GlyphClass: 2
Flags: W
HStem: 0 140<405 902> 960 140<104 570>
DStem2: 10 10 405 140 0.507812 0.861468<312.577 1102.77>
LayerCount: 2
Fore
SplineSet
10 0 m 1,0,-1
 10 10 l 1,1,-1
 570 960 l 1,2,-1
 42 960 l 1,3,-1
 42 970 l 1,4,-1
 104 1100 l 1,5,-1
 964 1100 l 1,6,-1
 964 1090 l 1,7,-1
 405 140 l 1,8,-1
 964 140 l 1,9,-1
 964 130 l 1,10,-1
 902 0 l 1,11,-1
 10 0 l 1,0,-1
EndSplineSet
Validated: 1
EndChar

StartChar: braceleft
Encoding: 123 123 92
Width: 830
GlyphClass: 2
Flags: W
HStem: -240 150<559.217 800> 680 150<77 234> 1600 150<559.217 800>
VStem: 234 320<-68.4619 680 830 1578.46>
CounterMasks: 1 e0
LayerCount: 2
Fore
SplineSet
800 -240 m 1,0,-1
 644 -240 l 2,1,2
 234 -240 234 -240 234 140 c 2,3,-1
 234 680 l 1,4,-1
 10 680 l 1,5,-1
 10 690 l 1,6,-1
 77 830 l 1,7,-1
 234 830 l 1,8,-1
 234 1370 l 2,9,10
 234 1750 234 1750 644 1750 c 2,11,-1
 800 1750 l 1,12,-1
 800 1600 l 1,13,-1
 634 1600 l 2,14,15
 554 1600 554 1600 554 1529 c 2,16,-1
 554 -19 l 2,17,18
 554 -90 554 -90 634 -90 c 2,19,-1
 800 -90 l 1,20,-1
 800 -240 l 1,0,-1
EndSplineSet
Validated: 1
EndChar

StartChar: bar
Encoding: 124 124 93
Width: 690
GlyphClass: 2
Flags: W
VStem: 210 270<-76 1586>
LayerCount: 2
Fore
SplineSet
210 -200 m 1,0,-1
 210 1586 l 1,1,-1
 470 1710 l 1,2,-1
 480 1710 l 1,3,-1
 480 -76 l 1,4,-1
 220 -200 l 1,5,-1
 210 -200 l 1,0,-1
EndSplineSet
Validated: 1
EndChar

StartChar: braceright
Encoding: 125 125 94
Width: 830
GlyphClass: 2
Flags: W
HStem: -240 150<30 270.783> 680 150<596 753> 1600 150<30 270.783>
VStem: 276 320<-68.4619 680 830 1578.46>
CounterMasks: 1 e0
LayerCount: 2
Fore
SplineSet
30 -240 m 1,0,-1
 30 -90 l 1,1,-1
 196 -90 l 2,2,3
 276 -90 276 -90 276 -19 c 2,4,-1
 276 1529 l 2,5,6
 276 1600 276 1600 196 1600 c 2,7,-1
 30 1600 l 1,8,-1
 30 1750 l 1,9,-1
 186 1750 l 2,10,11
 596 1750 596 1750 596 1370 c 2,12,-1
 596 830 l 1,13,-1
 820 830 l 1,14,-1
 820 820 l 1,15,-1
 753 680 l 1,16,-1
 596 680 l 1,17,-1
 596 140 l 2,18,19
 596 -240 596 -240 186 -240 c 2,20,-1
 30 -240 l 1,0,-1
EndSplineSet
Validated: 1
EndChar

StartChar: asciitilde
Encoding: 126 126 95
Width: 1178
GlyphClass: 2
Flags: W
HStem: 515 212<729.113 890.449> 785 212<287.551 448.887>
VStem: 110 148<580 758.707> 920 148<753.293 932>
LayerCount: 2
Fore
SplineSet
426 997 m 0,0,1
 607 997 607 997 686 844 c 0,2,3
 717 783 717 783 736 763 c 0,4,5
 768 727 768 727 816 727 c 0,6,7
 920 727 920 727 920 932 c 1,8,-1
 1058 997 l 1,9,-1
 1068 997 l 1,10,11
 1068 515 1068 515 752 515 c 0,12,13
 571 515 571 515 492 668 c 0,14,15
 461 729 461 729 442 749 c 0,16,17
 410 785 410 785 362 785 c 0,18,19
 258 785 258 785 258 580 c 1,20,-1
 120 515 l 1,21,-1
 110 515 l 1,22,23
 110 997 110 997 426 997 c 0,0,1
EndSplineSet
Validated: 1
EndChar

StartChar: exclamdown
Encoding: 161 161 97
Width: 640
GlyphClass: 2
Flags: W
HStem: -430 21G<160 212.177> 755 365<203.122 437.869>
VStem: 140 360<817.422 1057.43> 160 320<-283 558>
LayerCount: 2
Fore
SplineSet
170 -430 m 1,0,-1
 160 -430 l 1,1,-1
 160 558 l 1,2,-1
 470 705 l 1,3,-1
 480 705 l 1,4,-1
 480 -283 l 1,5,-1
 170 -430 l 1,0,-1
320 1120 m 0,6,7
 396 1120 396 1120 448 1066 c 128,-1,8
 500 1012 500 1012 500 938 c 0,9,10
 500 862 500 862 448 809 c 0,11,12
 395 755 395 755 320 755 c 128,-1,13
 245 755 245 755 192.5 808.5 c 128,-1,14
 140 862 140 862 140 937 c 128,-1,15
 140 1012 140 1012 193 1066 c 128,-1,16
 246 1120 246 1120 320 1120 c 0,6,7
EndSplineSet
Validated: 1
EndChar

StartChar: cent
Encoding: 162 162 98
Width: 1070
GlyphClass: 2
Flags: W
HStem: 0 140<428.872 515 635 721.128> 960 140<428.872 515 635 721.128>
VStem: 120 300<145.105 954.895> 515 120<-69 0 140 960 1100 1169> 730 300<145.105 327 791 953.949>
CounterMasks: 1 38
LayerCount: 2
Fore
SplineSet
690 0 m 2,0,-1
 635 0 l 1,1,-1
 635 -69 l 1,2,-1
 525 -120 l 1,3,-1
 515 -120 l 1,4,-1
 515 0 l 1,5,-1
 460 0 l 2,6,7
 120 0 120 0 120 307 c 2,8,-1
 120 793 l 2,9,10
 120 1100 120 1100 460 1100 c 2,11,-1
 515 1100 l 1,12,-1
 515 1169 l 1,13,-1
 625 1220 l 1,14,-1
 635 1220 l 1,15,-1
 635 1100 l 1,16,-1
 690 1100 l 2,17,18
 1030 1100 1030 1100 1030 791 c 1,19,-1
 740 653 l 1,20,-1
 730 653 l 1,21,-1
 730 925 l 2,22,23
 730 960 730 960 690 960 c 2,24,-1
 635 960 l 1,25,-1
 635 140 l 1,26,-1
 690 140 l 2,27,28
 730 140 730 140 730 175 c 2,29,-1
 730 327 l 1,30,-1
 1020 465 l 1,31,-1
 1030 465 l 1,32,-1
 1030 307 l 2,33,34
 1030 0 1030 0 690 0 c 2,0,-1
515 140 m 1,35,-1
 515 960 l 1,36,-1
 460 960 l 2,37,38
 420 960 420 960 420 925 c 2,39,-1
 420 175 l 2,40,41
 420 140 420 140 460 140 c 2,42,-1
 515 140 l 1,35,-1
EndSplineSet
Validated: 1
EndChar

StartChar: sterling
Encoding: 163 163 99
Width: 1375
GlyphClass: 2
Flags: W
HStem: 0 150<177 260 580 1198> 625 150<178 260 580 927> 1360 150<585.217 854.56>
VStem: 260 320<150 625 775 1338.46>
LayerCount: 2
Fore
SplineSet
110 0 m 1,0,-1
 110 10 l 1,1,-1
 177 150 l 1,2,-1
 260 150 l 1,3,-1
 260 625 l 1,4,-1
 111 625 l 1,5,-1
 111 635 l 1,6,-1
 178 775 l 1,7,-1
 260 775 l 1,8,-1
 260 1130 l 2,9,10
 260 1510 260 1510 670 1510 c 2,11,-1
 793 1510 l 2,12,13
 1203 1510 1203 1510 1203 1200 c 1,14,-1
 878 1045 l 1,15,-1
 868 1045 l 1,16,-1
 868 1289 l 2,17,18
 868 1360 868 1360 788 1360 c 2,19,-1
 660 1360 l 2,20,21
 580 1360 580 1360 580 1289 c 2,22,-1
 580 775 l 1,23,-1
 995 775 l 1,24,-1
 995 765 l 1,25,-1
 927 625 l 1,26,-1
 580 625 l 1,27,-1
 580 150 l 1,28,-1
 1265 150 l 1,29,-1
 1265 140 l 1,30,-1
 1198 0 l 1,31,-1
 110 0 l 1,0,-1
EndSplineSet
Validated: 1
EndChar

StartChar: currency
Encoding: 164 164 100
Width: 1535
GlyphClass: 2
Flags: W
HStem: 180 150<528.535 1008.7> 1179 150<527.508 1007.79>
VStem: 203 320<418.973 1093.96> 1013 320<418.004 1094.96>
LayerCount: 2
Fore
SplineSet
603 330 m 2,0,-1
 933 330 l 2,1,2
 1013 330 1013 330 1013 401 c 2,3,-1
 1013 1108 l 2,4,5
 1013 1179 1013 1179 933 1179 c 2,6,-1
 603 1179 l 2,7,8
 523 1179 523 1179 523 1108 c 2,9,-1
 523 401 l 2,10,11
 523 330 523 330 603 330 c 2,0,-1
613 1329 m 2,12,-1
 923 1329 l 2,13,14
 1022 1329 1022 1329 1097 1307 c 1,15,-1
 1113 1323 l 1,16,-1
 1418 1215 l 1,17,-1
 1425 1208 l 1,18,-1
 1314 1097 l 1,19,20
 1333 1032 1333 1032 1333 949 c 2,21,-1
 1333 560 l 2,22,23
 1333 480 1333 480 1314 416 c 1,24,-1
 1425 305 l 1,25,-1
 1418 298 l 1,26,-1
 1112 190 l 1,27,-1
 1099 203 l 1,28,29
 1023 180 1023 180 923 180 c 2,30,-1
 613 180 l 2,31,32
 511 180 511 180 434 204 c 1,33,-1
 423 192 l 1,34,-1
 117 300 l 1,35,-1
 110 307 l 1,36,-1
 221 417 l 1,37,38
 203 480 203 480 203 560 c 2,39,-1
 203 949 l 2,40,41
 203 1031 203 1031 222 1096 c 1,42,-1
 110 1209 l 1,43,-1
 117 1216 l 1,44,-1
 421 1323 l 1,45,-1
 438 1307 l 1,46,47
 513 1329 513 1329 613 1329 c 2,12,-1
EndSplineSet
Validated: 1
EndChar

StartChar: yen
Encoding: 165 165 101
Width: 1250
GlyphClass: 2
Flags: W
HStem: -20 21G<465 517.105> 94 140<261 465 785 989> 294 273<403.828 465 785 846.172> 294 140<261 333 917 989> 1510 20G<347.823 400 1117.82 1170>
VStem: 80 320<587.038 1383> 850 320<587.038 1383>
LayerCount: 2
Fore
SplineSet
475 -20 m 1,0,-1
 465 -20 l 1,1,-1
 465 94 l 1,2,-1
 200 94 l 1,3,-1
 200 104 l 1,4,-1
 261 234 l 1,5,-1
 465 234 l 1,6,-1
 465 294 l 1,7,-1
 200 294 l 1,8,-1
 200 304 l 1,9,-1
 261 434 l 1,10,-1
 333 434 l 1,11,12
 80 498 80 498 80 797 c 2,13,-1
 80 1383 l 1,14,-1
 390 1530 l 1,15,-1
 400 1530 l 1,16,-1
 400 638 l 2,17,18
 400 567 400 567 480 567 c 2,19,-1
 770 567 l 2,20,21
 850 567 850 567 850 638 c 2,22,-1
 850 1383 l 1,23,-1
 1160 1530 l 1,24,-1
 1170 1530 l 1,25,-1
 1170 797 l 2,26,27
 1170 498 1170 498 917 434 c 1,28,-1
 1050 434 l 1,29,-1
 1050 424 l 1,30,-1
 989 294 l 1,31,-1
 785 294 l 1,32,-1
 785 234 l 1,33,-1
 1050 234 l 1,34,-1
 1050 224 l 1,35,-1
 989 94 l 1,36,-1
 715 94 l 1,37,-1
 475 -20 l 1,0,-1
EndSplineSet
Validated: 1
EndChar

StartChar: brokenbar
Encoding: 166 166 102
Width: 690
GlyphClass: 2
Flags: W
VStem: 210 270<-76 589 913 1586>
LayerCount: 2
Fore
SplineSet
210 -200 m 1,0,-1
 210 589 l 1,1,-1
 470 713 l 1,2,-1
 480 713 l 1,3,-1
 480 -76 l 1,4,-1
 220 -200 l 1,5,-1
 210 -200 l 1,0,-1
470 1710 m 1,6,-1
 480 1710 l 1,7,-1
 480 913 l 1,8,-1
 220 789 l 1,9,-1
 210 789 l 1,10,-1
 210 1586 l 1,11,-1
 470 1710 l 1,6,-1
EndSplineSet
Validated: 1
EndChar

StartChar: section
Encoding: 167 167 103
Width: 1089
GlyphClass: 2
Flags: W
HStem: 0 140<455.561 650.457> 461 140<412.344 650.457> 909 140<438.543 676.656> 1370 140<438.543 633.439>
VStem: 110 300<601.516 775> 157 280<166 243.562 1051.38 1366.38> 652 280<143.615 458.617 1266.44 1365.35> 679 300<735 908.484>
LayerCount: 2
Fore
SplineSet
464 0 m 2,0,1
 192 0 192 0 168 237 c 1,2,-1
 441 367 l 1,3,-1
 451 367 l 1,4,-1
 451 166 l 2,5,6
 451 140 451 140 491 140 c 2,7,-1
 612 140 l 2,8,9
 652 140 652 140 652 169 c 2,10,-1
 652 431 l 2,11,12
 652 461 652 461 612 461 c 2,13,-1
 454 461 l 2,14,15
 110 461 110 461 110 733 c 2,16,-1
 110 789 l 2,17,18
 110 845 110 845 120 887 c 1,19,-1
 410 775 l 1,20,-1
 410 633 l 2,21,22
 410 601 410 601 450 601 c 2,23,-1
 632 601 l 2,24,25
 932 601 932 601 932 313 c 2,26,-1
 932 278 l 2,27,28
 932 0 932 0 632 0 c 2,29,-1
 464 0 l 2,0,1
625 1510 m 2,30,31
 897 1510 897 1510 921 1273 c 1,32,-1
 648 1143 l 1,33,-1
 638 1143 l 1,34,-1
 638 1344 l 2,35,36
 638 1370 638 1370 598 1370 c 2,37,-1
 477 1370 l 2,38,39
 437 1370 437 1370 437 1341 c 2,40,-1
 437 1079 l 2,41,42
 437 1049 437 1049 477 1049 c 2,43,-1
 635 1049 l 2,44,45
 979 1049 979 1049 979 777 c 2,46,-1
 979 721 l 2,47,48
 979 665 979 665 969 623 c 1,49,-1
 679 735 l 1,50,-1
 679 877 l 2,51,52
 679 909 679 909 639 909 c 2,53,-1
 457 909 l 2,54,55
 157 909 157 909 157 1197 c 2,56,-1
 157 1232 l 2,57,58
 157 1510 157 1510 457 1510 c 2,59,-1
 625 1510 l 2,30,31
EndSplineSet
Validated: 1
EndChar

StartChar: dieresis
Encoding: 168 168 104
Width: 690
GlyphClass: 2
Flags: W
HStem: 1210 297<73.8326 277.652 411.833 616.167>
VStem: 30 292<1255.38 1461.62> 368 292<1255.38 1461.62>
LayerCount: 2
Fore
SplineSet
514.5 1507 m 128,-1,1
 575 1507 575 1507 617.5 1463 c 128,-1,2
 660 1419 660 1419 660 1358.5 c 128,-1,3
 660 1298 660 1298 617.5 1254 c 128,-1,4
 575 1210 575 1210 514 1210 c 128,-1,5
 453 1210 453 1210 410.5 1254 c 128,-1,6
 368 1298 368 1298 368 1358 c 0,7,8
 368 1419 368 1419 411 1462 c 0,9,0
 454 1507 454 1507 514.5 1507 c 128,-1,1
175.5 1507 m 128,-1,11
 236 1507 236 1507 279 1463 c 128,-1,12
 322 1419 322 1419 322 1358.5 c 128,-1,13
 322 1298 322 1298 279 1254 c 128,-1,14
 236 1210 236 1210 176 1210 c 0,15,16
 115 1210 115 1210 72.5 1254 c 128,-1,17
 30 1298 30 1298 30 1358 c 0,18,19
 30 1419 30 1419 72 1462 c 0,20,10
 115 1507 115 1507 175.5 1507 c 128,-1,11
EndSplineSet
Validated: 1
EndChar

StartChar: copyright
Encoding: 169 169 105
Width: 1321
GlyphClass: 2
Flags: W
HStem: 386 48<505.181 810.676> 553 96<577.309 745.904> 1252 96<577.309 745.181> 1478 52<504.168 816.773>
VStem: 110 50<794.694 1125.05> 372 205<652.258 1248.74> 751 207<652.258 785 1110.45 1247.66> 1160 51<785.868 1126.58>
LayerCount: 2
Fore
SplineSet
598 1348 m 2,0,-1
 732 1348 l 2,1,2
 946 1348 946 1348 961 1115 c 1,3,-1
 761 1036 l 1,4,-1
 751 1036 l 1,5,-1
 751 1237 l 2,6,7
 751 1252 751 1252 731 1252 c 2,8,-1
 597 1252 l 2,9,10
 577 1252 577 1252 577 1237 c 2,11,-1
 577 664 l 2,12,13
 577 649 577 649 597 649 c 2,14,-1
 731 649 l 2,15,16
 751 649 751 649 751 664 c 2,17,-1
 751 785 l 1,18,-1
 948 872 l 1,19,-1
 958 872 l 1,20,-1
 958 763 l 2,21,22
 958 553 958 553 732 553 c 2,23,-1
 598 553 l 2,24,25
 372 553 372 553 372 763 c 2,26,-1
 372 1138 l 2,27,28
 372 1348 372 1348 598 1348 c 2,0,-1
661 1530 m 0,29,30
 903 1530 903 1530 1059 1357 c 0,31,32
 1211 1188 1211 1188 1211 953 c 0,33,34
 1211 701 1211 701 1050 549 c 0,35,36
 879 386 879 386 659 386 c 0,37,38
 436 386 436 386 271 549 c 0,39,40
 110 708 110 708 110 953 c 0,41,42
 110 1197 110 1197 268 1362 c 0,43,44
 429 1530 429 1530 661 1530 c 0,29,30
659 1478 m 0,45,46
 459 1478 459 1478 310 1330 c 0,47,48
 160 1181 160 1181 160 953 c 0,49,50
 160 750 160 750 307 587 c 0,51,52
 445 434 445 434 661 434 c 0,53,54
 862 434 862 434 1014 587 c 0,55,56
 1160 734 1160 734 1160 953 c 0,57,58
 1160 1185 1160 1185 1016 1327 c 0,59,60
 863 1478 863 1478 659 1478 c 0,45,46
EndSplineSet
Validated: 1
EndChar

StartChar: ordfeminine
Encoding: 170 170 106
Width: 581
GlyphClass: 2
Flags: W
HStem: 733 180<101 470> 979 90<220.472 363> 1245 90<221.322 362> 1480 90<170 362>
VStem: 59 161<1072.84 1241.8> 363 188<1069 1245 1335 1477.24>
LayerCount: 2
Fore
SplineSet
361 1570 m 2,0,1
 551 1570 551 1570 551 1398 c 2,2,-1
 551 1040 l 1,3,-1
 371 969 l 1,4,-1
 361 969 l 1,5,-1
 361 979 l 1,6,-1
 249 979 l 2,7,8
 59 979 59 979 59 1153 c 2,9,-1
 59 1176 l 2,10,11
 59 1335 59 1335 250 1335 c 2,12,-1
 362 1335 l 1,13,-1
 362 1480 l 1,14,-1
 132 1480 l 1,15,-1
 132 1490 l 1,16,-1
 170 1570 l 1,17,-1
 361 1570 l 2,0,1
220 1069 m 1,18,-1
 363 1069 l 1,19,-1
 363 1245 l 1,20,-1
 220 1245 l 1,21,-1
 220 1069 l 1,18,-1
101 913 m 1,22,-1
 551 913 l 1,23,-1
 551 903 l 1,24,-1
 470 733 l 1,25,-1
 20 733 l 1,26,-1
 20 743 l 1,27,-1
 101 913 l 1,22,-1
EndSplineSet
Validated: 1
EndChar

StartChar: guillemotleft
Encoding: 171 171 107
Width: 1292
GlyphClass: 2
Flags: W
DStem2: 348 881 110 755 0.506363 -0.862321<0 570.906> 110 755 348 881 0.507932 0.861397<229.424 718.6> 829 881 591 755 0.506363 -0.862321<0 570.906> 591 755 829 881 0.507932 0.861397<229.424 718.6>
LayerCount: 2
Fore
SplineSet
591 755 m 1,0,-1
 956 1374 l 1,1,-1
 966 1374 l 1,2,-1
 1085 1317 l 1,3,-1
 829 881 l 1,4,-1
 1132 365 l 1,5,-1
 897 253 l 1,6,-1
 887 253 l 1,7,-1
 591 755 l 1,0,-1
110 755 m 1,8,-1
 475 1374 l 1,9,-1
 485 1374 l 1,10,-1
 604 1317 l 1,11,-1
 348 881 l 1,12,-1
 651 365 l 1,13,-1
 416 253 l 1,14,-1
 406 253 l 1,15,-1
 110 755 l 1,8,-1
EndSplineSet
Validated: 1
EndChar

StartChar: logicalnot
Encoding: 172 172 108
Width: 1240
GlyphClass: 2
Flags: W
HStem: 620 270<235 759>
LayerCount: 2
Fore
SplineSet
235 890 m 1,0,-1
 1130 890 l 1,1,-1
 1130 880 l 1,2,-1
 879 358 l 1,3,-1
 633 358 l 1,4,-1
 759 620 l 1,5,-1
 110 620 l 1,6,-1
 110 630 l 1,7,-1
 235 890 l 1,0,-1
EndSplineSet
Validated: 1
EndChar

StartChar: uni00AD
Encoding: 173 173 109
Width: 1240
GlyphClass: 2
Flags: W
HStem: 620 270<235 1005>
LayerCount: 2
Fore
SplineSet
235 890 m 1,0,-1
 1130 890 l 1,1,-1
 1130 880 l 1,2,-1
 1005 620 l 1,3,-1
 110 620 l 1,4,-1
 110 630 l 1,5,-1
 235 890 l 1,0,-1
EndSplineSet
Validated: 1
EndChar

StartChar: registered
Encoding: 174 174 110
Width: 1321
GlyphClass: 2
Flags: W
HStem: 386 48<505.181 810.676> 778 96<588 662> 1259 96<588 741.843> 1478 52<504.168 816.773>
VStem: 110 50<794.694 1125.05> 388 200<623 778 874 1259> 748 205<875.143 1258.4> 1160 51<785.868 1126.58>
LayerCount: 2
Fore
SplineSet
748 1243 m 2,0,1
 748 1259 748 1259 728 1259 c 2,2,-1
 588 1259 l 1,3,-1
 588 874 l 1,4,-1
 728 874 l 2,5,6
 748 874 748 874 748 890 c 2,7,-1
 748 1243 l 2,0,1
562 1355 m 1,8,-1
 728 1355 l 2,9,10
 953 1355 953 1355 953 1141 c 2,11,-1
 953 992 l 2,12,13
 953 874 953 874 883 822 c 1,14,-1
 1027 624 l 1,15,-1
 835 548 l 1,16,-1
 825 548 l 1,17,-1
 662 778 l 1,18,-1
 588 778 l 1,19,-1
 588 623 l 1,20,-1
 398 548 l 1,21,-1
 388 548 l 1,22,-1
 388 1278 l 1,23,-1
 562 1355 l 1,8,-1
661 1530 m 0,24,25
 903 1530 903 1530 1059 1357 c 0,26,27
 1211 1188 1211 1188 1211 953 c 0,28,29
 1211 701 1211 701 1050 549 c 0,30,31
 879 386 879 386 659 386 c 0,32,33
 436 386 436 386 271 549 c 0,34,35
 110 708 110 708 110 953 c 0,36,37
 110 1197 110 1197 268 1362 c 0,38,39
 429 1530 429 1530 661 1530 c 0,24,25
659 1478 m 0,40,41
 459 1478 459 1478 310 1330 c 0,42,43
 160 1181 160 1181 160 953 c 0,44,45
 160 750 160 750 307 587 c 0,46,47
 445 434 445 434 661 434 c 0,48,49
 862 434 862 434 1014 587 c 0,50,51
 1160 734 1160 734 1160 953 c 0,52,53
 1160 1185 1160 1185 1016 1327 c 0,54,55
 863 1478 863 1478 659 1478 c 0,40,41
EndSplineSet
Validated: 1
EndChar

StartChar: macron
Encoding: 175 175 111
Width: 680
GlyphClass: 2
Flags: W
HStem: 1288 190<116 564>
VStem: 30 620
LayerCount: 2
Fore
SplineSet
116 1478 m 1,0,-1
 650 1478 l 1,1,-1
 650 1468 l 1,2,-1
 564 1288 l 1,3,-1
 30 1288 l 1,4,-1
 30 1298 l 1,5,-1
 116 1478 l 1,0,-1
EndSplineSet
Validated: 1
EndChar

StartChar: degree
Encoding: 176 176 112
Width: 730
GlyphClass: 2
Flags: W
HStem: 889 101<226 504> 1476 94<226 504>
VStem: 30 195<993.242 1475.68> 505 195<993.242 1475.68>
LayerCount: 2
Fore
SplineSet
277 1476 m 2,0,1
 225 1476 225 1476 225 1425 c 2,2,-1
 225 1041 l 2,3,4
 225 990 225 990 277 990 c 2,5,-1
 453 990 l 2,6,7
 505 990 505 990 505 1041 c 2,8,-1
 505 1425 l 2,9,10
 505 1476 505 1476 453 1476 c 2,11,-1
 277 1476 l 2,0,1
286 1570 m 2,12,-1
 444 1570 l 2,13,14
 700 1570 700 1570 700 1316 c 2,15,-1
 700 1143 l 2,16,17
 700 889 700 889 444 889 c 2,18,-1
 286 889 l 2,19,20
 30 889 30 889 30 1143 c 2,21,-1
 30 1316 l 2,22,23
 30 1570 30 1570 286 1570 c 2,12,-1
EndSplineSet
Validated: 1
EndChar

StartChar: plusminus
Encoding: 177 177 113
Width: 1240
GlyphClass: 2
Flags: W
HStem: 154 270<235 1005> 828 270<235 485 755 1005>
VStem: 485 270<578 828 1098 1348>
LayerCount: 2
Fore
SplineSet
235 424 m 1,0,-1
 1130 424 l 1,1,-1
 1130 414 l 1,2,-1
 1005 154 l 1,3,-1
 110 154 l 1,4,-1
 110 164 l 1,5,-1
 235 424 l 1,0,-1
745 1473 m 1,6,-1
 755 1473 l 1,7,-1
 755 1098 l 1,8,-1
 1130 1098 l 1,9,-1
 1130 1088 l 1,10,-1
 1005 828 l 1,11,-1
 755 828 l 1,12,-1
 755 578 l 1,13,-1
 495 453 l 1,14,-1
 485 453 l 1,15,-1
 485 828 l 1,16,-1
 110 828 l 1,17,-1
 110 838 l 1,18,-1
 235 1098 l 1,19,-1
 485 1098 l 1,20,-1
 485 1348 l 1,21,-1
 745 1473 l 1,6,-1
EndSplineSet
Validated: 1
EndChar

StartChar: uni00B2
Encoding: 178 178 114
Width: 671
GlyphClass: 2
Flags: W
HStem: 765 191<280 569> 1464 96<259.401 423.843>
VStem: 55 200<1316 1460.74> 430 205<1160.23 1460.74>
DStem2: 323 1094 280 956 0.853485 0.521118<-108.614 136.389>
LayerCount: 2
Fore
SplineSet
280 1560 m 2,0,-1
 410 1560 l 2,1,2
 635 1560 635 1560 635 1350 c 2,3,-1
 635 1294 l 2,4,5
 635 1150 635 1150 470 1060 c 2,6,-1
 280 956 l 1,7,-1
 641 956 l 1,8,-1
 641 946 l 1,9,-1
 569 765 l 1,10,-1
 30 765 l 1,11,-1
 30 775 l 1,12,-1
 115 967 l 1,13,-1
 323 1094 l 2,14,15
 430 1159 430 1159 430 1288 c 2,16,-1
 430 1449 l 2,17,18
 430 1464 430 1464 410 1464 c 2,19,-1
 275 1464 l 2,20,21
 255 1464 255 1464 255 1449 c 2,22,-1
 255 1316 l 1,23,-1
 65 1241 l 1,24,-1
 55 1241 l 1,25,-1
 55 1350 l 2,26,27
 55 1560 55 1560 280 1560 c 2,0,-1
EndSplineSet
Validated: 1
EndChar

StartChar: uni00B3
Encoding: 179 179 115
Width: 656
GlyphClass: 2
Flags: W
HStem: 765 96<242.096 410.691> 1464 96<128 355>
VStem: 30 207<862.054 990> 411 205<864.258 1209>
LayerCount: 2
Fore
SplineSet
128 1560 m 1,0,-1
 626 1560 l 1,1,-1
 466 1296 l 1,2,3
 616 1264 616 1264 616 1093 c 2,4,-1
 616 975 l 2,5,6
 616 765 616 765 390 765 c 2,7,-1
 256 765 l 2,8,9
 30 765 30 765 30 980 c 2,10,-1
 30 990 l 1,11,-1
 227 1077 l 1,12,-1
 237 1077 l 1,13,-1
 237 876 l 2,14,15
 237 861 237 861 257 861 c 2,16,-1
 391 861 l 2,17,18
 411 861 411 861 411 876 c 2,19,-1
 411 1194 l 2,20,21
 411 1209 411 1209 391 1209 c 2,22,-1
 289 1209 l 1,23,-1
 236 1268 l 1,24,-1
 355 1464 l 1,25,-1
 87 1464 l 1,26,-1
 87 1474 l 1,27,-1
 128 1560 l 1,0,-1
EndSplineSet
Validated: 1
EndChar

StartChar: acute
Encoding: 180 180 116
Width: 405
GlyphClass: 2
Flags: W
HStem: 1160 410
VStem: 30 345
DStem2: 30 1244 218 1160 0.429396 0.903116<4.86464 360.972>
LayerCount: 2
Fore
SplineSet
195 1570 m 1,0,-1
 375 1485 l 1,1,-1
 218 1160 l 1,2,-1
 208 1160 l 1,3,-1
 30 1244 l 1,4,-1
 185 1570 l 1,5,-1
 195 1570 l 1,0,-1
EndSplineSet
Validated: 1
EndChar

StartChar: uni00B5
Encoding: 181 181 117
Width: 1230
GlyphClass: 2
Flags: W
HStem: -430 21G<140 192.029> 0 140<440.594 781.128> 1100 20G<387.971 440 1037.97 1090>
VStem: 140 300<-292 6 140 982> 790 300<145.105 982>
LayerCount: 2
Fore
SplineSet
750 0 m 2,0,-1
 480 0 l 2,1,2
 459 0 459 0 440 6 c 1,3,-1
 440 -292 l 1,4,-1
 150 -430 l 1,5,-1
 140 -430 l 1,6,-1
 140 982 l 1,7,-1
 430 1120 l 1,8,-1
 440 1120 l 1,9,-1
 440 175 l 2,10,11
 440 140 440 140 480 140 c 2,12,-1
 750 140 l 2,13,14
 790 140 790 140 790 175 c 2,15,-1
 790 982 l 1,16,-1
 1080 1120 l 1,17,-1
 1090 1120 l 1,18,-1
 1090 307 l 2,19,20
 1090 0 1090 0 750 0 c 2,0,-1
EndSplineSet
Validated: 1
EndChar

StartChar: paragraph
Encoding: 182 182 118
Width: 1220
GlyphClass: 2
Flags: W
HStem: -20 21G<740 792.308> 1490 20G<280 890>
VStem: 740 120<32 513> 944 116<127 1144>
LayerCount: 2
Fore
SplineSet
750 -20 m 1,0,-1
 740 -20 l 1,1,-1
 740 513 l 1,2,3
 730 507 730 507 720 507 c 2,4,-1
 450 507 l 2,5,6
 110 507 110 507 110 822 c 2,7,-1
 110 1195 l 2,8,9
 110 1510 110 1510 450 1510 c 2,10,-1
 720 1510 l 2,11,12
 1060 1510 1060 1510 1060 1195 c 2,13,-1
 1060 127 l 1,14,-1
 944 72 l 1,15,-1
 944 1144 l 1,16,-1
 860 1106 l 1,17,-1
 860 32 l 1,18,-1
 750 -20 l 1,0,-1
EndSplineSet
Validated: 1
EndChar

StartChar: periodcentered
Encoding: 183 183 119
Width: 420
GlyphClass: 2
Flags: W
HStem: 573 365<92.1309 326.878>
VStem: 30 360<635.566 875.578>
LayerCount: 2
Fore
SplineSet
210 938 m 128,-1,1
 285 938 285 938 337.5 884.5 c 128,-1,2
 390 831 390 831 390 756 c 128,-1,3
 390 681 390 681 337 627 c 128,-1,4
 284 573 284 573 210 573 c 0,5,6
 134 573 134 573 82 627 c 128,-1,7
 30 681 30 681 30 755 c 0,8,9
 30 831 30 831 82 884 c 0,10,0
 135 938 135 938 210 938 c 128,-1,1
EndSplineSet
Validated: 1
EndChar

StartChar: cedilla
Encoding: 184 184 120
Width: 440
GlyphClass: 2
Flags: W
HStem: -410 410 -20 20G<136 299>
VStem: 136 163<-61.7314 0> 202 208<-207.507 -85.3716>
LayerCount: 2
Fore
SplineSet
30 -410 m 1,0,-1
 30 -400 l 1,1,-1
 116 -220 l 1,2,3
 202 -204 202 -204 202 -145 c 0,4,5
 202 -100 202 -100 136 -76 c 1,6,-1
 136 0 l 1,7,-1
 299 0 l 1,8,-1
 299 -40 l 1,9,10
 410 -83 410 -83 410 -187 c 0,11,12
 410 -410 410 -410 30 -410 c 1,0,-1
EndSplineSet
Validated: 1
EndChar

StartChar: uni00B9
Encoding: 185 185 121
Width: 412
GlyphClass: 2
Flags: W
VStem: 152 200<831 1389>
LayerCount: 2
Fore
SplineSet
342 1570 m 1,0,-1
 352 1570 l 1,1,-1
 352 831 l 1,2,-1
 162 756 l 1,3,-1
 152 756 l 1,4,-1
 152 1389 l 1,5,-1
 30 1337 l 1,6,-1
 30 1432 l 1,7,-1
 342 1570 l 1,0,-1
EndSplineSet
Validated: 1
EndChar

StartChar: ordmasculine
Encoding: 186 186 122
Width: 594
GlyphClass: 2
Flags: W
HStem: 733 180<101 483> 969 91<240 374> 1469 91<240 374>
VStem: 50 190<1062.3 1466.7> 374 190<1062.3 1466.7>
LayerCount: 2
Fore
SplineSet
374 1060 m 1,0,-1
 374 1469 l 1,1,-1
 240 1469 l 1,2,-1
 240 1060 l 1,3,-1
 374 1060 l 1,0,-1
240 1560 m 2,4,-1
 374 1560 l 2,5,6
 564 1560 564 1560 564 1387 c 2,7,-1
 564 1142 l 2,8,9
 564 969 564 969 374 969 c 2,10,-1
 240 969 l 2,11,12
 50 969 50 969 50 1142 c 2,13,-1
 50 1387 l 2,14,15
 50 1560 50 1560 240 1560 c 2,4,-1
101 913 m 1,16,-1
 564 913 l 1,17,-1
 564 903 l 1,18,-1
 483 733 l 1,19,-1
 20 733 l 1,20,-1
 20 743 l 1,21,-1
 101 913 l 1,16,-1
EndSplineSet
Validated: 1
EndChar

StartChar: guillemotright
Encoding: 187 187 123
Width: 1292
GlyphClass: 2
Flags: W
DStem2: 405 1257 160 1145 0.506363 -0.862321<0 570.906> 207 193 336 136 0.507932 0.861397<16.4236 505.6> 886 1257 641 1145 0.506363 -0.862321<0 570.906> 688 193 817 136 0.507932 0.861397<16.4236 505.6>
LayerCount: 2
Fore
SplineSet
701 755 m 1,0,-1
 336 136 l 1,1,-1
 326 136 l 1,2,-1
 207 193 l 1,3,-1
 463 629 l 1,4,-1
 160 1145 l 1,5,-1
 395 1257 l 1,6,-1
 405 1257 l 1,7,-1
 701 755 l 1,0,-1
1182 755 m 1,8,-1
 817 136 l 1,9,-1
 807 136 l 1,10,-1
 688 193 l 1,11,-1
 944 629 l 1,12,-1
 641 1145 l 1,13,-1
 876 1257 l 1,14,-1
 886 1257 l 1,15,-1
 1182 755 l 1,8,-1
EndSplineSet
Validated: 1
EndChar

StartChar: onequarter
Encoding: 188 188 124
Width: 1543
GlyphClass: 2
Flags: W
HStem: -20 21G<450.053 511.325 1158 1218.67> 142 96<947 1158 1358 1388> 1510 20G<376.783 432 916.661 977.77>
VStem: 232 200<791 1349> 1158 200<55 133 238 544>
DStem2: 255 93 502 -20 0.423093 0.906086<2.11609 1585.94> 770 152 947 238 0.567283 0.823523<171.232 542.927>
LayerCount: 2
Fore
SplineSet
422 1530 m 1,0,-1
 432 1530 l 1,1,-1
 432 791 l 1,2,-1
 242 716 l 1,3,-1
 232 716 l 1,4,-1
 232 1349 l 1,5,-1
 110 1297 l 1,6,-1
 110 1392 l 1,7,-1
 422 1530 l 1,0,-1
492 -20 m 1,8,-1
 255 93 l 1,9,-1
 926 1530 l 1,10,-1
 936 1530 l 1,11,-1
 1172 1417 l 1,12,-1
 502 -20 l 1,13,-1
 492 -20 l 1,8,-1
947 238 m 1,14,-1
 1158 238 l 1,15,-1
 1158 544 l 1,16,-1
 947 238 l 1,14,-1
1168 -20 m 1,17,-1
 1158 -20 l 1,18,-1
 1158 142 l 1,19,-1
 770 142 l 1,20,-1
 770 152 l 1,21,-1
 1153 708 l 1,22,-1
 1348 794 l 1,23,-1
 1358 794 l 1,24,-1
 1358 238 l 1,25,-1
 1433 238 l 1,26,-1
 1433 228 l 1,27,-1
 1388 133 l 1,28,-1
 1358 133 l 1,29,-1
 1358 55 l 1,30,-1
 1168 -20 l 1,17,-1
EndSplineSet
Validated: 1
EndChar

StartChar: onehalf
Encoding: 189 189 125
Width: 1677
GlyphClass: 2
Flags: W
HStem: -20 21G<450.053 511.325> 0 191<1206 1495> 699 96<1185.4 1349.84> 1510 20G<376.783 432 916.661 977.77>
VStem: 232 200<791 1349> 981 200<551 695.742> 1356 205<395.234 695.742>
DStem2: 255 93 502 -20 0.423093 0.906086<2.11609 1585.94> 1249 329 1206 191 0.853485 0.521118<-108.614 136.389>
LayerCount: 2
Fore
SplineSet
1206 795 m 2,0,-1
 1336 795 l 2,1,2
 1561 795 1561 795 1561 585 c 2,3,-1
 1561 529 l 2,4,5
 1561 385 1561 385 1396 295 c 2,6,-1
 1206 191 l 1,7,-1
 1567 191 l 1,8,-1
 1567 181 l 1,9,-1
 1495 0 l 1,10,-1
 956 0 l 1,11,-1
 956 10 l 1,12,-1
 1041 202 l 1,13,-1
 1249 329 l 2,14,15
 1356 394 1356 394 1356 523 c 2,16,-1
 1356 684 l 2,17,18
 1356 699 1356 699 1336 699 c 2,19,-1
 1201 699 l 2,20,21
 1181 699 1181 699 1181 684 c 2,22,-1
 1181 551 l 1,23,-1
 991 476 l 1,24,-1
 981 476 l 1,25,-1
 981 585 l 2,26,27
 981 795 981 795 1206 795 c 2,0,-1
422 1530 m 1,28,-1
 432 1530 l 1,29,-1
 432 791 l 1,30,-1
 242 716 l 1,31,-1
 232 716 l 1,32,-1
 232 1349 l 1,33,-1
 110 1297 l 1,34,-1
 110 1392 l 1,35,-1
 422 1530 l 1,28,-1
492 -20 m 1,36,-1
 255 93 l 1,37,-1
 926 1530 l 1,38,-1
 936 1530 l 1,39,-1
 1172 1417 l 1,40,-1
 502 -20 l 1,41,-1
 492 -20 l 1,36,-1
EndSplineSet
Validated: 1
EndChar

StartChar: threequarters
Encoding: 190 190 126
Width: 1780
GlyphClass: 2
Flags: W
HStem: -20 21G<687.053 748.325 1395 1455.67> 142 96<1184 1395 1595 1625> 735 96<322.096 490.691> 1434 96<208 435>
VStem: 110 207<832.054 960> 491 205<834.258 1179> 1395 200<55 133 238 544>
DStem2: 492 93 739 -20 0.423093 0.906086<2.11609 1585.94> 1007 152 1184 238 0.567283 0.823523<171.232 542.927>
LayerCount: 2
Fore
SplineSet
208 1530 m 1,0,-1
 706 1530 l 1,1,-1
 546 1266 l 1,2,3
 696 1234 696 1234 696 1063 c 2,4,-1
 696 945 l 2,5,6
 696 735 696 735 470 735 c 2,7,-1
 336 735 l 2,8,9
 110 735 110 735 110 950 c 2,10,-1
 110 960 l 1,11,-1
 307 1047 l 1,12,-1
 317 1047 l 1,13,-1
 317 846 l 2,14,15
 317 831 317 831 337 831 c 2,16,-1
 471 831 l 2,17,18
 491 831 491 831 491 846 c 2,19,-1
 491 1164 l 2,20,21
 491 1179 491 1179 471 1179 c 2,22,-1
 369 1179 l 1,23,-1
 316 1238 l 1,24,-1
 435 1434 l 1,25,-1
 167 1434 l 1,26,-1
 167 1444 l 1,27,-1
 208 1530 l 1,0,-1
1184 238 m 1,28,-1
 1395 238 l 1,29,-1
 1395 544 l 1,30,-1
 1184 238 l 1,28,-1
1405 -20 m 1,31,-1
 1395 -20 l 1,32,-1
 1395 142 l 1,33,-1
 1007 142 l 1,34,-1
 1007 152 l 1,35,-1
 1390 708 l 1,36,-1
 1585 794 l 1,37,-1
 1595 794 l 1,38,-1
 1595 238 l 1,39,-1
 1670 238 l 1,40,-1
 1670 228 l 1,41,-1
 1625 133 l 1,42,-1
 1595 133 l 1,43,-1
 1595 55 l 1,44,-1
 1405 -20 l 1,31,-1
729 -20 m 1,45,-1
 492 93 l 1,46,-1
 1163 1530 l 1,47,-1
 1173 1530 l 1,48,-1
 1409 1417 l 1,49,-1
 739 -20 l 1,50,-1
 729 -20 l 1,45,-1
EndSplineSet
Validated: 1
EndChar

StartChar: questiondown
Encoding: 191 191 127
Width: 1300
GlyphClass: 2
Flags: W
HStem: -410 150<446.729 864.783> 755 365<578.122 812.869>
VStem: 110 330<-238.462 216.601> 515 360<817.422 1057.43> 870 320<-238.462 0>
LayerCount: 2
Fore
SplineSet
780 -410 m 2,0,-1
 520 -410 l 2,1,2
 110 -410 110 -410 110 -30 c 2,3,-1
 110 44 l 2,4,5
 110 287 110 287 396 417 c 0,6,7
 529 478 529 478 529 594 c 1,8,-1
 842 741 l 1,9,-1
 852 741 l 1,10,11
 852 488 852 488 609 379 c 0,12,13
 440 303 440 303 440 137 c 2,14,-1
 440 -189 l 2,15,16
 440 -260 440 -260 520 -260 c 2,17,-1
 790 -260 l 2,18,19
 870 -260 870 -260 870 -189 c 2,20,-1
 870 0 l 1,21,-1
 1180 148 l 1,22,-1
 1190 148 l 1,23,-1
 1190 -30 l 2,24,25
 1190 -410 1190 -410 780 -410 c 2,0,-1
695 1120 m 0,26,27
 771 1120 771 1120 823 1066 c 128,-1,28
 875 1012 875 1012 875 938 c 0,29,30
 875 862 875 862 823 809 c 0,31,32
 770 755 770 755 695 755 c 128,-1,33
 620 755 620 755 567.5 808.5 c 128,-1,34
 515 862 515 862 515 937 c 128,-1,35
 515 1012 515 1012 568 1066 c 128,-1,36
 621 1120 621 1120 695 1120 c 0,26,27
EndSplineSet
Validated: 1
EndChar

StartChar: endash
Encoding: 8211 8211 128
Width: 1240
GlyphClass: 2
Flags: W
HStem: 620 270<235 1005>
LayerCount: 2
Fore
SplineSet
235 890 m 1,0,-1
 1130 890 l 1,1,-1
 1130 880 l 1,2,-1
 1005 620 l 1,3,-1
 110 620 l 1,4,-1
 110 630 l 1,5,-1
 235 890 l 1,0,-1
EndSplineSet
Validated: 1
EndChar

StartChar: emdash
Encoding: 8212 8212 129
Width: 1570
GlyphClass: 2
Flags: W
HStem: 620 270<235 1335>
LayerCount: 2
Fore
SplineSet
235 890 m 1,0,-1
 1460 890 l 1,1,-1
 1460 880 l 1,2,-1
 1335 620 l 1,3,-1
 110 620 l 1,4,-1
 110 630 l 1,5,-1
 235 890 l 1,0,-1
EndSplineSet
Validated: 1
EndChar

StartChar: afii00208
Encoding: 8213 8213 130
Width: 1570
GlyphClass: 2
Flags: W
HStem: 620 270<235 1335>
LayerCount: 2
Fore
SplineSet
235 890 m 1,0,-1
 1460 890 l 1,1,-1
 1460 880 l 1,2,-1
 1335 620 l 1,3,-1
 110 620 l 1,4,-1
 110 630 l 1,5,-1
 235 890 l 1,0,-1
EndSplineSet
Validated: 1
EndChar

StartChar: quoteleft
Encoding: 8216 8216 131
Width: 496
GlyphClass: 2
Flags: W
HStem: 934 666
VStem: 30 264<1158.4 1384.82>
LayerCount: 2
Fore
SplineSet
366 1600 m 1,0,-1
 373 1593 l 1,1,2
 294 1444 294 1444 294 1296 c 0,3,4
 294 1140 294 1140 466 1060 c 1,5,-1
 197 934 l 1,6,-1
 187 934 l 1,7,8
 30 1036 30 1036 30 1218 c 0,9,10
 30 1475 30 1475 366 1600 c 1,0,-1
EndSplineSet
Validated: 1
EndChar

StartChar: quoteright
Encoding: 8217 8217 132
Width: 496
GlyphClass: 2
Flags: W
HStem: 934 666
VStem: 202 264<1149.18 1375.6>
LayerCount: 2
Fore
SplineSet
30 1474 m 1,0,-1
 299 1600 l 1,1,-1
 309 1600 l 1,2,3
 466 1498 466 1498 466 1316 c 0,4,5
 466 1059 466 1059 130 934 c 1,6,-1
 123 941 l 1,7,8
 202 1090 202 1090 202 1238 c 0,9,10
 202 1394 202 1394 30 1474 c 1,0,-1
EndSplineSet
Validated: 1
EndChar

StartChar: quotesinglbase
Encoding: 8218 8218 133
Width: 496
GlyphClass: 2
Flags: W
HStem: -328 666
VStem: 202 264<-112.817 113.6>
LayerCount: 2
Fore
SplineSet
30 212 m 1,0,-1
 299 338 l 1,1,-1
 309 338 l 1,2,3
 466 236 466 236 466 54 c 0,4,5
 466 -203 466 -203 130 -328 c 1,6,-1
 123 -321 l 1,7,8
 202 -172 202 -172 202 -24 c 0,9,10
 202 132 202 132 30 212 c 1,0,-1
EndSplineSet
Validated: 1
EndChar

StartChar: quotereversed
Encoding: 8219 8219 134
Width: 496
GlyphClass: 2
Flags: W
HStem: 934 666
VStem: 30 264<1149.18 1375.6>
LayerCount: 2
Fore
SplineSet
466 1474 m 1,0,1
 294 1394 294 1394 294 1238 c 0,2,3
 294 1090 294 1090 373 941 c 1,4,-1
 366 934 l 1,5,6
 30 1059 30 1059 30 1316 c 0,7,8
 30 1498 30 1498 187 1600 c 1,9,-1
 197 1600 l 1,10,-1
 466 1474 l 1,0,1
EndSplineSet
Validated: 1
EndChar

StartChar: quotedblleft
Encoding: 8220 8220 135
Width: 914
GlyphClass: 2
Flags: W
HStem: 934 666
VStem: 30 264<1158.4 1384.82> 448 264<1158.4 1384.82>
LayerCount: 2
Fore
SplineSet
366 1600 m 1,0,-1
 373 1593 l 1,1,2
 294 1444 294 1444 294 1296 c 0,3,4
 294 1140 294 1140 466 1060 c 1,5,-1
 197 934 l 1,6,-1
 187 934 l 1,7,8
 30 1036 30 1036 30 1218 c 0,9,10
 30 1475 30 1475 366 1600 c 1,0,-1
784 1600 m 1,11,-1
 791 1593 l 1,12,13
 712 1444 712 1444 712 1296 c 0,14,15
 712 1140 712 1140 884 1060 c 1,16,-1
 615 934 l 1,17,-1
 605 934 l 1,18,19
 448 1036 448 1036 448 1218 c 0,20,21
 448 1475 448 1475 784 1600 c 1,11,-1
EndSplineSet
Validated: 1
EndChar

StartChar: quotedblright
Encoding: 8221 8221 136
Width: 914
GlyphClass: 2
Flags: W
HStem: 934 666
VStem: 202 264<1149.18 1375.6> 620 264<1149.18 1375.6>
LayerCount: 2
Fore
SplineSet
448 1474 m 1,0,-1
 717 1600 l 1,1,-1
 727 1600 l 1,2,3
 884 1498 884 1498 884 1316 c 0,4,5
 884 1059 884 1059 548 934 c 1,6,-1
 541 941 l 1,7,8
 620 1090 620 1090 620 1238 c 0,9,10
 620 1394 620 1394 448 1474 c 1,0,-1
30 1474 m 1,11,-1
 299 1600 l 1,12,-1
 309 1600 l 1,13,14
 466 1498 466 1498 466 1316 c 0,15,16
 466 1059 466 1059 130 934 c 1,17,-1
 123 941 l 1,18,19
 202 1090 202 1090 202 1238 c 0,20,21
 202 1394 202 1394 30 1474 c 1,11,-1
EndSplineSet
Validated: 1
EndChar

StartChar: quotedblbase
Encoding: 8222 8222 137
Width: 914
GlyphClass: 2
Flags: W
HStem: -328 666
VStem: 202 264<-112.817 113.6> 620 264<-112.817 113.6>
LayerCount: 2
Fore
SplineSet
448 212 m 1,0,-1
 717 338 l 1,1,-1
 727 338 l 1,2,3
 884 236 884 236 884 54 c 0,4,5
 884 -203 884 -203 548 -328 c 1,6,-1
 541 -321 l 1,7,8
 620 -172 620 -172 620 -24 c 0,9,10
 620 132 620 132 448 212 c 1,0,-1
30 212 m 1,11,-1
 299 338 l 1,12,-1
 309 338 l 1,13,14
 466 236 466 236 466 54 c 0,15,16
 466 -203 466 -203 130 -328 c 1,17,-1
 123 -321 l 1,18,19
 202 -172 202 -172 202 -24 c 0,20,21
 202 132 202 132 30 212 c 1,11,-1
EndSplineSet
Validated: 1
EndChar

StartChar: dagger
Encoding: 8224 8224 138
Width: 1254
GlyphClass: 2
Flags: W
HStem: -20 21G<467 519.177> 964 150<177 467 787 1077> 1510 20G<735.108 787>
VStem: 467 320<127 964 1114 1382>
LayerCount: 2
Fore
SplineSet
477 -20 m 1,0,-1
 467 -20 l 1,1,-1
 467 964 l 1,2,-1
 110 964 l 1,3,-1
 110 974 l 1,4,-1
 177 1114 l 1,5,-1
 467 1114 l 1,6,-1
 467 1382 l 1,7,-1
 777 1530 l 1,8,-1
 787 1530 l 1,9,-1
 787 1114 l 1,10,-1
 1144 1114 l 1,11,-1
 1144 1104 l 1,12,-1
 1077 964 l 1,13,-1
 787 964 l 1,14,-1
 787 127 l 1,15,-1
 477 -20 l 1,0,-1
EndSplineSet
Validated: 1
EndChar

StartChar: daggerdbl
Encoding: 8225 8225 139
Width: 1254
GlyphClass: 2
Flags: W
HStem: -20 21G<467 519.177> 396 150<177 467 787 1077> 964 150<177 467 787 1077> 1510 20G<734.823 787>
VStem: 467 320<127 396 546 964 1114 1383>
LayerCount: 2
Fore
SplineSet
477 -20 m 1,0,-1
 467 -20 l 1,1,-1
 467 396 l 1,2,-1
 110 396 l 1,3,-1
 110 406 l 1,4,-1
 177 546 l 1,5,-1
 467 546 l 1,6,-1
 467 964 l 1,7,-1
 110 964 l 1,8,-1
 110 974 l 1,9,-1
 177 1114 l 1,10,-1
 467 1114 l 1,11,-1
 467 1382 l 1,12,-1
 467 1383 l 1,13,-1
 777 1530 l 1,14,-1
 787 1530 l 1,15,-1
 787 1114 l 1,16,-1
 1144 1114 l 1,17,-1
 1144 1104 l 1,18,-1
 1077 964 l 1,19,-1
 787 964 l 1,20,-1
 787 546 l 1,21,-1
 1144 546 l 1,22,-1
 1144 536 l 1,23,-1
 1077 396 l 1,24,-1
 787 396 l 1,25,-1
 787 128 l 1,26,-1
 787 127 l 1,27,-1
 477 -20 l 1,0,-1
EndSplineSet
Validated: 1
EndChar

StartChar: bullet
Encoding: 8226 8226 140
Width: 950
GlyphClass: 2
Flags: W
HStem: 387 735<214.717 735.283>
VStem: 110 730<490.603 1018.4>
LayerCount: 2
Fore
SplineSet
392 1122 m 2,0,-1
 558 1122 l 2,1,2
 840 1122 840 1122 840 843 c 2,3,-1
 840 666 l 2,4,5
 840 387 840 387 558 387 c 2,6,-1
 392 387 l 2,7,8
 110 387 110 387 110 666 c 2,9,-1
 110 843 l 2,10,11
 110 1122 110 1122 392 1122 c 2,0,-1
EndSplineSet
Validated: 1
EndChar

StartChar: ellipsis
Encoding: 8230 8230 141
Width: 1292
GlyphClass: 2
Flags: W
HStem: -20 365<92.1309 326.878 528.131 762.878 964.131 1198.88>
VStem: 30 360<42.5657 282.578> 466 360<42.5657 282.578> 902 360<42.5657 282.578>
CounterMasks: 1 70
LayerCount: 2
Fore
SplineSet
1082 -20 m 0,0,1
 1006 -20 1006 -20 954 34 c 128,-1,2
 902 88 902 88 902 162 c 0,3,4
 902 238 902 238 954 291 c 0,5,6
 1007 345 1007 345 1082 345 c 128,-1,7
 1157 345 1157 345 1209.5 291.5 c 128,-1,8
 1262 238 1262 238 1262 163 c 128,-1,9
 1262 88 1262 88 1209 34 c 128,-1,10
 1156 -20 1156 -20 1082 -20 c 0,0,1
646 -20 m 0,11,12
 570 -20 570 -20 518 34 c 128,-1,13
 466 88 466 88 466 162 c 0,14,15
 466 238 466 238 518 291 c 0,16,17
 571 345 571 345 646 345 c 128,-1,18
 721 345 721 345 773.5 291.5 c 128,-1,19
 826 238 826 238 826 163 c 128,-1,20
 826 88 826 88 773 34 c 128,-1,21
 720 -20 720 -20 646 -20 c 0,11,12
210 -20 m 0,22,23
 134 -20 134 -20 82 34 c 128,-1,24
 30 88 30 88 30 162 c 0,25,26
 30 238 30 238 82 291 c 0,27,28
 135 345 135 345 210 345 c 128,-1,29
 285 345 285 345 337.5 291.5 c 128,-1,30
 390 238 390 238 390 163 c 128,-1,31
 390 88 390 88 337 34 c 128,-1,32
 284 -20 284 -20 210 -20 c 0,22,23
EndSplineSet
Validated: 1
EndChar

StartChar: perthousand
Encoding: 8240 8240 142
Width: 2750
GlyphClass: 2
Flags: W
HStem: -20 21G<709.053 770.325> 0 103<1313.91 1620.09 2117.91 2424.09> 639 110<1313.91 1620.09 2117.91 2424.09> 761 110<325.906 632.094> 1407 103<325.906 632.094> 1510 20G<1175.66 1236.77>
VStem: 110 214<875.502 1401.02> 634 214<875.502 1401.02> 1098 214<108.984 634.498> 1622 214<108.984 634.498> 1902 214<108.984 634.498> 2426 214<108.984 634.498>
DStem2: 514 93 761 -20 0.423093 0.906086<2.11609 1585.94>
LayerCount: 2
Fore
SplineSet
2369 103 m 2,0,1
 2426 103 2426 103 2426 159 c 2,2,-1
 2426 583 l 2,3,4
 2426 639 2426 639 2369 639 c 2,5,-1
 2173 639 l 2,6,7
 2116 639 2116 639 2116 583 c 2,8,-1
 2116 159 l 2,9,10
 2116 103 2116 103 2173 103 c 2,11,-1
 2369 103 l 2,0,1
1565 103 m 2,12,13
 1622 103 1622 103 1622 159 c 2,14,-1
 1622 583 l 2,15,16
 1622 639 1622 639 1565 639 c 2,17,-1
 1369 639 l 2,18,19
 1312 639 1312 639 1312 583 c 2,20,-1
 1312 159 l 2,21,22
 1312 103 1312 103 1369 103 c 2,23,-1
 1565 103 l 2,12,13
1554 0 m 2,24,-1
 1380 0 l 2,25,26
 1098 0 1098 0 1098 279 c 2,27,-1
 1098 470 l 2,28,29
 1098 749 1098 749 1380 749 c 2,30,-1
 1554 749 l 2,31,32
 1836 749 1836 749 1836 470 c 2,33,-1
 1836 279 l 2,34,35
 1836 0 1836 0 1554 0 c 2,24,-1
381 1407 m 2,36,37
 324 1407 324 1407 324 1351 c 2,38,-1
 324 927 l 2,39,40
 324 871 324 871 381 871 c 2,41,-1
 577 871 l 2,42,43
 634 871 634 871 634 927 c 2,44,-1
 634 1351 l 2,45,46
 634 1407 634 1407 577 1407 c 2,47,-1
 381 1407 l 2,36,37
392 1510 m 2,48,-1
 566 1510 l 2,49,50
 848 1510 848 1510 848 1231 c 2,51,-1
 848 1040 l 2,52,53
 848 761 848 761 566 761 c 2,54,-1
 392 761 l 2,55,56
 110 761 110 761 110 1040 c 2,57,-1
 110 1231 l 2,58,59
 110 1510 110 1510 392 1510 c 2,48,-1
751 -20 m 1,60,-1
 514 93 l 1,61,-1
 1185 1530 l 1,62,-1
 1195 1530 l 1,63,-1
 1431 1417 l 1,64,-1
 761 -20 l 1,65,-1
 751 -20 l 1,60,-1
2358 0 m 2,66,-1
 2184 0 l 2,67,68
 1902 0 1902 0 1902 279 c 2,69,-1
 1902 470 l 2,70,71
 1902 749 1902 749 2184 749 c 2,72,-1
 2358 749 l 2,73,74
 2640 749 2640 749 2640 470 c 2,75,-1
 2640 279 l 2,76,77
 2640 0 2640 0 2358 0 c 2,66,-1
EndSplineSet
Validated: 1
EndChar

StartChar: minute
Encoding: 8242 8242 143
Width: 450
GlyphClass: 2
Flags: W
HStem: 1140 460
VStem: 30 390
LayerCount: 2
Fore
SplineSet
203 1600 m 1,0,-1
 213 1600 l 1,1,-1
 420 1501 l 1,2,-1
 188 1140 l 1,3,-1
 178 1140 l 1,4,-1
 30 1210 l 1,5,-1
 203 1600 l 1,0,-1
EndSplineSet
Validated: 1
EndChar

StartChar: second
Encoding: 8243 8243 144
Width: 770
GlyphClass: 2
Flags: W
HStem: 1140 460
LayerCount: 2
Fore
SplineSet
523 1600 m 1,0,-1
 533 1600 l 1,1,-1
 740 1501 l 1,2,-1
 508 1140 l 1,3,-1
 498 1140 l 1,4,-1
 350 1210 l 1,5,-1
 523 1600 l 1,0,-1
203 1600 m 1,6,-1
 213 1600 l 1,7,-1
 420 1501 l 1,8,-1
 188 1140 l 1,9,-1
 178 1140 l 1,10,-1
 30 1210 l 1,11,-1
 203 1600 l 1,6,-1
EndSplineSet
Validated: 1
EndChar

StartChar: guilsinglleft
Encoding: 8249 8249 145
Width: 811
GlyphClass: 2
Flags: W
VStem: 110 541
DStem2: 348 881 110 755 0.506363 -0.862321<0 570.906> 110 755 348 881 0.507932 0.861397<229.424 718.6>
LayerCount: 2
Fore
SplineSet
110 755 m 1,0,-1
 475 1374 l 1,1,-1
 485 1374 l 1,2,-1
 604 1317 l 1,3,-1
 348 881 l 1,4,-1
 651 365 l 1,5,-1
 416 253 l 1,6,-1
 406 253 l 1,7,-1
 110 755 l 1,0,-1
EndSplineSet
Validated: 1
EndChar

StartChar: guilsinglright
Encoding: 8250 8250 146
Width: 811
GlyphClass: 2
Flags: W
VStem: 160 541
DStem2: 405 1257 160 1145 0.506363 -0.862321<0 570.906> 207 193 336 136 0.507932 0.861397<16.4236 505.6>
LayerCount: 2
Fore
SplineSet
701 755 m 1,0,-1
 336 136 l 1,1,-1
 326 136 l 1,2,-1
 207 193 l 1,3,-1
 463 629 l 1,4,-1
 160 1145 l 1,5,-1
 395 1257 l 1,6,-1
 405 1257 l 1,7,-1
 701 755 l 1,0,-1
EndSplineSet
Validated: 1
EndChar

StartChar: fraction
Encoding: 8260 8260 147
Width: 937
GlyphClass: 2
Flags: W
HStem: -20 21G<205.053 266.325> 1510 20G<671.661 732.77>
DStem2: 10 93 257 -20 0.423093 0.906086<2.11609 1585.94>
LayerCount: 2
Fore
SplineSet
247 -20 m 1,0,-1
 10 93 l 1,1,-1
 681 1530 l 1,2,-1
 691 1530 l 1,3,-1
 927 1417 l 1,4,-1
 257 -20 l 1,5,-1
 247 -20 l 1,0,-1
EndSplineSet
Validated: 1
EndChar

StartChar: Euro
Encoding: 8364 8364 148
Width: 1440
GlyphClass: 2
Flags: W
HStem: 0 150<576.729 981.56> 586 140<101 240 570 909> 786 140<101 240 570 909> 1360 150<576.729 981.56>
VStem: 240 330<171.538 586 726 786 926 1338.46> 995 335<171.538 403 1122 1334.85>
LayerCount: 2
Fore
SplineSet
920 0 m 2,0,-1
 650 0 l 2,1,2
 240 0 240 0 240 380 c 2,3,-1
 240 586 l 1,4,-1
 40 586 l 1,5,-1
 40 596 l 1,6,-1
 101 726 l 1,7,-1
 240 726 l 1,8,-1
 240 786 l 1,9,-1
 40 786 l 1,10,-1
 40 796 l 1,11,-1
 101 926 l 1,12,-1
 240 926 l 1,13,-1
 240 1130 l 2,14,15
 240 1510 240 1510 650 1510 c 2,16,-1
 920 1510 l 2,17,18
 1330 1510 1330 1510 1330 1122 c 1,19,-1
 1005 967 l 1,20,-1
 995 967 l 1,21,-1
 995 1289 l 2,22,23
 995 1360 995 1360 915 1360 c 2,24,-1
 650 1360 l 2,25,26
 570 1360 570 1360 570 1289 c 2,27,-1
 570 926 l 1,28,-1
 970 926 l 1,29,-1
 970 916 l 1,30,-1
 909 786 l 1,31,-1
 570 786 l 1,32,-1
 570 726 l 1,33,-1
 970 726 l 1,34,-1
 970 716 l 1,35,-1
 909 586 l 1,36,-1
 570 586 l 1,37,-1
 570 221 l 2,38,39
 570 150 570 150 650 150 c 2,40,-1
 915 150 l 2,41,42
 995 150 995 150 995 221 c 2,43,-1
 995 403 l 1,44,-1
 1320 558 l 1,45,-1
 1330 558 l 1,46,-1
 1330 380 l 2,47,48
 1330 0 1330 0 920 0 c 2,0,-1
EndSplineSet
Validated: 1
EndChar

StartChar: afii61248
Encoding: 8453 8453 149
Width: 1734
GlyphClass: 2
Flags: W
HStem: -20 21G<593.053 654.325> 0 96<1223.31 1418.69> 699 96<1223.31 1418.69> 715 96<315.309 483.904> 1414 96<315.309 483.181> 1510 20G<1059.66 1120.77>
VStem: 110 205<814.258 1410.74> 489 207<814.258 947 1272.45 1409.66> 1018 205<99.2578 695.742> 1419 205<99.2578 695.742>
DStem2: 398 93 645 -20 0.423093 0.906086<2.11609 1585.94>
LayerCount: 2
Fore
SplineSet
336 1510 m 2,0,-1
 470 1510 l 2,1,2
 684 1510 684 1510 699 1277 c 1,3,-1
 499 1198 l 1,4,-1
 489 1198 l 1,5,-1
 489 1399 l 2,6,7
 489 1414 489 1414 469 1414 c 2,8,-1
 335 1414 l 2,9,10
 315 1414 315 1414 315 1399 c 2,11,-1
 315 826 l 2,12,13
 315 811 315 811 335 811 c 2,14,-1
 469 811 l 2,15,16
 489 811 489 811 489 826 c 2,17,-1
 489 947 l 1,18,-1
 686 1034 l 1,19,-1
 696 1034 l 1,20,-1
 696 925 l 2,21,22
 696 715 696 715 470 715 c 2,23,-1
 336 715 l 2,24,25
 110 715 110 715 110 925 c 2,26,-1
 110 1300 l 2,27,28
 110 1510 110 1510 336 1510 c 2,0,-1
1223 111 m 2,29,30
 1223 96 1223 96 1243 96 c 2,31,-1
 1399 96 l 2,32,33
 1419 96 1419 96 1419 111 c 2,34,-1
 1419 684 l 2,35,36
 1419 699 1419 699 1399 699 c 2,37,-1
 1243 699 l 2,38,39
 1223 699 1223 699 1223 684 c 2,40,-1
 1223 111 l 2,29,30
1398 0 m 2,41,-1
 1244 0 l 2,42,43
 1018 0 1018 0 1018 210 c 2,44,-1
 1018 585 l 2,45,46
 1018 795 1018 795 1244 795 c 2,47,-1
 1398 795 l 2,48,49
 1624 795 1624 795 1624 585 c 2,50,-1
 1624 210 l 2,51,52
 1624 0 1624 0 1398 0 c 2,41,-1
635 -20 m 1,53,-1
 398 93 l 1,54,-1
 1069 1530 l 1,55,-1
 1079 1530 l 1,56,-1
 1315 1417 l 1,57,-1
 645 -20 l 1,58,-1
 635 -20 l 1,53,-1
EndSplineSet
Validated: 1
EndChar

StartChar: afii61289
Encoding: 8467 8467 150
Width: 1147
GlyphClass: 2
Flags: W
HStem: 0 1G<110 486.273 636 745> 1510 20G<804.5 902>
LayerCount: 2
Fore
SplineSet
690 -20 m 0,0,1
 582 -20 582 -20 501 44 c 1,2,-1
 474 0 l 1,3,-1
 110 0 l 1,4,5
 272 162 272 162 375 325 c 1,6,7
 364 420 364 420 364 524 c 0,8,9
 364 686 364 686 411 865 c 0,10,11
 509 1240 509 1240 661 1423 c 0,12,13
 749 1530 749 1530 860 1530 c 0,14,15
 944 1530 944 1530 994 1480 c 0,16,17
 1058 1416 1058 1416 1058 1281 c 0,18,19
 1058 1186 1058 1186 1029 1041 c 0,20,21
 959 688 959 688 676 272 c 1,22,23
 678 216 678 216 699 216 c 128,-1,24
 720 216 720 216 745 260 c 0,25,26
 760 286 760 286 771 319 c 1,27,-1
 1087 319 l 1,28,29
 994 144 994 144 897 62 c 128,-1,30
 800 -20 800 -20 690 -20 c 0,0,1
EndSplineSet
Validated: 1
EndChar

StartChar: trademark
Encoding: 8482 8482 151
Width: 1791
GlyphClass: 2
Flags: W
HStem: 1434 96<101 273 473 645 875.401 1073.83 1276.24 1476.6>
VStem: 273 200<798 1434> 671 200<798 1430.74> 1076 200<798 1434> 1481 200<798 1430.74>
LayerCount: 2
Fore
SplineSet
896 1530 m 2,0,-1
 1051 1530 l 2,1,2
 1126 1530 1126 1530 1176 1505 c 1,3,4
 1227 1530 1227 1530 1301 1530 c 2,5,-1
 1456 1530 l 2,6,7
 1681 1530 1681 1530 1681 1320 c 2,8,-1
 1681 798 l 1,9,-1
 1491 723 l 1,10,-1
 1481 723 l 1,11,-1
 1481 1418 l 2,12,13
 1481 1434 1481 1434 1461 1434 c 2,14,-1
 1296 1434 l 2,15,16
 1276 1434 1276 1434 1276 1418 c 2,17,-1
 1276 798 l 1,18,-1
 1086 723 l 1,19,-1
 1076 723 l 1,20,-1
 1076 1418 l 2,21,22
 1076 1434 1076 1434 1056 1434 c 2,23,-1
 891 1434 l 2,24,25
 871 1434 871 1434 871 1418 c 2,26,-1
 871 798 l 1,27,-1
 681 723 l 1,28,-1
 671 723 l 1,29,-1
 671 1320 l 2,30,31
 671 1530 671 1530 896 1530 c 2,0,-1
101 1530 m 1,32,-1
 686 1530 l 1,33,-1
 686 1520 l 1,34,-1
 645 1434 l 1,35,-1
 473 1434 l 1,36,-1
 473 798 l 1,37,-1
 283 723 l 1,38,-1
 273 723 l 1,39,-1
 273 1434 l 1,40,-1
 60 1434 l 1,41,-1
 60 1444 l 1,42,-1
 101 1530 l 1,32,-1
EndSplineSet
Validated: 1
EndChar

StartChar: uni2126
Encoding: 8486 8486 152
Width: 1450
GlyphClass: 2
Flags: W
HStem: 0 384<483.828 688 762 966.172> 0 150<227 452 997 1223> 1360 150<485.217 964.783>
VStem: 160 320<441.282 1338.46> 452 236<150 279.218> 762 235<150 279.073> 970 320<440.806 1338.46>
LayerCount: 2
Fore
SplineSet
688 0 m 1,0,-1
 160 0 l 1,1,-1
 160 10 l 1,2,-1
 227 150 l 1,3,-1
 452 150 l 1,4,-1
 452 270 l 1,5,6
 160 317 160 317 160 671 c 2,7,-1
 160 1130 l 2,8,9
 160 1510 160 1510 570 1510 c 2,10,-1
 880 1510 l 2,11,12
 1290 1510 1290 1510 1290 1130 c 2,13,-1
 1290 671 l 2,14,15
 1290 316 1290 316 997 270 c 1,16,-1
 997 150 l 1,17,-1
 1290 150 l 1,18,-1
 1290 140 l 1,19,-1
 1223 0 l 1,20,-1
 762 0 l 1,21,-1
 762 384 l 1,22,-1
 890 384 l 2,23,24
 970 384 970 384 970 455 c 2,25,-1
 970 1289 l 2,26,27
 970 1360 970 1360 890 1360 c 2,28,-1
 560 1360 l 2,29,30
 480 1360 480 1360 480 1289 c 2,31,-1
 480 455 l 2,32,33
 480 384 480 384 560 384 c 2,34,-1
 688 384 l 1,35,-1
 688 0 l 1,0,-1
EndSplineSet
Validated: 1
EndChar

StartChar: estimated
Encoding: 8494 8494 153
Width: 1241
GlyphClass: 2
Flags: W
HStem: -20 183<441.95 798.867> 491 189<393 845> 935 185<439.039 799.176>
VStem: 60 333<316.826 491 680 791.88>
LayerCount: 2
Fore
SplineSet
619 -20 m 0,0,1
 368 -20 368 -20 214 145 c 128,-1,2
 60 310 60 310 60 553 c 0,3,4
 60 802 60 802 216 960 c 0,5,6
 374 1120 374 1120 616 1120 c 0,7,8
 859 1120 859 1120 1007 974 c 0,9,10
 1181 802 1181 802 1181 491 c 1,11,-1
 393 491 l 1,12,-1
 393 239 l 1,13,14
 488 163 488 163 619 163 c 0,15,16
 827 163 827 163 945 351 c 1,17,-1
 1109 255 l 1,18,19
 985 85 985 85 866 32.5 c 128,-1,20
 747 -20 747 -20 619 -20 c 0,0,1
845 680 m 1,21,-1
 845 862 l 1,22,23
 747 935 747 935 617 935 c 0,24,25
 485 935 485 935 393 861 c 1,26,-1
 393 680 l 1,27,-1
 845 680 l 1,21,-1
EndSplineSet
Validated: 1
EndChar

StartChar: partialdiff
Encoding: 8706 8706 154
Width: 1325
GlyphClass: 2
Flags: W
HStem: -20 273<452.903 666.396> 823 260<577.1 826.76> 1257 273<502.596 826.913>
VStem: 110 305<291.814 617.824> 906 309<1024 1178.17>
LayerCount: 2
Fore
SplineSet
532 -20 m 0,0,1
 262 -20 262 -20 163 171 c 0,2,3
 110 273 110 273 110 416 c 0,4,5
 110 673 110 673 264 878 c 128,-1,6
 418 1083 418 1083 690 1083 c 0,7,8
 809 1083 809 1083 906 1024 c 1,9,10
 903 1115 903 1115 865 1173 c 0,11,12
 808 1257 808 1257 686 1257 c 0,13,14
 531 1257 531 1257 380 1132 c 1,15,-1
 380 1443 l 1,16,17
 526 1530 526 1530 723 1530 c 0,18,19
 1040 1530 1040 1530 1156 1271 c 0,20,21
 1215 1139 1215 1139 1215 950 c 0,22,23
 1215 563 1215 563 1032 272 c 0,24,25
 851 -20 851 -20 532 -20 c 0,0,1
879 699 m 1,26,27
 858 756 858 756 815 788 c 0,28,29
 768 823 768 823 700 823 c 0,30,31
 591 823 591 823 510 706 c 0,32,33
 415 567 415 567 415 431 c 0,34,35
 415 344 415 344 453 295 c 0,36,37
 485 253 485 253 545 253 c 0,38,39
 652 253 652 253 747 376 c 128,-1,40
 842 499 842 499 879 699 c 1,26,27
EndSplineSet
Validated: 1
EndChar

StartChar: uni2206
Encoding: 8710 8710 155
Width: 1505
GlyphClass: 2
Flags: W
HStem: 0 150<231 1118> 1510 20G<822.846 883.17>
DStem2: 5 0 231 150 0.386112 0.922452<225.629 1388.4> 875 1530 679 1223 0.378162 -0.92574<210.082 1369.41>
LayerCount: 2
Fore
SplineSet
5 0 m 1,0,-1
 591 1400 l 1,1,-1
 865 1530 l 1,2,-1
 875 1530 l 1,3,-1
 1500 0 l 1,4,-1
 5 0 l 1,0,-1
231 150 m 1,5,-1
 1118 150 l 1,6,-1
 679 1223 l 1,7,-1
 231 150 l 1,5,-1
EndSplineSet
Validated: 1
EndChar

StartChar: product
Encoding: 8719 8719 156
Width: 1440
GlyphClass: 2
Flags: W
HStem: -430 21G<160 212.177 960 1012.18> 1360 150<480 960>
VStem: 160 320<-283 1360> 960 320<-283 1360>
LayerCount: 2
Fore
SplineSet
170 -430 m 1,0,-1
 160 -430 l 1,1,-1
 160 1384 l 1,2,-1
 428 1510 l 1,3,-1
 1280 1510 l 1,4,-1
 1280 -283 l 1,5,-1
 970 -430 l 1,6,-1
 960 -430 l 1,7,-1
 960 1360 l 1,8,-1
 480 1360 l 1,9,-1
 480 -283 l 1,10,-1
 170 -430 l 1,0,-1
EndSplineSet
Validated: 1
EndChar

StartChar: summation
Encoding: 8721 8721 157
Width: 1284
GlyphClass: 2
Flags: W
HStem: -410 150<496 1107> 1360 150<488 1101>
DStem2: 60 -410 496 -260 0.462139 0.886807<334.514 1120.87> 488 1360 74 1427 0.513148 -0.8583<0 712.224>
LayerCount: 2
Fore
SplineSet
60 -410 m 1,0,-1
 578 584 l 1,1,-1
 74 1427 l 1,2,-1
 250 1510 l 1,3,-1
 1168 1510 l 1,4,-1
 1168 1500 l 1,5,-1
 1101 1360 l 1,6,-1
 488 1360 l 1,7,-1
 944 598 l 1,8,-1
 496 -260 l 1,9,-1
 1174 -260 l 1,10,-1
 1174 -270 l 1,11,-1
 1107 -410 l 1,12,-1
 60 -410 l 1,0,-1
EndSplineSet
Validated: 1
EndChar

StartChar: minus
Encoding: 8722 8722 158
Width: 1240
GlyphClass: 2
Flags: W
HStem: 620 270<235 1005>
LayerCount: 2
Fore
SplineSet
235 890 m 1,0,-1
 1130 890 l 1,1,-1
 1130 880 l 1,2,-1
 1005 620 l 1,3,-1
 110 620 l 1,4,-1
 110 630 l 1,5,-1
 235 890 l 1,0,-1
EndSplineSet
Validated: 1
EndChar

StartChar: uni2215
Encoding: 8725 8725 159
Width: 937
GlyphClass: 2
Flags: W
HStem: -20 21G<205.053 266.325> 1510 20G<671.661 732.77>
DStem2: 10 93 257 -20 0.423093 0.906086<2.11609 1585.94>
LayerCount: 2
Fore
SplineSet
247 -20 m 1,0,-1
 10 93 l 1,1,-1
 681 1530 l 1,2,-1
 691 1530 l 1,3,-1
 927 1417 l 1,4,-1
 257 -20 l 1,5,-1
 247 -20 l 1,0,-1
EndSplineSet
Validated: 1
EndChar

StartChar: uni2219
Encoding: 8729 8729 160
Width: 420
GlyphClass: 2
Flags: W
HStem: 573 365<92.1309 326.878>
VStem: 30 360<635.566 875.578>
LayerCount: 2
Fore
SplineSet
210 938 m 128,-1,1
 285 938 285 938 337.5 884.5 c 128,-1,2
 390 831 390 831 390 756 c 128,-1,3
 390 681 390 681 337 627 c 128,-1,4
 284 573 284 573 210 573 c 0,5,6
 134 573 134 573 82 627 c 128,-1,7
 30 681 30 681 30 755 c 0,8,9
 30 831 30 831 82 884 c 0,10,0
 135 938 135 938 210 938 c 128,-1,1
EndSplineSet
Validated: 1
EndChar

StartChar: radical
Encoding: 8730 8730 161
Width: 1177
GlyphClass: 2
Flags: W
HStem: -20 21G<294.255 354.222> 1510 20G<1025.38 1086.41>
DStem2: 283 858 10 734 0.361133 -0.932514<17.0425 598.649> 505 302 578 106 0.395947 0.918274<0 1336.5>
LayerCount: 2
Fore
SplineSet
312 -20 m 1,0,-1
 302 -20 l 1,1,-1
 10 734 l 1,2,-1
 273 858 l 1,3,-1
 283 858 l 1,4,-1
 505 302 l 1,5,-1
 1034 1530 l 1,6,-1
 1044 1530 l 1,7,-1
 1167 1472 l 1,8,-1
 578 106 l 1,9,-1
 312 -20 l 1,0,-1
EndSplineSet
Validated: 1
EndChar

StartChar: infinity
Encoding: 8734 8734 162
Width: 1482
GlyphClass: 2
Flags: W
HStem: 373 103<325.906 632.461 849.539 1156.09> 1012 110<325.906 632.461 849.539 1156.09>
VStem: 110 214<481.984 1007.5> 634 214<476.875 1011.12> 1158 214<481.984 1007.5>
CounterMasks: 1 38
LayerCount: 2
Fore
SplineSet
1101 476 m 2,0,1
 1158 476 1158 476 1158 532 c 2,2,-1
 1158 956 l 2,3,4
 1158 1012 1158 1012 1101 1012 c 2,5,-1
 905 1012 l 2,6,7
 848 1012 848 1012 848 956 c 2,8,-1
 848 532 l 2,9,10
 848 476 848 476 905 476 c 2,11,-1
 1101 476 l 2,0,1
577 476 m 2,12,13
 634 476 634 476 634 532 c 2,14,-1
 634 956 l 2,15,16
 634 1012 634 1012 577 1012 c 2,17,-1
 381 1012 l 2,18,19
 324 1012 324 1012 324 956 c 2,20,-1
 324 532 l 2,21,22
 324 476 324 476 381 476 c 2,23,-1
 577 476 l 2,12,13
392 1122 m 2,24,-1
 566 1122 l 2,25,26
 674 1122 674 1122 741 1081 c 1,27,28
 808 1122 808 1122 916 1122 c 2,29,-1
 1090 1122 l 2,30,31
 1372 1122 1372 1122 1372 843 c 2,32,-1
 1372 652 l 2,33,34
 1372 373 1372 373 1090 373 c 2,35,-1
 916 373 l 2,36,37
 808 373 808 373 741 414 c 1,38,39
 674 373 674 373 566 373 c 2,40,-1
 392 373 l 2,41,42
 110 373 110 373 110 652 c 2,43,-1
 110 843 l 2,44,45
 110 1122 110 1122 392 1122 c 2,24,-1
EndSplineSet
Validated: 1
EndChar

StartChar: approxequal
Encoding: 8776 8776 163
Width: 1178
GlyphClass: 2
Flags: W
HStem: 265 212<729.113 890.449> 535 212<287.551 448.887> 765 212<729.113 890.449> 1035 212<287.551 448.887>
VStem: 110 148<330 508.707 830 1008.71> 920 148<503.293 682 1003.29 1182>
LayerCount: 2
Fore
SplineSet
426 747 m 0,0,1
 607 747 607 747 686 594 c 0,2,3
 717 533 717 533 736 513 c 0,4,5
 768 477 768 477 816 477 c 0,6,7
 920 477 920 477 920 682 c 1,8,-1
 1058 747 l 1,9,-1
 1068 747 l 1,10,11
 1068 265 1068 265 752 265 c 0,12,13
 571 265 571 265 492 418 c 0,14,15
 461 479 461 479 442 499 c 0,16,17
 410 535 410 535 362 535 c 0,18,19
 258 535 258 535 258 330 c 1,20,-1
 120 265 l 1,21,-1
 110 265 l 1,22,23
 110 747 110 747 426 747 c 0,0,1
426 1247 m 0,24,25
 607 1247 607 1247 686 1094 c 0,26,27
 717 1033 717 1033 736 1013 c 0,28,29
 768 977 768 977 816 977 c 0,30,31
 920 977 920 977 920 1182 c 1,32,-1
 1058 1247 l 1,33,-1
 1068 1247 l 1,34,35
 1068 765 1068 765 752 765 c 0,36,37
 571 765 571 765 492 918 c 0,38,39
 461 979 461 979 442 999 c 0,40,41
 410 1035 410 1035 362 1035 c 0,42,43
 258 1035 258 1035 258 830 c 1,44,-1
 120 765 l 1,45,-1
 110 765 l 1,46,47
 110 1247 110 1247 426 1247 c 0,24,25
EndSplineSet
Validated: 1
EndChar

StartChar: notequal
Encoding: 8800 8800 164
Width: 1240
GlyphClass: 2
Flags: W
HStem: 390 270<235 365 660 1005> 850 270<235 579 875 1005>
DStem2: 262 170 430 166 0.422674 0.906282<67.3842 242.917 612.302 750.259 1120.07 1296.51>
LayerCount: 2
Fore
SplineSet
235 1120 m 1,0,-1
 705 1120 l 1,1,-1
 810 1345 l 1,2,-1
 969 1345 l 1,3,-1
 978 1341 l 1,4,-1
 875 1120 l 1,5,-1
 1130 1120 l 1,6,-1
 1130 1110 l 1,7,-1
 1005 850 l 1,8,-1
 749 850 l 1,9,-1
 660 660 l 1,10,-1
 1130 660 l 1,11,-1
 1130 650 l 1,12,-1
 1005 390 l 1,13,-1
 534 390 l 1,14,-1
 430 166 l 1,15,-1
 271 166 l 1,16,-1
 262 170 l 1,17,-1
 365 390 l 1,18,-1
 110 390 l 1,19,-1
 110 400 l 1,20,-1
 235 660 l 1,21,-1
 491 660 l 1,22,-1
 579 850 l 1,23,-1
 110 850 l 1,24,-1
 110 860 l 1,25,-1
 235 1120 l 1,0,-1
EndSplineSet
Validated: 1
EndChar

StartChar: lessequal
Encoding: 8804 8804 165
Width: 1355
GlyphClass: 2
Flags: W
HStem: 154 270<235 1070>
DStem2: 408 980 110 806 0.942398 -0.334493<0 808.778> 227 1059 408 980 0.937798 0.347181<142.314 973.557>
LayerCount: 2
Fore
SplineSet
227 1059 m 1,0,-1
 1140 1397 l 1,1,-1
 1195 1284 l 1,2,-1
 1195 1274 l 1,3,-1
 408 980 l 1,4,-1
 1195 707 l 1,5,-1
 1195 697 l 1,6,-1
 1082 461 l 1,7,-1
 110 806 l 1,8,-1
 110 816 l 1,9,-1
 227 1059 l 1,0,-1
235 424 m 1,10,-1
 1195 424 l 1,11,-1
 1195 414 l 1,12,-1
 1070 154 l 1,13,-1
 110 154 l 1,14,-1
 110 164 l 1,15,-1
 235 424 l 1,10,-1
EndSplineSet
Validated: 1
EndChar

StartChar: greaterequal
Encoding: 8805 8805 166
Width: 1355
GlyphClass: 2
Flags: W
HStem: 154 270<285 1120>
DStem2: 273 1377 160 1131 0.942398 -0.334493<0 808.778> 160 564 215 441 0.937798 0.347181<8.8757 840.118>
LayerCount: 2
Fore
SplineSet
1128 779 m 1,0,-1
 215 441 l 1,1,-1
 160 554 l 1,2,-1
 160 564 l 1,3,-1
 947 858 l 1,4,-1
 160 1131 l 1,5,-1
 160 1141 l 1,6,-1
 273 1377 l 1,7,-1
 1245 1032 l 1,8,-1
 1245 1022 l 1,9,-1
 1128 779 l 1,0,-1
285 424 m 1,10,-1
 1245 424 l 1,11,-1
 1245 414 l 1,12,-1
 1120 154 l 1,13,-1
 160 154 l 1,14,-1
 160 164 l 1,15,-1
 285 424 l 1,10,-1
EndSplineSet
Validated: 1
EndChar

StartChar: lozenge
Encoding: 9674 9674 167
Width: 1178
GlyphClass: 2
Flags: W
HStem: -20 21G<575.042 602.903> 1510 20G<575.641 602.409>
DStem2: 60 738 299 850 0.555427 0.831565<225.882 602.247> 299 850 60 738 0.5723 -0.820044<0 652.516> 589 1530 508 1163 0.556885 -0.83059<259.719 915.398> 674 316 589 -20 0.57078 0.821103<0 369.659>
LayerCount: 2
Fore
SplineSet
674 316 m 1,0,-1
 880 623 l 1,1,-1
 508 1163 l 1,2,-1
 299 850 l 1,3,-1
 674 316 l 1,0,-1
589 -20 m 1,4,-1
 60 738 l 1,5,-1
 589 1530 l 1,6,-1
 1118 741 l 1,7,-1
 589 -20 l 1,4,-1
EndSplineSet
Validated: 1
EndChar

StartChar: Oslash
Encoding: 216 216 168
Width: 1370
Flags: W
HStem: 0 150<473.917 924.783> 1360 150<445.217 896.083>
VStem: 120 320<371 1338.46> 930 320<171.538 1139>
DStem2: 289 48 380 -40 0.422823 0.906212<-41.2698 4.18282 356.553 1259.71 1612.08 1657.53>
LayerCount: 2
Fore
SplineSet
520 150 m 2,0,-1
 850 150 l 2,1,2
 930 150 930 150 930 221 c 2,3,-1
 930 1139 l 1,4,-1
 473 159 l 1,5,6
 491 150 491 150 520 150 c 2,0,-1
840 0 m 2,7,-1
 530 0 l 2,8,9
 461 0 461 0 404 11 c 1,10,-1
 380 -40 l 1,11,-1
 259 -40 l 1,12,-1
 250 -36 l 1,13,-1
 289 48 l 1,14,15
 120 135 120 135 120 380 c 2,16,-1
 120 1130 l 2,17,18
 120 1510 120 1510 530 1510 c 2,19,-1
 840 1510 l 2,20,21
 909 1510 909 1510 966 1499 c 1,22,-1
 990 1550 l 1,23,-1
 1111 1550 l 1,24,-1
 1120 1546 l 1,25,-1
 1081 1462 l 1,26,27
 1250 1375 1250 1375 1250 1130 c 2,28,-1
 1250 380 l 2,29,30
 1250 0 1250 0 840 0 c 2,7,-1
440 371 m 1,31,-1
 897 1351 l 1,32,33
 879 1360 879 1360 850 1360 c 2,34,-1
 520 1360 l 2,35,36
 440 1360 440 1360 440 1289 c 2,37,-1
 440 371 l 1,31,-1
EndSplineSet
Validated: 1
EndChar

StartChar: oslash
Encoding: 248 248 169
Width: 1190
Flags: W
HStem: 0 140<470 761.128> 960 140<428.872 720>
VStem: 120 300<317 954.895> 770 300<145.105 783>
DStem2: 285 28 386 -40 0.423012 0.906124<-18.8922 0 318.976 889.285 1208.26 1227.15>
LayerCount: 2
Fore
SplineSet
730 0 m 2,0,-1
 460 0 l 2,1,2
 432 0 432 0 406 2 c 1,3,-1
 386 -40 l 1,4,-1
 265 -40 l 1,5,-1
 255 -36 l 1,6,-1
 285 28 l 1,7,8
 120 93 120 93 120 307 c 2,9,-1
 120 793 l 2,10,11
 120 1100 120 1100 460 1100 c 2,12,-1
 730 1100 l 2,13,14
 758 1100 758 1100 784 1098 c 1,15,-1
 804 1140 l 1,16,-1
 925 1140 l 1,17,-1
 935 1136 l 1,18,-1
 905 1072 l 1,19,20
 1070 1007 1070 1007 1070 793 c 2,21,-1
 1070 307 l 2,22,23
 1070 0 1070 0 730 0 c 2,0,-1
730 140 m 2,24,25
 770 140 770 140 770 175 c 2,26,-1
 770 783 l 1,27,-1
 470 140 l 1,28,-1
 730 140 l 2,24,25
420 317 m 1,29,-1
 720 960 l 1,30,-1
 460 960 l 2,31,32
 420 960 420 960 420 925 c 2,33,-1
 420 317 l 1,29,-1
EndSplineSet
Validated: 1
EndChar

StartChar: multiply
Encoding: 215 215 170
Width: 1232
Flags: W
DStem2: 439 1123 160 1020 0.707107 -0.707107<0 250.316 520.431 770.746> 160 490 439 387 0.707107 0.707107<124.451 374.767 644.881 895.197>
LayerCount: 2
Fore
SplineSet
1065 1027 m 1,0,-1
 1072 1020 l 1,1,-1
 807 755 l 1,2,-1
 1072 490 l 1,3,-1
 1065 483 l 1,4,-1
 793 387 l 1,5,-1
 616 564 l 1,6,-1
 439 387 l 1,7,-1
 167 483 l 1,8,-1
 160 490 l 1,9,-1
 425 755 l 1,10,-1
 160 1020 l 1,11,-1
 167 1027 l 1,12,-1
 439 1123 l 1,13,-1
 616 946 l 1,14,-1
 793 1123 l 1,15,-1
 1065 1027 l 1,0,-1
EndSplineSet
Validated: 1
EndChar

StartChar: divide
Encoding: 247 247 171
Width: 1240
Flags: W
HStem: 155 365<502.131 736.878> 620 270<235 1005> 990 365<502.131 736.878>
VStem: 440 360<217.566 457.578 1052.57 1292.58>
CounterMasks: 1 e0
LayerCount: 2
Fore
SplineSet
235 890 m 1,0,-1
 1130 890 l 1,1,-1
 1130 880 l 1,2,-1
 1005 620 l 1,3,-1
 110 620 l 1,4,-1
 110 630 l 1,5,-1
 235 890 l 1,0,-1
620 1355 m 128,-1,7
 695 1355 695 1355 747.5 1301.5 c 128,-1,8
 800 1248 800 1248 800 1173 c 128,-1,9
 800 1098 800 1098 747 1044 c 128,-1,10
 694 990 694 990 620 990 c 0,11,12
 544 990 544 990 492 1044 c 128,-1,13
 440 1098 440 1098 440 1172 c 0,14,15
 440 1248 440 1248 492 1301 c 0,16,6
 545 1355 545 1355 620 1355 c 128,-1,7
620 155 m 0,17,18
 544 155 544 155 492 209 c 128,-1,19
 440 263 440 263 440 337 c 0,20,21
 440 413 440 413 492 466 c 0,22,23
 545 520 545 520 620 520 c 128,-1,24
 695 520 695 520 747.5 466.5 c 128,-1,25
 800 413 800 413 800 338 c 128,-1,26
 800 263 800 263 747 209 c 128,-1,27
 694 155 694 155 620 155 c 0,17,18
EndSplineSet
Validated: 1
EndChar

StartChar: uni1E02
Encoding: 7682 7682 172
Width: 1300
Flags: W
HStem: 0 150<480 913.271> 751 135<480 847.188> 1375 135<480 846.094> 1590 364<533.131 767.338>
VStem: 160 320<150 751 886 1375> 471 360<1654.3 1891.73> 850 310<902.254 1355.62> 920 330<171.538 742.28>
LayerCount: 2
Fore
SplineSet
480 150 m 1,0,-1
 840 150 l 2,1,2
 920 150 920 150 920 217 c 2,3,-1
 920 684 l 2,4,5
 920 751 920 751 840 751 c 2,6,-1
 480 751 l 1,7,-1
 480 150 l 1,0,-1
160 0 m 1,8,-1
 160 1384 l 1,9,-1
 428 1510 l 1,10,-1
 750 1510 l 2,11,12
 1160 1510 1160 1510 1160 1168 c 2,13,-1
 1160 1072 l 2,14,15
 1160 966 1160 966 1110 893 c 1,16,17
 1250 802 1250 802 1250 590 c 2,18,-1
 1250 380 l 2,19,20
 1250 0 1250 0 840 0 c 2,21,-1
 160 0 l 1,8,-1
480 886 m 1,22,-1
 770 886 l 2,23,24
 850 886 850 886 850 952 c 2,25,-1
 850 1309 l 2,26,27
 850 1375 850 1375 770 1375 c 2,28,-1
 480 1375 l 1,29,-1
 480 886 l 1,22,-1
651 1954 m 0,30,31
 727 1954 727 1954 779 1901 c 128,-1,32
 831 1848 831 1848 831 1773 c 0,33,34
 831 1699 831 1699 778 1644 c 0,35,36
 726 1590 726 1590 651 1590 c 0,37,38
 574 1590 574 1590 522.5 1644 c 128,-1,39
 471 1698 471 1698 471 1772 c 0,40,41
 471 1848 471 1848 523 1900 c 0,42,43
 576 1954 576 1954 651 1954 c 0,30,31
EndSplineSet
Validated: 1
EndChar

StartChar: uni1E03
Encoding: 7683 7683 173
Width: 1210
Flags: W
HStem: 0 140<448.872 770.918> 960 140<440.625 770.918> 1180 364<574.131 808.338> 1510 20G<387.971 440>
VStem: 140 300<145.105 960 1094 1392> 512 360<1244.3 1481.73> 780 310<145.105 954.895>
LayerCount: 2
Fore
SplineSet
480 0 m 2,0,1
 140 0 140 0 140 307 c 2,2,-1
 140 1392 l 1,3,-1
 430 1530 l 1,4,-1
 440 1530 l 1,5,-1
 440 1094 l 1,6,7
 460 1100 460 1100 480 1100 c 2,8,-1
 750 1100 l 2,9,10
 1090 1100 1090 1100 1090 793 c 2,11,-1
 1090 307 l 2,12,13
 1090 0 1090 0 750 0 c 2,14,-1
 480 0 l 2,0,1
480 140 m 2,15,16
 740 140 l 2,17,18
 780 140 780 140 780 175 c 2,19,-1
 780 925 l 2,20,21
 780 960 780 960 740 960 c 2,22,-1
 480 960 l 2,23,24
 440 960 440 960 440 925 c 2,25,-1
 440 175 l 2,26,27
 440 140 440 140 480 140 c 2,15,16
692 1544 m 0,28,29
 768 1544 768 1544 820 1491 c 128,-1,30
 872 1438 872 1438 872 1363 c 0,31,32
 872 1289 872 1289 819 1234 c 0,33,34
 767 1180 767 1180 692 1180 c 0,35,36
 615 1180 615 1180 563.5 1234 c 128,-1,37
 512 1288 512 1288 512 1362 c 0,38,39
 512 1438 512 1438 564 1490 c 0,40,41
 617 1544 617 1544 692 1544 c 0,28,29
EndSplineSet
Validated: 1
EndChar

StartChar: uni1E0A
Encoding: 7690 7690 174
Width: 1390
Flags: W
HStem: 0 150<480 933.271> 1360 150<480 933.271> 1590 364<568.131 802.338>
VStem: 160 320<150 1360> 506 360<1654.3 1891.73> 940 330<171.538 1338.46>
LayerCount: 2
Fore
SplineSet
480 150 m 1,0,-1
 860 150 l 2,1,2
 940 150 940 150 940 221 c 2,3,-1
 940 1289 l 2,4,5
 940 1360 940 1360 860 1360 c 2,6,-1
 480 1360 l 1,7,-1
 480 150 l 1,0,-1
160 0 m 1,8,-1
 160 1383 l 1,9,-1
 428 1510 l 1,10,-1
 860 1510 l 2,11,12
 1270 1510 1270 1510 1270 1130 c 2,13,-1
 1270 380 l 2,14,15
 1270 0 1270 0 860 0 c 2,16,-1
 160 0 l 1,8,-1
686 1954 m 0,17,18
 762 1954 762 1954 814 1901 c 128,-1,19
 866 1848 866 1848 866 1773 c 0,20,21
 866 1699 866 1699 813 1644 c 0,22,23
 761 1590 761 1590 686 1590 c 0,24,25
 609 1590 609 1590 557.5 1644 c 128,-1,26
 506 1698 506 1698 506 1772 c 0,27,28
 506 1848 506 1848 558 1900 c 0,29,30
 611 1954 611 1954 686 1954 c 0,17,18
EndSplineSet
Validated: 1
EndChar

StartChar: uni1E0B
Encoding: 7691 7691 175
Width: 1210
Flags: W
HStem: 0 140<439.082 761.128> 960 140<439.082 769.375> 1180 364<390.131 624.338>
VStem: 120 310<145.105 954.895> 328 360<1244.3 1481.73> 770 300<145.105 960 1094 1392>
LayerCount: 2
Fore
SplineSet
460 0 m 2,0,1
 120 0 120 0 120 307 c 2,2,-1
 120 793 l 2,3,4
 120 1100 120 1100 460 1100 c 2,5,-1
 730 1100 l 2,6,7
 750 1100 750 1100 770 1094 c 1,8,-1
 770 1392 l 1,9,-1
 1060 1530 l 1,10,-1
 1070 1530 l 1,11,-1
 1070 307 l 2,12,13
 1070 0 1070 0 730 0 c 2,14,-1
 460 0 l 2,0,1
730 140 m 2,15,16
 770 140 770 140 770 175 c 2,17,-1
 770 925 l 2,18,19
 770 960 770 960 730 960 c 2,20,-1
 470 960 l 2,21,22
 430 960 430 960 430 925 c 2,23,-1
 430 175 l 2,24,25
 430 140 430 140 470 140 c 2,26,-1
 730 140 l 2,15,16
508 1544 m 0,27,28
 584 1544 584 1544 636 1491 c 128,-1,29
 688 1438 688 1438 688 1363 c 0,30,31
 688 1289 688 1289 635 1234 c 0,32,33
 583 1180 583 1180 508 1180 c 0,34,35
 431 1180 431 1180 379.5 1234 c 128,-1,36
 328 1288 328 1288 328 1362 c 0,37,38
 328 1438 328 1438 380 1490 c 0,39,40
 433 1544 433 1544 508 1544 c 0,27,28
EndSplineSet
Validated: 1
EndChar

StartChar: uni1E1E
Encoding: 7710 7710 176
Width: 1050
Flags: W
HStem: -20 21G<160 212.177> 680 150<480 973> 1360 150<480 973> 1590 364<491.131 725.338>
VStem: 160 320<127 680 830 1360> 429 360<1654.3 1891.73>
LayerCount: 2
Fore
SplineSet
170 -20 m 1,0,-1
 160 -20 l 1,1,-1
 160 1384 l 1,2,-1
 428 1510 l 1,3,-1
 1040 1510 l 1,4,-1
 1040 1500 l 1,5,-1
 973 1360 l 1,6,-1
 480 1360 l 1,7,-1
 480 830 l 1,8,-1
 1040 830 l 1,9,-1
 1040 820 l 1,10,-1
 973 680 l 1,11,-1
 480 680 l 1,12,-1
 480 127 l 1,13,-1
 170 -20 l 1,0,-1
609 1954 m 0,14,15
 685 1954 685 1954 737 1901 c 128,-1,16
 789 1848 789 1848 789 1773 c 0,17,18
 789 1699 789 1699 736 1644 c 0,19,20
 684 1590 684 1590 609 1590 c 0,21,22
 532 1590 532 1590 480.5 1644 c 128,-1,23
 429 1698 429 1698 429 1772 c 0,24,25
 429 1848 429 1848 481 1900 c 0,26,27
 534 1954 534 1954 609 1954 c 0,14,15
EndSplineSet
Validated: 1
EndChar

StartChar: uni1E1F
Encoding: 7711 7711 177
Width: 860
Flags: W
HStem: -20 21G<140 192.029> 732 140<440 749> 1370 140<448.872 788> 1590 364<348.131 582.338>
VStem: 140 300<118 732 872 1364.89> 286 360<1654.3 1891.73>
LayerCount: 2
Fore
SplineSet
150 -20 m 1,0,-1
 140 -20 l 1,1,-1
 140 1203 l 2,2,3
 140 1510 140 1510 480 1510 c 2,4,-1
 850 1510 l 1,5,-1
 850 1500 l 1,6,-1
 788 1370 l 1,7,-1
 480 1370 l 2,8,9
 440 1370 440 1370 440 1335 c 2,10,-1
 440 872 l 1,11,-1
 811 872 l 1,12,-1
 811 862 l 1,13,-1
 749 732 l 1,14,-1
 440 732 l 1,15,-1
 440 118 l 1,16,-1
 150 -20 l 1,0,-1
466 1954 m 0,17,18
 542 1954 542 1954 594 1901 c 128,-1,19
 646 1848 646 1848 646 1773 c 0,20,21
 646 1699 646 1699 593 1644 c 0,22,23
 541 1590 541 1590 466 1590 c 0,24,25
 389 1590 389 1590 337.5 1644 c 128,-1,26
 286 1698 286 1698 286 1772 c 0,27,28
 286 1848 286 1848 338 1900 c 0,29,30
 391 1954 391 1954 466 1954 c 0,17,18
EndSplineSet
Validated: 1
EndChar

StartChar: uni1E40
Encoding: 7744 7744 178
Width: 2220
Flags: W
HStem: -20 21G<140 192.177 950 1002.18 1760 1812.18> 1360 150<465.217 946.172 1273.83 1754.78> 1590 364<986.131 1220.34>
VStem: 140 320<127 1338.46> 924 360<1654.3 1891.73> 950 320<127 1355.56> 1760 320<127 1338.46>
LayerCount: 2
Fore
SplineSet
150 -20 m 1,0,-1
 140 -20 l 1,1,-1
 140 1130 l 2,2,3
 140 1510 140 1510 550 1510 c 2,4,-1
 860 1510 l 2,5,6
 1014 1510 1014 1510 1110 1456 c 1,7,8
 1206 1510 1206 1510 1360 1510 c 2,9,-1
 1670 1510 l 2,10,11
 2080 1510 2080 1510 2080 1130 c 2,12,-1
 2080 127 l 1,13,-1
 1770 -20 l 1,14,-1
 1760 -20 l 1,15,-1
 1760 1289 l 2,16,17
 1760 1360 1760 1360 1680 1360 c 2,18,-1
 1350 1360 l 2,19,20
 1270 1360 1270 1360 1270 1289 c 2,21,-1
 1270 127 l 1,22,-1
 960 -20 l 1,23,-1
 950 -20 l 1,24,-1
 950 1289 l 2,25,26
 950 1360 950 1360 870 1360 c 2,27,-1
 540 1360 l 2,28,29
 460 1360 460 1360 460 1289 c 2,30,-1
 460 127 l 1,31,-1
 150 -20 l 1,0,-1
1104 1954 m 0,32,33
 1180 1954 1180 1954 1232 1901 c 128,-1,34
 1284 1848 1284 1848 1284 1773 c 0,35,36
 1284 1699 1284 1699 1231 1644 c 0,37,38
 1179 1590 1179 1590 1104 1590 c 0,39,40
 1027 1590 1027 1590 975.5 1644 c 128,-1,41
 924 1698 924 1698 924 1772 c 0,42,43
 924 1848 924 1848 976 1900 c 0,44,45
 1029 1954 1029 1954 1104 1954 c 0,32,33
EndSplineSet
Validated: 1
EndChar

StartChar: uni1E41
Encoding: 7745 7745 179
Width: 1880
Flags: W
HStem: -20 21G<140 192.029 790 842.029 1440 1492.03> 960 140<448.872 788.065 1091.94 1431.13> 1180 364<814.131 1048.34>
VStem: 140 300<118 954.895> 752 360<1244.3 1481.73> 790 300<118 960> 1440 300<118 954.895>
LayerCount: 2
Fore
SplineSet
150 -20 m 1,0,-1
 140 -20 l 1,1,-1
 140 793 l 2,2,3
 140 1100 140 1100 480 1100 c 2,4,-1
 750 1100 l 2,5,6
 864 1100 864 1100 940 1065 c 1,7,8
 1016 1100 1016 1100 1130 1100 c 2,9,-1
 1400 1100 l 2,10,11
 1740 1100 1740 1100 1740 793 c 2,12,-1
 1740 118 l 1,13,-1
 1450 -20 l 1,14,-1
 1440 -20 l 1,15,-1
 1440 925 l 2,16,17
 1440 960 1440 960 1400 960 c 2,18,-1
 1130 960 l 2,19,20
 1090 960 1090 960 1090 925 c 2,21,-1
 1090 118 l 1,22,-1
 800 -20 l 1,23,-1
 790 -20 l 1,24,-1
 790 925 l 2,25,26
 790 960 790 960 750 960 c 2,27,-1
 480 960 l 2,28,29
 440 960 440 960 440 925 c 2,30,-1
 440 118 l 1,31,-1
 150 -20 l 1,0,-1
932 1544 m 0,32,33
 1008 1544 1008 1544 1060 1491 c 128,-1,34
 1112 1438 1112 1438 1112 1363 c 0,35,36
 1112 1289 1112 1289 1059 1234 c 0,37,38
 1007 1180 1007 1180 932 1180 c 0,39,40
 855 1180 855 1180 803.5 1234 c 128,-1,41
 752 1288 752 1288 752 1362 c 0,42,43
 752 1438 752 1438 804 1490 c 0,44,45
 857 1544 857 1544 932 1544 c 0,32,33
EndSplineSet
Validated: 1
EndChar

StartChar: uni1E56
Encoding: 7766 7766 180
Width: 1250
Flags: W
HStem: -20 21G<160 212.177> 440 150<480 873.271> 1360 150<480 873.271> 1590 364<524.131 758.338>
VStem: 160 320<127 440 590 1360> 462 360<1654.3 1891.73> 880 330<615.149 1334.85>
LayerCount: 2
Fore
SplineSet
170 -20 m 1,0,-1
 160 -20 l 1,1,-1
 160 1383 l 1,2,-1
 428 1510 l 1,3,-1
 800 1510 l 2,4,5
 1210 1510 1210 1510 1210 1122 c 2,6,-1
 1210 828 l 2,7,8
 1210 440 1210 440 800 440 c 2,9,-1
 480 440 l 1,10,-1
 480 127 l 1,11,-1
 170 -20 l 1,0,-1
480 590 m 1,12,-1
 800 590 l 2,13,14
 880 590 880 590 880 661 c 2,15,-1
 880 1289 l 2,16,17
 880 1360 880 1360 800 1360 c 2,18,-1
 480 1360 l 1,19,-1
 480 590 l 1,12,-1
642 1954 m 0,20,21
 718 1954 718 1954 770 1901 c 128,-1,22
 822 1848 822 1848 822 1773 c 0,23,24
 822 1699 822 1699 769 1644 c 0,25,26
 717 1590 717 1590 642 1590 c 0,27,28
 565 1590 565 1590 513.5 1644 c 128,-1,29
 462 1698 462 1698 462 1772 c 0,30,31
 462 1848 462 1848 514 1900 c 0,32,33
 567 1954 567 1954 642 1954 c 0,20,21
EndSplineSet
Validated: 1
EndChar

StartChar: uni1E57
Encoding: 7767 7767 181
Width: 1210
Flags: W
HStem: -430 21G<140 192.029> 0 140<440.625 770.918> 960 140<448.872 770.918> 1180 364<495.131 729.338>
VStem: 140 300<-292 6 140 954.895> 433 360<1244.3 1481.73> 780 310<145.105 954.895>
LayerCount: 2
Fore
SplineSet
750 0 m 2,0,-1
 480 0 l 2,1,2
 460 0 460 0 440 6 c 1,3,-1
 440 -292 l 1,4,-1
 150 -430 l 1,5,-1
 140 -430 l 1,6,-1
 140 793 l 2,7,8
 140 1100 140 1100 480 1100 c 2,9,-1
 750 1100 l 2,10,11
 1090 1100 1090 1100 1090 793 c 2,12,-1
 1090 307 l 2,13,14
 1090 0 1090 0 750 0 c 2,0,-1
480 960 m 2,15,16
 440 960 440 960 440 925 c 2,17,-1
 440 175 l 2,18,19
 440 140 440 140 480 140 c 2,20,-1
 740 140 l 2,21,22
 780 140 780 140 780 175 c 2,23,-1
 780 925 l 2,24,25
 780 960 780 960 740 960 c 2,26,-1
 480 960 l 2,15,16
613 1544 m 0,27,28
 689 1544 689 1544 741 1491 c 128,-1,29
 793 1438 793 1438 793 1363 c 0,30,31
 793 1289 793 1289 740 1234 c 0,32,33
 688 1180 688 1180 613 1180 c 0,34,35
 536 1180 536 1180 484.5 1234 c 128,-1,36
 433 1288 433 1288 433 1362 c 0,37,38
 433 1438 433 1438 485 1490 c 0,39,40
 538 1544 538 1544 613 1544 c 0,27,28
EndSplineSet
Validated: 1
EndChar

StartChar: uni1E6A
Encoding: 7786 7786 182
Width: 1190
Flags: W
HStem: -20 21G<435 487.466> 1360 150<77 435 755 1113> 1590 364<471.131 705.338>
VStem: 409 360<1654.3 1891.73> 435 320<126 1360>
LayerCount: 2
Fore
SplineSet
445 -20 m 1,0,-1
 435 -20 l 1,1,-1
 435 1360 l 1,2,-1
 10 1360 l 1,3,-1
 10 1370 l 1,4,-1
 77 1510 l 1,5,-1
 1180 1510 l 1,6,-1
 1180 1500 l 1,7,-1
 1113 1360 l 1,8,-1
 755 1360 l 1,9,-1
 755 126 l 1,10,-1
 445 -20 l 1,0,-1
589 1954 m 0,11,12
 665 1954 665 1954 717 1901 c 128,-1,13
 769 1848 769 1848 769 1773 c 0,14,15
 769 1699 769 1699 716 1644 c 0,16,17
 664 1590 664 1590 589 1590 c 0,18,19
 512 1590 512 1590 460.5 1644 c 128,-1,20
 409 1698 409 1698 409 1772 c 0,21,22
 409 1848 409 1848 461 1900 c 0,23,24
 514 1954 514 1954 589 1954 c 0,11,12
EndSplineSet
Validated: 1
EndChar

StartChar: uni1E6B
Encoding: 7787 7787 183
Width: 890
Flags: W
HStem: -20 21G<300 351.985> 960 140<72 300 585 818> 1510 20G<533.015 585> 1590 364<327.131 561.338>
VStem: 265 360<1654.3 1891.73> 300 285<111 960 1100 1399>
LayerCount: 2
Fore
SplineSet
310 -20 m 1,0,-1
 300 -20 l 1,1,-1
 300 960 l 1,2,-1
 10 960 l 1,3,-1
 10 970 l 1,4,-1
 72 1100 l 1,5,-1
 300 1100 l 1,6,-1
 300 1399 l 1,7,-1
 575 1530 l 1,8,-1
 585 1530 l 1,9,-1
 585 1100 l 1,10,-1
 880 1100 l 1,11,-1
 880 1090 l 1,12,-1
 818 960 l 1,13,-1
 585 960 l 1,14,-1
 585 111 l 1,15,-1
 310 -20 l 1,0,-1
445 1954 m 0,16,17
 521 1954 521 1954 573 1901 c 128,-1,18
 625 1848 625 1848 625 1773 c 0,19,20
 625 1699 625 1699 572 1644 c 0,21,22
 520 1590 520 1590 445 1590 c 0,23,24
 368 1590 368 1590 316.5 1644 c 128,-1,25
 265 1698 265 1698 265 1772 c 0,26,27
 265 1848 265 1848 317 1900 c 0,28,29
 370 1954 370 1954 445 1954 c 0,16,17
EndSplineSet
Validated: 1
EndChar

StartChar: uni1E60
Encoding: 7776 7776 184
Width: 1160
Flags: W
HStem: 0 150<378.44 761.56> 758 151<460.852 761.56> 1370 140<460.852 699.691> 1590 364<461.131 695.338>
VStem: 30 335<170.635 378> 123 325<918.703 1363.57> 399 360<1654.3 1891.73> 702 325<1179 1360.58> 775 335<172.892 736.108>
LayerCount: 2
Fore
SplineSet
700 0 m 2,0,1
 440 0 l 2,2,3
 30 0 30 0 30 378 c 1,4,-1
 355 533 l 1,5,-1
 365 533 l 1,6,-1
 365 217 l 2,7,8
 365 150 365 150 445 150 c 2,9,-1
 695 150 l 2,10,11
 775 150 775 150 775 217 c 2,12,-1
 775 691 l 2,13,14
 775 758 775 758 695 758 c 2,15,-1
 483 758 l 2,16,17
 123 758 123 758 123 1098 c 2,18,-1
 123 1170 l 2,19,20
 123 1510 123 1510 483 1510 c 2,21,-1
 667 1510 l 2,22,23
 1024 1510 1024 1510 1027 1179 c 1,24,-1
 712 1029 l 1,25,-1
 702 1029 l 1,26,-1
 702 1308 l 2,27,28
 702 1370 702 1370 622 1370 c 2,29,-1
 528 1370 l 2,30,31
 448 1370 448 1370 448 1304 c 2,32,-1
 448 975 l 2,33,34
 448 909 448 909 528 909 c 2,35,-1
 700 909 l 2,36,37
 1110 909 1110 909 1110 526 c 2,38,-1
 1110 383 l 2,39,40
 1110 0 1110 0 700 0 c 2,0,1
579 1954 m 0,41,42
 655 1954 655 1954 707 1901 c 128,-1,43
 759 1848 759 1848 759 1773 c 0,44,45
 759 1699 759 1699 706 1644 c 0,46,47
 654 1590 654 1590 579 1590 c 0,48,49
 502 1590 502 1590 450.5 1644 c 128,-1,50
 399 1698 399 1698 399 1772 c 0,51,52
 399 1848 399 1848 451 1900 c 0,53,54
 504 1954 504 1954 579 1954 c 0,41,42
EndSplineSet
Validated: 1
EndChar

StartChar: uni1E61
Encoding: 7777 7777 185
Width: 950
Flags: W
HStem: 0 140<339.082 601.128> 499 140<378.698 597.494> 960 140<378.698 564.439> 1180 364<353.131 587.338>
VStem: 88 285<641.383 956.385> 291 360<1244.3 1481.73> 605 305<140.39 498.484>
LayerCount: 2
Fore
SplineSet
360 0 m 2,0,1
 20 0 20 0 20 287 c 1,2,-1
 325 430 l 1,3,-1
 335 430 l 1,4,-1
 335 171 l 2,5,6
 335 140 335 140 375 140 c 2,7,-1
 565 140 l 2,8,9
 605 140 605 140 605 171 c 2,10,-1
 605 467 l 2,11,12
 605 499 605 499 565 499 c 2,13,-1
 388 499 l 2,14,15
 88 499 88 499 88 787 c 2,16,-1
 88 822 l 2,17,18
 88 1100 88 1100 388 1100 c 2,19,-1
 556 1100 l 2,20,21
 828 1100 828 1100 852 863 c 1,22,-1
 579 733 l 1,23,-1
 569 733 l 1,24,-1
 569 934 l 2,25,26
 569 960 569 960 529 960 c 2,27,-1
 413 960 l 2,28,29
 373 960 373 960 373 931 c 2,30,-1
 373 669 l 2,31,32
 373 639 373 639 413 639 c 2,33,-1
 566 639 l 2,34,35
 910 639 910 639 910 367 c 2,36,-1
 910 311 l 2,37,38
 910 0 910 0 570 0 c 2,39,-1
 360 0 l 2,0,1
471 1544 m 0,40,41
 547 1544 547 1544 599 1491 c 128,-1,42
 651 1438 651 1438 651 1363 c 0,43,44
 651 1289 651 1289 598 1234 c 0,45,46
 546 1180 546 1180 471 1180 c 0,47,48
 394 1180 394 1180 342.5 1234 c 128,-1,49
 291 1288 291 1288 291 1362 c 0,50,51
 291 1438 291 1438 343 1490 c 0,52,53
 396 1544 396 1544 471 1544 c 0,40,41
EndSplineSet
Validated: 1
EndChar

StartChar: Wgrave
Encoding: 7808 7808 186
Width: 2220
Flags: W
HStem: 0 150<465.217 946.172 1273.83 1754.78> 1510 20G<407.823 460 1217.82 1270 2027.82 2080>
VStem: 140 320<171.538 1383> 950 320<154.438 1383> 1760 320<171.538 1383>
DStem2: 1090 1980 900 1895 0.429396 -0.903116<0 356.108>
CounterMasks: 1 38
LayerCount: 2
Fore
SplineSet
550 0 m 2,0,1
 140 0 140 0 140 380 c 2,2,-1
 140 1383 l 1,3,-1
 450 1530 l 1,4,-1
 460 1530 l 1,5,-1
 460 221 l 2,6,7
 460 150 460 150 540 150 c 2,8,-1
 870 150 l 2,9,10
 950 150 950 150 950 221 c 2,11,-1
 950 1383 l 1,12,-1
 1260 1530 l 1,13,-1
 1270 1530 l 1,14,-1
 1270 221 l 2,15,16
 1270 150 1270 150 1350 150 c 2,17,-1
 1680 150 l 2,18,19
 1760 150 1760 150 1760 221 c 2,20,-1
 1760 1383 l 1,21,-1
 2070 1530 l 1,22,-1
 2080 1530 l 1,23,-1
 2080 380 l 2,24,25
 2080 0 2080 0 1670 0 c 2,26,-1
 1360 0 l 2,27,28
 1206 0 1206 0 1110 54 c 1,29,30
 1014 0 1014 0 860 0 c 2,31,-1
 550 0 l 2,0,1
1080 1980 m 1,32,-1
 1090 1980 l 1,33,-1
 1245 1654 l 1,34,-1
 1067 1570 l 1,35,-1
 1057 1570 l 1,36,-1
 900 1895 l 1,37,-1
 1080 1980 l 1,32,-1
EndSplineSet
Validated: 1
EndChar

StartChar: wgrave
Encoding: 7809 7809 187
Width: 1880
Flags: W
HStem: 0 140<448.872 788.065 1091.94 1431.13> 1100 20G<387.971 440 1037.97 1090 1687.97 1740>
VStem: 140 300<145.105 982> 790 300<140 982> 1440 300<145.105 982>
DStem2: 909 1570 719 1485 0.429396 -0.903116<0 356.108>
CounterMasks: 1 38
LayerCount: 2
Fore
SplineSet
480 0 m 2,0,1
 140 0 140 0 140 307 c 2,2,-1
 140 982 l 1,3,-1
 430 1120 l 1,4,-1
 440 1120 l 1,5,-1
 440 175 l 2,6,7
 440 140 440 140 480 140 c 2,8,-1
 750 140 l 2,9,10
 790 140 790 140 790 175 c 2,11,-1
 790 982 l 1,12,-1
 1080 1120 l 1,13,-1
 1090 1120 l 1,14,-1
 1090 175 l 2,15,16
 1090 140 1090 140 1130 140 c 2,17,-1
 1400 140 l 2,18,19
 1440 140 1440 140 1440 175 c 2,20,-1
 1440 982 l 1,21,-1
 1730 1120 l 1,22,-1
 1740 1120 l 1,23,-1
 1740 307 l 2,24,25
 1740 0 1740 0 1400 0 c 2,26,-1
 1130 0 l 2,27,28
 1016 0 1016 0 940 35 c 1,29,30
 864 0 864 0 750 0 c 2,31,-1
 480 0 l 2,0,1
899 1570 m 1,32,-1
 909 1570 l 1,33,-1
 1064 1244 l 1,34,-1
 886 1160 l 1,35,-1
 876 1160 l 1,36,-1
 719 1485 l 1,37,-1
 899 1570 l 1,32,-1
EndSplineSet
Validated: 1
EndChar

StartChar: Wacute
Encoding: 7810 7810 188
Width: 2220
Flags: W
HStem: 0 150<465.217 946.172 1273.83 1754.78> 1510 20G<407.823 460 1217.82 1270 2027.82 2080>
VStem: 140 320<171.538 1383> 950 320<154.438 1383> 1760 320<171.538 1383>
DStem2: 946 1654 1134 1570 0.429396 0.903116<4.86464 360.972>
CounterMasks: 1 38
LayerCount: 2
Fore
SplineSet
550 0 m 2,0,1
 140 0 140 0 140 380 c 2,2,-1
 140 1383 l 1,3,-1
 450 1530 l 1,4,-1
 460 1530 l 1,5,-1
 460 221 l 2,6,7
 460 150 460 150 540 150 c 2,8,-1
 870 150 l 2,9,10
 950 150 950 150 950 221 c 2,11,-1
 950 1383 l 1,12,-1
 1260 1530 l 1,13,-1
 1270 1530 l 1,14,-1
 1270 221 l 2,15,16
 1270 150 1270 150 1350 150 c 2,17,-1
 1680 150 l 2,18,19
 1760 150 1760 150 1760 221 c 2,20,-1
 1760 1383 l 1,21,-1
 2070 1530 l 1,22,-1
 2080 1530 l 1,23,-1
 2080 380 l 2,24,25
 2080 0 2080 0 1670 0 c 2,26,-1
 1360 0 l 2,27,28
 1206 0 1206 0 1110 54 c 1,29,30
 1014 0 1014 0 860 0 c 2,31,-1
 550 0 l 2,0,1
1111 1980 m 1,32,-1
 1291 1895 l 1,33,-1
 1134 1570 l 1,34,-1
 1124 1570 l 1,35,-1
 946 1654 l 1,36,-1
 1101 1980 l 1,37,-1
 1111 1980 l 1,32,-1
EndSplineSet
Validated: 1
EndChar

StartChar: wacute
Encoding: 7811 7811 189
Width: 1880
Flags: W
HStem: 0 140<448.872 788.065 1091.94 1431.13> 1100 20G<387.971 440 1037.97 1090 1687.97 1740>
VStem: 140 300<145.105 982> 790 300<140 982> 1440 300<145.105 982>
DStem2: 766 1244 954 1160 0.429396 0.903116<4.86464 360.972>
CounterMasks: 1 38
LayerCount: 2
Fore
SplineSet
480 0 m 2,0,1
 140 0 140 0 140 307 c 2,2,-1
 140 982 l 1,3,-1
 430 1120 l 1,4,-1
 440 1120 l 1,5,-1
 440 175 l 2,6,7
 440 140 440 140 480 140 c 2,8,-1
 750 140 l 2,9,10
 790 140 790 140 790 175 c 2,11,-1
 790 982 l 1,12,-1
 1080 1120 l 1,13,-1
 1090 1120 l 1,14,-1
 1090 175 l 2,15,16
 1090 140 1090 140 1130 140 c 2,17,-1
 1400 140 l 2,18,19
 1440 140 1440 140 1440 175 c 2,20,-1
 1440 982 l 1,21,-1
 1730 1120 l 1,22,-1
 1740 1120 l 1,23,-1
 1740 307 l 2,24,25
 1740 0 1740 0 1400 0 c 2,26,-1
 1130 0 l 2,27,28
 1016 0 1016 0 940 35 c 1,29,30
 864 0 864 0 750 0 c 2,31,-1
 480 0 l 2,0,1
931 1570 m 1,32,-1
 1111 1485 l 1,33,-1
 954 1160 l 1,34,-1
 944 1160 l 1,35,-1
 766 1244 l 1,36,-1
 921 1570 l 1,37,-1
 931 1570 l 1,32,-1
EndSplineSet
Validated: 1
EndChar

StartChar: Wdieresis
Encoding: 7812 7812 190
Width: 2220
Flags: W
HStem: 0 150<465.217 946.172 1273.83 1754.78> 1510 20G<407.823 460 1217.82 1270 2027.82 2080> 1620 297<821.833 1025.65 1159.83 1364.17>
VStem: 140 320<171.538 1383> 778 292<1665.38 1871.62> 950 320<154.438 1383> 1116 292<1665.38 1871.62> 1760 320<171.538 1383>
LayerCount: 2
Fore
SplineSet
550 0 m 2,0,1
 140 0 140 0 140 380 c 2,2,-1
 140 1383 l 1,3,-1
 450 1530 l 1,4,-1
 460 1530 l 1,5,-1
 460 221 l 2,6,7
 460 150 460 150 540 150 c 2,8,-1
 870 150 l 2,9,10
 950 150 950 150 950 221 c 2,11,-1
 950 1383 l 1,12,-1
 1260 1530 l 1,13,-1
 1270 1530 l 1,14,-1
 1270 221 l 2,15,16
 1270 150 1270 150 1350 150 c 2,17,-1
 1680 150 l 2,18,19
 1760 150 1760 150 1760 221 c 2,20,-1
 1760 1383 l 1,21,-1
 2070 1530 l 1,22,-1
 2080 1530 l 1,23,-1
 2080 380 l 2,24,25
 2080 0 2080 0 1670 0 c 2,26,-1
 1360 0 l 2,27,28
 1206 0 1206 0 1110 54 c 1,29,30
 1014 0 1014 0 860 0 c 2,31,-1
 550 0 l 2,0,1
1262.5 1917 m 128,-1,33
 1323 1917 1323 1917 1365.5 1873 c 128,-1,34
 1408 1829 1408 1829 1408 1768.5 c 128,-1,35
 1408 1708 1408 1708 1365.5 1664 c 128,-1,36
 1323 1620 1323 1620 1262 1620 c 128,-1,37
 1201 1620 1201 1620 1158.5 1664 c 128,-1,38
 1116 1708 1116 1708 1116 1768 c 0,39,40
 1116 1829 1116 1829 1159 1872 c 0,41,32
 1202 1917 1202 1917 1262.5 1917 c 128,-1,33
923.5 1917 m 128,-1,43
 984 1917 984 1917 1027 1873 c 128,-1,44
 1070 1829 1070 1829 1070 1768.5 c 128,-1,45
 1070 1708 1070 1708 1027 1664 c 128,-1,46
 984 1620 984 1620 924 1620 c 0,47,48
 863 1620 863 1620 820.5 1664 c 128,-1,49
 778 1708 778 1708 778 1768 c 0,50,51
 778 1829 778 1829 820 1872 c 0,52,42
 863 1917 863 1917 923.5 1917 c 128,-1,43
EndSplineSet
Validated: 1
EndChar

StartChar: wdieresis
Encoding: 7813 7813 191
Width: 1880
Flags: W
HStem: 0 140<448.872 788.065 1091.94 1431.13> 1100 20G<387.971 440 1037.97 1090 1687.97 1740> 1210 297<657.833 861.652 995.833 1200.17>
VStem: 140 300<145.105 982> 614 292<1255.38 1461.62> 790 300<140 982> 952 292<1255.38 1461.62> 1440 300<145.105 982>
LayerCount: 2
Fore
SplineSet
480 0 m 2,0,1
 140 0 140 0 140 307 c 2,2,-1
 140 982 l 1,3,-1
 430 1120 l 1,4,-1
 440 1120 l 1,5,-1
 440 175 l 2,6,7
 440 140 440 140 480 140 c 2,8,-1
 750 140 l 2,9,10
 790 140 790 140 790 175 c 2,11,-1
 790 982 l 1,12,-1
 1080 1120 l 1,13,-1
 1090 1120 l 1,14,-1
 1090 175 l 2,15,16
 1090 140 1090 140 1130 140 c 2,17,-1
 1400 140 l 2,18,19
 1440 140 1440 140 1440 175 c 2,20,-1
 1440 982 l 1,21,-1
 1730 1120 l 1,22,-1
 1740 1120 l 1,23,-1
 1740 307 l 2,24,25
 1740 0 1740 0 1400 0 c 2,26,-1
 1130 0 l 2,27,28
 1016 0 1016 0 940 35 c 1,29,30
 864 0 864 0 750 0 c 2,31,-1
 480 0 l 2,0,1
1098.5 1507 m 128,-1,33
 1159 1507 1159 1507 1201.5 1463 c 128,-1,34
 1244 1419 1244 1419 1244 1358.5 c 128,-1,35
 1244 1298 1244 1298 1201.5 1254 c 128,-1,36
 1159 1210 1159 1210 1098 1210 c 128,-1,37
 1037 1210 1037 1210 994.5 1254 c 128,-1,38
 952 1298 952 1298 952 1358 c 0,39,40
 952 1419 952 1419 995 1462 c 0,41,32
 1038 1507 1038 1507 1098.5 1507 c 128,-1,33
759.5 1507 m 128,-1,43
 820 1507 820 1507 863 1463 c 128,-1,44
 906 1419 906 1419 906 1358.5 c 128,-1,45
 906 1298 906 1298 863 1254 c 128,-1,46
 820 1210 820 1210 760 1210 c 0,47,48
 699 1210 699 1210 656.5 1254 c 128,-1,49
 614 1298 614 1298 614 1358 c 0,50,51
 614 1419 614 1419 656 1462 c 0,52,42
 699 1507 699 1507 759.5 1507 c 128,-1,43
EndSplineSet
Validated: 1
EndChar

StartChar: Ygrave
Encoding: 7922 7922 192
Width: 1250
Flags: W
HStem: -20 21G<465 517.177> 417 150<407.194 465 785 842.806> 1510 20G<347.823 400 1117.82 1170>
VStem: 80 320<593.388 1383> 465 320<127 417> 850 320<593.388 1383>
DStem2: 678 1980 488 1895 0.429396 -0.903116<0 356.108>
CounterMasks: 1 1c
LayerCount: 2
Fore
SplineSet
475 -20 m 1,0,-1
 465 -20 l 1,1,-1
 465 417 l 1,2,3
 80 428 80 428 80 797 c 2,4,-1
 80 1383 l 1,5,-1
 390 1530 l 1,6,-1
 400 1530 l 1,7,-1
 400 638 l 2,8,9
 400 567 400 567 480 567 c 2,10,-1
 770 567 l 2,11,12
 850 567 850 567 850 638 c 2,13,-1
 850 1383 l 1,14,-1
 1160 1530 l 1,15,-1
 1170 1530 l 1,16,-1
 1170 797 l 2,17,18
 1170 428 1170 428 785 417 c 1,19,-1
 785 127 l 1,20,-1
 475 -20 l 1,0,-1
668 1980 m 1,21,-1
 678 1980 l 1,22,-1
 833 1654 l 1,23,-1
 655 1570 l 1,24,-1
 645 1570 l 1,25,-1
 488 1895 l 1,26,-1
 668 1980 l 1,21,-1
EndSplineSet
Validated: 1
EndChar

StartChar: ygrave
Encoding: 7923 7923 193
Width: 1250
Flags: W
HStem: -410 140<342 781.128> 0 140<448.872 789.375> 1100 20G<387.971 440 1037.97 1090>
VStem: 140 300<145.105 982> 790 300<-264.895 6 140 982>
DStem2: 649 1570 459 1485 0.429396 -0.903116<0 356.108>
LayerCount: 2
Fore
SplineSet
480 0 m 2,0,1
 140 0 140 0 140 307 c 2,2,-1
 140 982 l 1,3,-1
 430 1120 l 1,4,-1
 440 1120 l 1,5,-1
 440 175 l 2,6,7
 440 140 440 140 480 140 c 2,8,-1
 750 140 l 2,9,10
 790 140 790 140 790 175 c 2,11,-1
 790 982 l 1,12,-1
 1080 1120 l 1,13,-1
 1090 1120 l 1,14,-1
 1090 -103 l 2,15,16
 1090 -410 1090 -410 750 -410 c 2,17,-1
 280 -410 l 1,18,-1
 280 -400 l 1,19,-1
 342 -270 l 1,20,-1
 750 -270 l 2,21,22
 790 -270 790 -270 790 -235 c 2,23,-1
 790 6 l 1,24,25
 770 0 770 0 750 0 c 2,26,-1
 480 0 l 2,0,1
639 1570 m 1,27,-1
 649 1570 l 1,28,-1
 804 1244 l 1,29,-1
 626 1160 l 1,30,-1
 616 1160 l 1,31,-1
 459 1485 l 1,32,-1
 639 1570 l 1,27,-1
EndSplineSet
Validated: 1
EndChar

StartChar: AE
Encoding: 198 198 194
Width: 1728
Flags: W
HStem: -20 21G<140 192.177> 0 150<1108 1651> 680 150<460 788 1108 1601> 1360 150<465.217 788 1108 1601>
VStem: 140 320<127 680 830 1338.46> 788 320<150 680 830 1360>
LayerCount: 2
Fore
SplineSet
1651 0 m 1,0,-1
 788 0 l 1,1,-1
 788 680 l 1,2,-1
 460 680 l 1,3,-1
 460 127 l 1,4,-1
 150 -20 l 1,5,-1
 140 -20 l 1,6,-1
 140 1130 l 2,7,8
 140 1510 140 1510 550 1510 c 2,9,-1
 1668 1510 l 1,10,-1
 1668 1500 l 1,11,-1
 1601 1360 l 1,12,-1
 1108 1360 l 1,13,-1
 1108 830 l 1,14,-1
 1668 830 l 1,15,-1
 1668 820 l 1,16,-1
 1601 680 l 1,17,-1
 1108 680 l 1,18,-1
 1108 150 l 1,19,-1
 1718 150 l 1,20,-1
 1718 140 l 1,21,-1
 1651 0 l 1,0,-1
788 1360 m 1,22,-1
 540 1360 l 2,23,24
 460 1360 460 1360 460 1289 c 2,25,-1
 460 830 l 1,26,-1
 788 830 l 1,27,-1
 788 1360 l 1,22,-1
EndSplineSet
Validated: 1
EndChar

StartChar: Eth
Encoding: 208 208 195
Width: 1390
Flags: W
HStem: 0 150<480 933.271> 680 150<67 160 480 738> 1360 150<480 933.271>
VStem: 160 320<150 680 830 1360> 940 330<171.538 1338.46>
CounterMasks: 1 e0
LayerCount: 2
Fore
SplineSet
160 0 m 1,0,-1
 160 680 l 1,1,-1
 0 680 l 1,2,-1
 0 690 l 1,3,-1
 67 830 l 1,4,-1
 160 830 l 1,5,-1
 160 1383 l 1,6,-1
 428 1510 l 1,7,-1
 860 1510 l 2,8,9
 1270 1510 1270 1510 1270 1130 c 2,10,-1
 1270 380 l 2,11,12
 1270 0 1270 0 860 0 c 2,13,-1
 160 0 l 1,0,-1
480 150 m 1,14,-1
 860 150 l 2,15,16
 940 150 940 150 940 221 c 2,17,-1
 940 1289 l 2,18,19
 940 1360 940 1360 860 1360 c 2,20,-1
 480 1360 l 1,21,-1
 480 830 l 1,22,-1
 805 830 l 1,23,-1
 805 820 l 1,24,-1
 738 680 l 1,25,-1
 480 680 l 1,26,-1
 480 150 l 1,14,-1
EndSplineSet
Validated: 1
EndChar

StartChar: Dcroat
Encoding: 272 272 196
Width: 1390
Flags: W
HStem: 0 150<480 933.271> 680 150<67 160 480 738> 1360 150<480 933.271>
VStem: 160 320<150 680 830 1360> 940 330<171.538 1338.46>
CounterMasks: 1 e0
LayerCount: 2
Fore
SplineSet
160 0 m 5,0,-1
 160 680 l 5,1,-1
 0 680 l 5,2,-1
 0 690 l 5,3,-1
 67 830 l 5,4,-1
 160 830 l 5,5,-1
 160 1383 l 5,6,-1
 428 1510 l 5,7,-1
 860 1510 l 6,8,9
 1270 1510 1270 1510 1270 1130 c 6,10,-1
 1270 380 l 6,11,12
 1270 0 1270 0 860 0 c 6,13,-1
 160 0 l 5,0,-1
480 150 m 5,14,-1
 860 150 l 6,15,16
 940 150 940 150 940 221 c 6,17,-1
 940 1289 l 6,18,19
 940 1360 940 1360 860 1360 c 6,20,-1
 480 1360 l 5,21,-1
 480 830 l 5,22,-1
 805 830 l 5,23,-1
 805 820 l 5,24,-1
 738 680 l 5,25,-1
 480 680 l 5,26,-1
 480 150 l 5,14,-1
EndSplineSet
Validated: 1
EndChar

StartChar: Hbar
Encoding: 294 294 197
Width: 1440
Flags: W
HStem: -20 21G<160 212.177 960 1012.18> 680 150<480 960> 1212 150<97 160 480 960 1280 1343> 1510 20G<427.823 480 1227.82 1280>
VStem: 160 320<127 680 830 1212 1362 1383> 960 320<127 680 830 1212 1362 1383>
LayerCount: 2
Fore
SplineSet
170 -20 m 1,0,-1
 160 -20 l 1,1,-1
 160 1212 l 1,2,-1
 30 1212 l 1,3,-1
 30 1222 l 1,4,-1
 97 1362 l 1,5,-1
 160 1362 l 1,6,-1
 160 1383 l 1,7,-1
 470 1530 l 1,8,-1
 480 1530 l 1,9,-1
 480 1362 l 1,10,-1
 960 1362 l 1,11,-1
 960 1383 l 1,12,-1
 1270 1530 l 1,13,-1
 1280 1530 l 1,14,-1
 1280 1362 l 1,15,-1
 1410 1362 l 1,16,-1
 1410 1352 l 1,17,-1
 1343 1212 l 1,18,-1
 1280 1212 l 1,19,-1
 1280 127 l 1,20,-1
 970 -20 l 1,21,-1
 960 -20 l 1,22,-1
 960 680 l 1,23,-1
 480 680 l 1,24,-1
 480 127 l 1,25,-1
 170 -20 l 1,0,-1
480 1212 m 1,26,-1
 480 830 l 1,27,-1
 960 830 l 1,28,-1
 960 1212 l 1,29,-1
 480 1212 l 1,26,-1
EndSplineSet
Validated: 1
EndChar

StartChar: IJ
Encoding: 306 306 198
Width: 1831
Flags: W
HStem: -20 21G<160 212.177> 0 150<1009.44 1385.78> 1360 150<813 1391> 1510 20G<427.823 480>
VStem: 160 320<127 1383> 661 335<175.601 389> 1391 320<171.538 1360>
LayerCount: 2
Fore
SplineSet
1301 0 m 2,0,-1
 1071 0 l 2,1,2
 661 0 661 0 661 389 c 1,3,-1
 986 542 l 1,4,-1
 996 542 l 1,5,-1
 996 221 l 2,6,7
 996 150 996 150 1076 150 c 2,8,-1
 1311 150 l 2,9,10
 1391 150 1391 150 1391 221 c 2,11,-1
 1391 1360 l 1,12,-1
 746 1360 l 1,13,-1
 746 1370 l 1,14,-1
 813 1510 l 1,15,-1
 1711 1510 l 1,16,-1
 1711 380 l 2,17,18
 1711 0 1711 0 1301 0 c 2,0,-1
170 -20 m 1,19,-1
 160 -20 l 1,20,-1
 160 1383 l 1,21,-1
 470 1530 l 1,22,-1
 480 1530 l 1,23,-1
 480 127 l 1,24,-1
 170 -20 l 1,19,-1
EndSplineSet
Validated: 1
EndChar

StartChar: lslash
Encoding: 322 322 199
Width: 766
Flags: W
HStem: -20 21G<233 285.029> 1510 20G<480.971 533>
VStem: 233 300<118 629 926 1392>
DStem2: 50 701 54 546 0.906672 0.421835<0 135.549 532.836 668.385>
LayerCount: 2
Fore
SplineSet
243 -20 m 1,0,-1
 233 -20 l 1,1,-1
 233 629 l 1,2,-1
 54 546 l 1,3,-1
 50 555 l 1,4,-1
 50 701 l 1,5,-1
 233 786 l 1,6,-1
 233 1392 l 1,7,-1
 523 1530 l 1,8,-1
 533 1530 l 1,9,-1
 533 926 l 1,10,-1
 712 1009 l 1,11,-1
 716 1000 l 1,12,-1
 716 854 l 1,13,-1
 533 769 l 1,14,-1
 533 118 l 1,15,-1
 243 -20 l 1,0,-1
EndSplineSet
Validated: 1
EndChar

StartChar: Lslash
Encoding: 321 321 200
Width: 1100
Flags: W
HStem: 0 150<480 1023> 1510 20G<427.534 480>
VStem: 160 320<150 573 887 1384>
DStem2: 80 701 160 573 0.906672 0.421835<0 18.5388 441.13 665.01>
LayerCount: 2
Fore
SplineSet
160 0 m 1,0,-1
 160 573 l 1,1,-1
 84 538 l 1,2,-1
 80 547 l 1,3,-1
 80 701 l 1,4,-1
 160 738 l 1,5,-1
 160 1384 l 1,6,-1
 470 1530 l 1,7,-1
 480 1530 l 1,8,-1
 480 887 l 1,9,-1
 742 1009 l 1,10,-1
 746 1000 l 1,11,-1
 746 846 l 1,12,-1
 480 722 l 1,13,-1
 480 150 l 1,14,-1
 1090 150 l 1,15,-1
 1090 140 l 1,16,-1
 1023 0 l 1,17,-1
 160 0 l 1,0,-1
EndSplineSet
Validated: 1
EndChar

StartChar: Eng
Encoding: 330 330 201
Width: 1410
Flags: W
HStem: -410 150<713 944.783> -20 21G<140 192.177> 1360 150<465.217 944.783>
VStem: 140 320<127 1338.46> 950 320<-238.462 1338.46>
LayerCount: 2
Fore
SplineSet
150 -20 m 1,0,-1
 140 -20 l 1,1,-1
 140 1130 l 2,2,3
 140 1510 140 1510 550 1510 c 2,4,-1
 860 1510 l 2,5,6
 1270 1510 1270 1510 1270 1130 c 2,7,-1
 1270 -30 l 2,8,9
 1270 -410 1270 -410 860 -410 c 2,10,-1
 646 -410 l 1,11,-1
 646 -400 l 1,12,-1
 713 -260 l 1,13,-1
 870 -260 l 2,14,15
 950 -260 950 -260 950 -189 c 2,16,-1
 950 1289 l 2,17,18
 950 1360 950 1360 870 1360 c 2,19,-1
 540 1360 l 2,20,21
 460 1360 460 1360 460 1289 c 2,22,-1
 460 127 l 1,23,-1
 150 -20 l 1,0,-1
EndSplineSet
Validated: 1
EndChar

StartChar: OE
Encoding: 338 338 202
Width: 1714
Flags: W
HStem: 0 150<445.217 774 1094 1637> 680 150<1094 1587> 1360 150<445.217 774 1094 1587>
VStem: 120 320<171.538 1338.46> 774 320<150 680 830 1360>
CounterMasks: 1 e0
LayerCount: 2
Fore
SplineSet
774 150 m 1,0,-1
 774 1360 l 1,1,-1
 520 1360 l 2,2,3
 440 1360 440 1360 440 1289 c 2,4,-1
 440 221 l 2,5,6
 440 150 440 150 520 150 c 2,7,-1
 774 150 l 1,0,-1
530 0 m 2,8,9
 120 0 120 0 120 380 c 2,10,-1
 120 1130 l 2,11,12
 120 1510 120 1510 530 1510 c 2,13,-1
 1654 1510 l 1,14,-1
 1654 1500 l 1,15,-1
 1587 1360 l 1,16,-1
 1094 1360 l 1,17,-1
 1094 830 l 1,18,-1
 1654 830 l 1,19,-1
 1654 820 l 1,20,-1
 1587 680 l 1,21,-1
 1094 680 l 1,22,-1
 1094 150 l 1,23,-1
 1704 150 l 1,24,-1
 1704 140 l 1,25,-1
 1637 0 l 1,26,-1
 530 0 l 2,8,9
EndSplineSet
Validated: 1
EndChar

StartChar: Thorn
Encoding: 222 222 203
Width: 1250
Flags: W
HStem: -20 21G<160 212.177> 220 150<480 873.271> 1140 150<480 873.271> 1510 20G<427.823 480>
VStem: 160 320<127 220 370 1140 1290 1383> 880 330<395.149 1114.85>
LayerCount: 2
Fore
SplineSet
480 370 m 1,0,-1
 800 370 l 2,1,2
 880 370 880 370 880 441 c 2,3,-1
 880 1069 l 2,4,5
 880 1140 880 1140 800 1140 c 2,6,-1
 480 1140 l 1,7,-1
 480 370 l 1,0,-1
170 -20 m 1,8,-1
 160 -20 l 1,9,-1
 160 1383 l 1,10,-1
 470 1530 l 1,11,-1
 480 1530 l 1,12,-1
 480 1290 l 1,13,-1
 800 1290 l 2,14,15
 1210 1290 1210 1290 1210 902 c 2,16,-1
 1210 608 l 2,17,18
 1210 220 1210 220 800 220 c 2,19,-1
 480 220 l 1,20,-1
 480 127 l 1,21,-1
 170 -20 l 1,8,-1
EndSplineSet
Validated: 1
EndChar

StartChar: Tbar
Encoding: 358 358 204
Width: 1190
Flags: W
HStem: -20 21G<435 487.466> 431 150<307 435 755 883> 1360 150<77 435 755 1113>
VStem: 435 320<126 431 581 1360>
LayerCount: 2
Fore
SplineSet
445 -20 m 1,0,-1
 435 -20 l 1,1,-1
 435 431 l 1,2,-1
 240 431 l 1,3,-1
 240 441 l 1,4,-1
 307 581 l 1,5,-1
 435 581 l 1,6,-1
 435 1360 l 1,7,-1
 10 1360 l 1,8,-1
 10 1370 l 1,9,-1
 77 1510 l 1,10,-1
 1180 1510 l 1,11,-1
 1180 1500 l 1,12,-1
 1113 1360 l 1,13,-1
 755 1360 l 1,14,-1
 755 581 l 1,15,-1
 950 581 l 1,16,-1
 950 571 l 1,17,-1
 883 431 l 1,18,-1
 755 431 l 1,19,-1
 755 126 l 1,20,-1
 445 -20 l 1,0,-1
EndSplineSet
Validated: 1
EndChar

StartChar: tbar
Encoding: 359 359 205
Width: 890
Flags: W
HStem: -20 21G<300 351.985> 436 140<157 300 585 733> 960 140<72 300 585 818> 1510 20G<533.015 585>
VStem: 300 285<111 436 576 960 1100 1399>
LayerCount: 2
Fore
SplineSet
310 -20 m 1,0,-1
 300 -20 l 1,1,-1
 300 436 l 1,2,-1
 95 436 l 1,3,-1
 95 446 l 1,4,-1
 157 576 l 1,5,-1
 300 576 l 1,6,-1
 300 960 l 1,7,-1
 10 960 l 1,8,-1
 10 970 l 1,9,-1
 72 1100 l 1,10,-1
 300 1100 l 1,11,-1
 300 1399 l 1,12,-1
 575 1530 l 1,13,-1
 585 1530 l 1,14,-1
 585 1100 l 1,15,-1
 880 1100 l 1,16,-1
 880 1090 l 1,17,-1
 818 960 l 1,18,-1
 585 960 l 1,19,-1
 585 576 l 1,20,-1
 795 576 l 1,21,-1
 795 566 l 1,22,-1
 733 436 l 1,23,-1
 585 436 l 1,24,-1
 585 111 l 1,25,-1
 310 -20 l 1,0,-1
EndSplineSet
Validated: 1
EndChar

StartChar: thorn
Encoding: 254 254 206
Width: 1230
Flags: W
HStem: -430 21G<160 212.029> 0 140<460.625 790.918> 960 140<460.625 790.918> 1510 20G<407.971 460>
VStem: 160 300<-292 6 140 960 1094 1392> 800 310<145.105 954.895>
LayerCount: 2
Fore
SplineSet
500 960 m 2,0,1
 460 960 460 960 460 925 c 2,2,-1
 460 175 l 2,3,4
 460 140 460 140 500 140 c 2,5,-1
 760 140 l 2,6,7
 800 140 800 140 800 175 c 2,8,-1
 800 925 l 2,9,10
 800 960 800 960 760 960 c 2,11,-1
 500 960 l 2,0,1
770 0 m 2,12,-1
 500 0 l 2,13,14
 480 0 480 0 460 6 c 1,15,-1
 460 -292 l 1,16,-1
 170 -430 l 1,17,-1
 160 -430 l 1,18,-1
 160 1392 l 1,19,-1
 450 1530 l 1,20,-1
 460 1530 l 1,21,-1
 460 1094 l 1,22,23
 480 1100 480 1100 500 1100 c 2,24,-1
 770 1100 l 2,25,26
 1110 1100 1110 1100 1110 793 c 2,27,-1
 1110 307 l 2,28,29
 1110 0 1110 0 770 0 c 2,12,-1
EndSplineSet
Validated: 1
EndChar

StartChar: eth
Encoding: 240 240 207
Width: 1190
Flags: W
HStem: 0 140<439.082 750.918> 960 140<439.082 655> 1510 20G<470.955 541.351 777.907 825>
VStem: 120 310<145.105 954.895> 760 310<145.105 957.656>
DStem2: 322 1298 326 1143 0.906786 0.421592<0 109.165 365.093 488.576>
LayerCount: 2
Fore
SplineSet
730 0 m 2,0,-1
 460 0 l 2,1,2
 120 0 120 0 120 307 c 2,3,-1
 120 793 l 2,4,5
 120 1100 120 1100 460 1100 c 2,6,-1
 655 1100 l 1,7,-1
 525 1236 l 1,8,-1
 326 1143 l 1,9,-1
 322 1152 l 1,10,-1
 322 1298 l 1,11,-1
 421 1344 l 1,12,-1
 328 1442 l 1,13,-1
 513 1530 l 1,14,-1
 523 1530 l 1,15,-1
 612 1433 l 1,16,-1
 821 1530 l 1,17,-1
 825 1521 l 1,18,-1
 825 1375 l 1,19,-1
 713 1323 l 1,20,-1
 994 1015 l 2,21,22
 1070 932 1070 932 1070 793 c 2,23,-1
 1070 307 l 2,24,25
 1070 0 1070 0 730 0 c 2,0,-1
720 140 m 2,26,27
 760 140 760 140 760 175 c 2,28,-1
 760 925 l 2,29,30
 760 960 760 960 720 960 c 2,31,-1
 470 960 l 2,32,33
 430 960 430 960 430 925 c 2,34,-1
 430 175 l 2,35,36
 430 140 430 140 470 140 c 2,37,-1
 720 140 l 2,26,27
EndSplineSet
Validated: 1
EndChar

StartChar: oe
Encoding: 339 339 208
Width: 1777
Flags: W
HStem: 0 140<439.082 758.597 1057.3 1337.92> 960 140<439.082 758.597 1057.3 1337.92>
VStem: 120 310<145.105 954.895> 760 297<140 357 516 960> 1342 315<145.105 320 654 954.895>
DStem2: 1057 516 1057 357 0.90386 0.427827<0 321.16>
LayerCount: 2
Fore
SplineSet
720 140 m 2,0,1
 760 140 760 140 760 175 c 2,2,-1
 760 925 l 2,3,4
 760 960 760 960 720 960 c 2,5,-1
 470 960 l 2,6,7
 430 960 430 960 430 925 c 2,8,-1
 430 175 l 2,9,10
 430 140 430 140 470 140 c 2,11,-1
 720 140 l 2,0,1
1057 516 m 1,12,-1
 1347 654 l 1,13,-1
 1347 925 l 2,14,15
 1347 960 1347 960 1307 960 c 2,16,-1
 1097 960 l 2,17,18
 1057 960 1057 960 1057 925 c 2,19,-1
 1057 516 l 1,12,-1
1317 0 m 2,20,-1
 1087 0 l 2,21,22
 979 0 979 0 905 31 c 1,23,24
 834 0 834 0 730 0 c 2,25,-1
 460 0 l 2,26,27
 120 0 120 0 120 307 c 2,28,-1
 120 793 l 2,29,30
 120 1100 120 1100 460 1100 c 2,31,-1
 730 1100 l 2,32,33
 834 1100 834 1100 905 1069 c 1,34,35
 979 1100 979 1100 1087 1100 c 2,36,-1
 1317 1100 l 2,37,38
 1657 1100 1657 1100 1657 793 c 2,39,-1
 1657 641 l 1,40,-1
 1057 357 l 1,41,-1
 1057 175 l 2,42,43
 1057 140 1057 140 1097 140 c 2,44,-1
 1302 140 l 2,45,46
 1342 140 1342 140 1342 175 c 2,47,-1
 1342 320 l 1,48,-1
 1647 465 l 1,49,-1
 1657 465 l 1,50,-1
 1657 307 l 2,51,52
 1657 0 1657 0 1317 0 c 2,20,-1
EndSplineSet
Validated: 1
EndChar

StartChar: eng
Encoding: 331 331 209
Width: 1230
Flags: W
HStem: -410 140<617 781.128> -20 21G<140 192.029> 960 140<448.872 781.128>
VStem: 140 300<118 954.895> 790 300<-264.895 954.895>
LayerCount: 2
Fore
SplineSet
150 -20 m 1,0,-1
 140 -20 l 1,1,-1
 140 793 l 2,2,3
 140 1100 140 1100 480 1100 c 2,4,-1
 750 1100 l 2,5,6
 1090 1100 1090 1100 1090 793 c 2,7,-1
 1090 -103 l 2,8,9
 1090 -410 1090 -410 750 -410 c 2,10,-1
 555 -410 l 1,11,-1
 555 -400 l 1,12,-1
 617 -270 l 1,13,-1
 750 -270 l 2,14,15
 790 -270 790 -270 790 -235 c 2,16,-1
 790 925 l 2,17,18
 790 960 790 960 750 960 c 2,19,-1
 480 960 l 2,20,21
 440 960 440 960 440 925 c 2,22,-1
 440 118 l 1,23,-1
 150 -20 l 1,0,-1
EndSplineSet
Validated: 1
EndChar

StartChar: kgreenlandic
Encoding: 312 312 210
Width: 1210
Flags: W
HStem: -20 21G<160 212.029 790 842.029> 677 140<716 781.128> 1100 20G<407.971 460 902.4 986.319>
VStem: 160 300<118 677 820 982> 790 300<118 671.895>
DStem2: 460 820 716 817 0.84498 0.534798<214.711 560.96>
LayerCount: 2
Fore
SplineSet
170 -20 m 1,0,-1
 160 -20 l 1,1,-1
 160 982 l 1,2,-1
 450 1120 l 1,3,-1
 460 1120 l 1,4,-1
 460 820 l 1,5,-1
 934 1120 l 1,6,-1
 944 1120 l 1,7,-1
 1090 1051 l 1,8,-1
 716 817 l 1,9,-1
 750 817 l 2,10,11
 1090 817 1090 817 1090 510 c 2,12,-1
 1090 118 l 1,13,-1
 800 -20 l 1,14,-1
 790 -20 l 1,15,-1
 790 642 l 2,16,17
 790 677 790 677 750 677 c 2,18,-1
 500 677 l 2,19,20
 460 677 460 677 460 642 c 2,21,-1
 460 118 l 1,22,-1
 170 -20 l 1,0,-1
EndSplineSet
Validated: 1
EndChar

StartChar: ij
Encoding: 307 307 211
Width: 1220
Flags: W
HStem: -410 140<587 751.128> -20 21G<160 212.029> 1100 20G<407.971 460 1007.97 1060> 1180 364<192.131 426.338 792.131 1026.34>
VStem: 130 360<1244.3 1481.73> 160 300<118 982> 730 360<1244.3 1481.73> 760 300<-264.895 982>
LayerCount: 2
Fore
SplineSet
1050 1120 m 1,0,-1
 1060 1120 l 1,1,-1
 1060 -103 l 2,2,3
 1060 -410 1060 -410 720 -410 c 2,4,-1
 525 -410 l 1,5,-1
 525 -400 l 1,6,-1
 587 -270 l 1,7,-1
 720 -270 l 2,8,9
 760 -270 760 -270 760 -235 c 2,10,-1
 760 982 l 1,11,-1
 1050 1120 l 1,0,-1
910 1544 m 0,12,13
 986 1544 986 1544 1038 1491 c 128,-1,14
 1090 1438 1090 1438 1090 1363 c 0,15,16
 1090 1289 1090 1289 1037 1234 c 0,17,18
 985 1180 985 1180 910 1180 c 0,19,20
 833 1180 833 1180 781.5 1234 c 128,-1,21
 730 1288 730 1288 730 1362 c 0,22,23
 730 1438 730 1438 782 1490 c 0,24,25
 835 1544 835 1544 910 1544 c 0,12,13
170 -20 m 1,26,-1
 160 -20 l 1,27,-1
 160 982 l 1,28,-1
 450 1120 l 1,29,-1
 460 1120 l 1,30,-1
 460 118 l 1,31,-1
 170 -20 l 1,26,-1
310 1544 m 0,32,33
 386 1544 386 1544 438 1491 c 128,-1,34
 490 1438 490 1438 490 1363 c 0,35,36
 490 1289 490 1289 437 1234 c 0,37,38
 385 1180 385 1180 310 1180 c 0,39,40
 233 1180 233 1180 181.5 1234 c 128,-1,41
 130 1288 130 1288 130 1362 c 0,42,43
 130 1438 130 1438 182 1490 c 0,44,45
 235 1544 235 1544 310 1544 c 0,32,33
EndSplineSet
Validated: 1
EndChar

StartChar: hbar
Encoding: 295 295 212
Width: 1250
Flags: W
HStem: -20 21G<160 212.029 810 862.029> 960 140<460.533 801.128> 1217 140<92 160 460 628> 1510 20G<407.971 460>
VStem: 160 300<118 960 1093 1217 1357 1392> 810 300<118 954.895>
LayerCount: 2
Fore
SplineSet
170 -20 m 1,0,-1
 160 -20 l 1,1,-1
 160 1217 l 1,2,-1
 30 1217 l 1,3,-1
 30 1227 l 1,4,-1
 92 1357 l 1,5,-1
 160 1357 l 1,6,-1
 160 1392 l 1,7,-1
 450 1530 l 1,8,-1
 460 1530 l 1,9,-1
 460 1357 l 1,10,-1
 690 1357 l 1,11,-1
 690 1347 l 1,12,-1
 628 1217 l 1,13,-1
 460 1217 l 1,14,-1
 460 1093 l 1,15,16
 477 1100 477 1100 500 1100 c 2,17,-1
 770 1100 l 2,18,19
 1110 1100 1110 1100 1110 793 c 2,20,-1
 1110 118 l 1,21,-1
 820 -20 l 1,22,-1
 810 -20 l 1,23,-1
 810 925 l 2,24,25
 810 960 810 960 770 960 c 2,26,-1
 500 960 l 2,27,28
 460 960 460 960 460 925 c 2,29,-1
 460 118 l 1,30,-1
 170 -20 l 1,0,-1
EndSplineSet
Validated: 1
EndChar

StartChar: longs
Encoding: 383 383 213
Width: 940
Flags: W
HStem: -20 21G<220 272.029> 732 140<72 220> 1370 140<528.872 868>
VStem: 220 300<118 732 872 1364.89>
LayerCount: 2
Fore
SplineSet
230 -20 m 1,0,-1
 220 -20 l 1,1,-1
 220 732 l 1,2,-1
 10 732 l 1,3,-1
 10 742 l 1,4,-1
 72 872 l 1,5,-1
 220 872 l 1,6,-1
 220 1203 l 2,7,8
 220 1510 220 1510 560 1510 c 2,9,-1
 930 1510 l 1,10,-1
 930 1500 l 1,11,-1
 868 1370 l 1,12,-1
 560 1370 l 2,13,14
 520 1370 520 1370 520 1335 c 2,15,-1
 520 118 l 1,16,-1
 230 -20 l 1,0,-1
EndSplineSet
Validated: 1
EndChar

StartChar: florin
Encoding: 402 402 214
Width: 880
Flags: W
HStem: -410 140<-13 151.128> 732 140<460 769> 1370 140<468.872 808>
VStem: 160 300<-264.895 732 872 1364.89>
LayerCount: 2
Fore
SplineSet
-75 -410 m 1,0,-1
 -75 -400 l 1,1,-1
 -13 -270 l 1,2,-1
 120 -270 l 2,3,4
 160 -270 160 -270 160 -235 c 2,5,-1
 160 1203 l 2,6,7
 160 1510 160 1510 500 1510 c 2,8,-1
 870 1510 l 1,9,-1
 870 1500 l 1,10,-1
 808 1370 l 1,11,-1
 500 1370 l 2,12,13
 460 1370 460 1370 460 1335 c 2,14,-1
 460 872 l 1,15,-1
 831 872 l 1,16,-1
 831 862 l 1,17,-1
 769 732 l 1,18,-1
 460 732 l 1,19,-1
 460 -103 l 2,20,21
 460 -410 460 -410 120 -410 c 2,22,-1
 -75 -410 l 1,0,-1
EndSplineSet
Validated: 1
EndChar

StartChar: dcroat
Encoding: 273 273 215
Width: 1210
Flags: W
HStem: 0 140<439.082 761.128> 960 140<439.082 769.375> 1217 140<602 770 1070 1108> 1510 20G<1017.97 1070>
VStem: 120 310<145.105 954.895> 770 300<145.105 960 1094 1217 1357 1392>
LayerCount: 2
Fore
SplineSet
730 140 m 2,0,1
 770 140 770 140 770 175 c 2,2,-1
 770 925 l 2,3,4
 770 960 770 960 730 960 c 2,5,-1
 470 960 l 2,6,7
 430 960 430 960 430 925 c 2,8,-1
 430 175 l 2,9,10
 430 140 430 140 470 140 c 2,11,-1
 730 140 l 2,0,1
730 0 m 2,12,-1
 460 0 l 2,13,14
 120 0 120 0 120 307 c 2,15,-1
 120 793 l 2,16,17
 120 1100 120 1100 460 1100 c 2,18,-1
 730 1100 l 2,19,20
 750 1100 750 1100 770 1094 c 1,21,-1
 770 1217 l 1,22,-1
 540 1217 l 1,23,-1
 540 1227 l 1,24,-1
 602 1357 l 1,25,-1
 770 1357 l 1,26,-1
 770 1392 l 1,27,-1
 1060 1530 l 1,28,-1
 1070 1530 l 1,29,-1
 1070 1357 l 1,30,-1
 1170 1357 l 1,31,-1
 1170 1347 l 1,32,-1
 1108 1217 l 1,33,-1
 1070 1217 l 1,34,-1
 1070 307 l 2,35,36
 1070 0 1070 0 730 0 c 2,12,-1
EndSplineSet
Validated: 1
EndChar

StartChar: germandbls
Encoding: 223 223 216
Width: 1219
Flags: W
HStem: -20 21G<140 192.029> 0 140<537 859.918> 751 140<536 789> 1370 140<448.872 781.036>
VStem: 140 300<118 1364.89> 789 300<917.822 1364.89> 869 310<145.105 746.222>
LayerCount: 2
Fore
SplineSet
839 0 m 2,0,-1
 475 0 l 17,1,-1
 475 10 l 1,2,-1
 537 140 l 9,3,-1
 829 140 l 2,4,5
 869 140 869 140 869 175 c 2,6,-1
 869 716 l 2,7,8
 869 751 869 751 829 751 c 2,9,-1
 474 751 l 17,10,-1
 474 761 l 1,11,-1
 536 891 l 1,12,-1
 749 891 l 2,13,14
 789 891 789 891 789 926 c 2,15,-1
 789 1335 l 2,16,17
 789 1370 789 1370 749 1370 c 2,18,-1
 480 1370 l 2,19,20
 440 1370 440 1370 440 1335 c 2,21,-1
 440 118 l 1,22,-1
 150 -20 l 1,23,-1
 140 -20 l 1,24,-1
 140 1203 l 2,25,26
 140 1510 140 1510 480 1510 c 2,27,-1
 750 1510 l 2,28,29
 1089 1510 1089 1510 1089 1203 c 2,30,-1
 1089 1072 l 2,31,32
 1089 974 1089 974 1050 916 c 1,33,34
 1179 843 1179 843 1179 654 c 2,35,-1
 1179 307 l 2,36,37
 1179 0 1179 0 839 0 c 2,0,-1
EndSplineSet
Validated: 1
EndChar

StartChar: ae
Encoding: 230 230 217
Width: 1661
Flags: W
HStem: -20 21G<654 706.182> 0 140<369.082 653.406 942.859 1221.92> 580 140<369.082 653.344> 960 140<256 651.465 944.062 1221.92>
VStem: 50 310<145.578 574.422> 654 287<140 357 516 580 713 960> 1226 315<145.105 320 654 954.895>
DStem2: 941 516 941 357 0.90386 0.427827<0 321.16>
LayerCount: 2
Fore
SplineSet
1201 0 m 2,0,-1
 971 0 l 2,1,2
 856 0 856 0 780 35 c 1,3,-1
 664 -20 l 1,4,-1
 654 -20 l 1,5,-1
 654 7 l 1,6,7
 635 0 635 0 614 0 c 2,8,-1
 390 0 l 2,9,10
 50 0 50 0 50 308 c 2,11,-1
 50 412 l 2,12,13
 50 720 50 720 390 720 c 2,14,-1
 614 720 l 2,15,16
 633 720 633 720 654 713 c 1,17,-1
 654 925 l 2,18,19
 654 960 654 960 624 960 c 2,20,-1
 194 960 l 1,21,-1
 194 970 l 1,22,-1
 256 1100 l 1,23,-1
 614 1100 l 2,24,25
 717 1100 717 1100 787 1068 c 1,26,27
 861 1100 861 1100 971 1100 c 2,28,-1
 1201 1100 l 2,29,30
 1541 1100 1541 1100 1541 793 c 2,31,-1
 1541 641 l 1,32,-1
 941 357 l 1,33,-1
 941 175 l 2,34,35
 941 140 941 140 981 140 c 2,36,-1
 1186 140 l 2,37,38
 1226 140 1226 140 1226 175 c 2,39,-1
 1226 320 l 1,40,-1
 1531 465 l 1,41,-1
 1541 465 l 1,42,-1
 1541 307 l 2,43,44
 1541 0 1541 0 1201 0 c 2,0,-1
360 172 m 2,45,46
 360 140 360 140 400 140 c 2,47,-1
 619 140 l 2,48,49
 659 140 659 140 659 172 c 2,50,-1
 659 548 l 2,51,52
 659 580 659 580 619 580 c 2,53,-1
 400 580 l 2,54,55
 360 580 360 580 360 548 c 2,56,-1
 360 172 l 2,45,46
941 516 m 1,57,-1
 1231 654 l 1,58,-1
 1231 925 l 2,59,60
 1231 960 1231 960 1191 960 c 2,61,-1
 981 960 l 2,62,63
 941 960 941 960 941 925 c 2,64,-1
 941 516 l 1,57,-1
EndSplineSet
Validated: 1
EndChar

StartChar: S
Encoding: 83 83 218
Width: 1160
Flags: W
HStem: 0 150<378.44 761.56> 758 151<460.852 761.56> 1370 140<460.852 699.691>
VStem: 30 335<170.635 378> 123 325<918.703 1363.57> 702 325<1179 1360.58> 775 335<172.892 736.108>
LayerCount: 2
Fore
SplineSet
700 0 m 2,0,1
 440 0 l 2,2,3
 30 0 30 0 30 378 c 1,4,-1
 355 533 l 1,5,-1
 365 533 l 1,6,-1
 365 217 l 2,7,8
 365 150 365 150 445 150 c 2,9,-1
 695 150 l 2,10,11
 775 150 775 150 775 217 c 2,12,-1
 775 691 l 2,13,14
 775 758 775 758 695 758 c 2,15,-1
 483 758 l 2,16,17
 123 758 123 758 123 1098 c 2,18,-1
 123 1170 l 2,19,20
 123 1510 123 1510 483 1510 c 2,21,-1
 667 1510 l 2,22,23
 1024 1510 1024 1510 1027 1179 c 1,24,-1
 712 1029 l 1,25,-1
 702 1029 l 1,26,-1
 702 1308 l 2,27,28
 702 1370 702 1370 622 1370 c 2,29,-1
 528 1370 l 2,30,31
 448 1370 448 1370 448 1304 c 2,32,-1
 448 975 l 2,33,34
 448 909 448 909 528 909 c 2,35,-1
 700 909 l 2,36,37
 1110 909 1110 909 1110 526 c 2,38,-1
 1110 383 l 2,39,40
 1110 0 1110 0 700 0 c 2,0,1
EndSplineSet
Validated: 1
EndChar

StartChar: s
Encoding: 115 115 219
Width: 950
Flags: W
HStem: 0 140<339.082 601.128> 499 140<378.698 597.494> 960 140<378.698 564.439>
VStem: 88 285<641.383 956.385> 605 305<140.39 498.484>
LayerCount: 2
Fore
SplineSet
360 0 m 2,0,1
 20 0 20 0 20 287 c 1,2,-1
 325 430 l 1,3,-1
 335 430 l 1,4,-1
 335 171 l 2,5,6
 335 140 335 140 375 140 c 2,7,-1
 565 140 l 2,8,9
 605 140 605 140 605 171 c 2,10,-1
 605 467 l 2,11,12
 605 499 605 499 565 499 c 2,13,-1
 388 499 l 2,14,15
 88 499 88 499 88 787 c 2,16,-1
 88 822 l 2,17,18
 88 1100 88 1100 388 1100 c 2,19,-1
 556 1100 l 2,20,21
 828 1100 828 1100 852 863 c 1,22,-1
 579 733 l 1,23,-1
 569 733 l 1,24,-1
 569 934 l 2,25,26
 569 960 569 960 529 960 c 2,27,-1
 413 960 l 2,28,29
 373 960 373 960 373 931 c 2,30,-1
 373 669 l 2,31,32
 373 639 373 639 413 639 c 2,33,-1
 566 639 l 2,34,35
 910 639 910 639 910 367 c 2,36,-1
 910 311 l 2,37,38
 910 0 910 0 570 0 c 2,39,-1
 360 0 l 2,0,1
EndSplineSet
Validated: 1
EndChar

StartChar: circumflex
Encoding: 710 710 220
Width: 642
Flags: W
HStem: 1160 410
VStem: 30 582
LayerCount: 2
Fore
SplineSet
386 1570 m 1,0,-1
 396 1570 l 1,1,-1
 612 1245 l 1,2,-1
 434 1160 l 1,3,-1
 424 1160 l 1,4,-1
 323 1322 l 1,5,-1
 218 1160 l 1,6,-1
 208 1160 l 1,7,-1
 30 1245 l 1,8,-1
 206 1484 l 1,9,-1
 386 1570 l 1,0,-1
EndSplineSet
Validated: 1
EndChar

StartChar: caron
Encoding: 711 711 221
Width: 642
Flags: W
HStem: 1160 410
VStem: 30 582
LayerCount: 2
Fore
SplineSet
208 1570 m 1,0,-1
 218 1570 l 1,1,-1
 319 1408 l 1,2,-1
 424 1570 l 1,3,-1
 434 1570 l 1,4,-1
 612 1485 l 1,5,-1
 436 1246 l 1,6,-1
 256 1160 l 1,7,-1
 246 1160 l 1,8,-1
 30 1485 l 1,9,-1
 208 1570 l 1,0,-1
EndSplineSet
Validated: 1
EndChar

StartChar: uni02C9
Encoding: 713 713 222
Width: 680
Flags: W
HStem: 1270 190<116 564>
VStem: 30 620
LayerCount: 2
Fore
SplineSet
116 1460 m 1,0,-1
 650 1460 l 1,1,-1
 650 1450 l 1,2,-1
 564 1270 l 1,3,-1
 30 1270 l 1,4,-1
 30 1280 l 1,5,-1
 116 1460 l 1,0,-1
EndSplineSet
Validated: 1
EndChar

StartChar: breve
Encoding: 728 728 223
Width: 680
Flags: W
HStem: 1240 200<172.531 507.469>
VStem: 30 620<1308.34 1346>
LayerCount: 2
Fore
SplineSet
120 1535 m 1,0,1
 190 1440 190 1440 340 1440 c 128,-1,2
 490 1440 490 1440 560 1535 c 1,3,-1
 650 1346 l 1,4,-1
 650 1336 l 1,5,6
 518 1240 518 1240 340 1240 c 128,-1,7
 162 1240 162 1240 30 1336 c 1,8,-1
 30 1346 l 1,9,-1
 120 1535 l 1,0,1
EndSplineSet
Validated: 1
EndChar

StartChar: dotaccent
Encoding: 729 729 224
Width: 420
Flags: W
HStem: 1180 364<92.1309 326.338>
VStem: 30 360<1244.3 1481.73>
LayerCount: 2
Fore
SplineSet
210 1544 m 0,0,1
 286 1544 286 1544 338 1491 c 128,-1,2
 390 1438 390 1438 390 1363 c 0,3,4
 390 1289 390 1289 337 1234 c 0,5,6
 285 1180 285 1180 210 1180 c 0,7,8
 133 1180 133 1180 81.5 1234 c 128,-1,9
 30 1288 30 1288 30 1362 c 0,10,11
 30 1438 30 1438 82 1490 c 0,12,13
 135 1544 135 1544 210 1544 c 0,0,1
EndSplineSet
Validated: 1
EndChar

StartChar: ring
Encoding: 730 730 225
Width: 456
Flags: W
HStem: 1160 112<160.15 297.342> 1448 112<159.9 297.373>
VStem: 30 111<1291.16 1428.97> 315 111<1292.14 1428.97>
LayerCount: 2
Fore
SplineSet
229.5 1448 m 128,-1,1
 192 1448 192 1448 166.5 1422 c 128,-1,2
 141 1396 141 1396 141 1360 c 128,-1,3
 141 1324 141 1324 166.5 1298 c 128,-1,4
 192 1272 192 1272 228 1272 c 256,5,6
 266 1272 266 1272 292 1300 c 0,7,8
 315 1325 315 1325 315 1360 c 0,9,10
 315 1396 315 1396 291 1422 c 128,-1,0
 267 1448 267 1448 229.5 1448 c 128,-1,1
230 1560 m 0,11,12
 310 1560 310 1560 368 1502 c 0,13,14
 426 1442 426 1442 426 1361 c 0,15,16
 426 1277 426 1277 368 1219 c 0,17,18
 309 1160 309 1160 228 1160 c 256,19,20
 148 1160 148 1160 88 1219 c 0,21,22
 30 1277 30 1277 30 1361 c 0,23,24
 30 1442 30 1442 88 1502 c 0,25,26
 146 1560 146 1560 230 1560 c 0,11,12
EndSplineSet
Validated: 1
EndChar

StartChar: ogonek
Encoding: 731 731 226
Width: 399
Flags: W
HStem: -430 430 -20 20G<191 274>
VStem: 30 207<-275.73 -100.771>
LayerCount: 2
Fore
SplineSet
191 0 m 1,0,-1
 311 0 l 1,1,2
 237 -75 237 -75 237 -164 c 0,3,4
 237 -287 237 -287 369 -320 c 1,5,-1
 139 -430 l 1,6,-1
 129 -430 l 1,7,8
 30 -354 30 -354 30 -236 c 0,9,10
 30 -94 30 -94 191 0 c 1,0,-1
EndSplineSet
Validated: 1
EndChar

StartChar: tilde
Encoding: 732 732 227
Width: 680
Flags: W
HStem: 1210 182<400.253 463.619> 1339 182<216.381 279.747>
VStem: 30 620
LayerCount: 2
Fore
SplineSet
640 1521 m 1,0,-1
 650 1521 l 1,1,2
 650 1210 650 1210 451 1210 c 0,3,4
 353 1210 353 1210 272 1305 c 0,5,6
 243 1339 243 1339 234 1339 c 0,7,8
 216 1339 216 1339 216 1294 c 1,9,-1
 40 1210 l 1,10,-1
 30 1210 l 1,11,12
 30 1521 30 1521 229 1521 c 0,13,14
 327 1521 327 1521 408 1426 c 0,15,16
 437 1392 437 1392 446 1392 c 0,17,18
 464 1392 464 1392 464 1437 c 1,19,-1
 640 1521 l 1,0,-1
EndSplineSet
Validated: 1
EndChar

StartChar: hungarumlaut
Encoding: 733 733 228
Width: 668
Flags: W
HStem: 1170 390
VStem: 30 608
DStem2: 30 1246 199 1170 0.426352 0.904557<3.30711 347.131> 319 1246 488 1170 0.426352 0.904557<3.30711 347.131>
LayerCount: 2
Fore
SplineSet
477 1560 m 1,0,-1
 638 1483 l 1,1,-1
 488 1170 l 1,2,-1
 478 1170 l 1,3,-1
 319 1246 l 1,4,-1
 467 1560 l 1,5,-1
 477 1560 l 1,0,-1
188 1560 m 1,6,-1
 349 1483 l 1,7,-1
 199 1170 l 1,8,-1
 189 1170 l 1,9,-1
 30 1246 l 1,10,-1
 178 1560 l 1,11,-1
 188 1560 l 1,6,-1
EndSplineSet
Validated: 1
EndChar

StartChar: uni1E9E
Encoding: 7838 7838 229
Width: 1290
Flags: W
HStem: -20 21G<160 212.177> 0 150<612 913.271> 1360 150<480 829.531>
VStem: 160 320<127 1360> 920 330<169.732 803.641>
DStem2: 612 854 952 952 0.408846 0.912603<228.443 547.883>
LayerCount: 2
Fore
SplineSet
840 0 m 2,0,-1
 545 0 l 1,1,-1
 545 10 l 1,2,-1
 612 150 l 1,3,-1
 840 150 l 2,4,5
 920 150 920 150 920 221 c 2,6,-1
 920 773 l 2,7,8
 920 844 920 844 840 844 c 2,9,-1
 612 844 l 1,10,-1
 612 854 l 1,11,-1
 836 1354 l 1,12,13
 823 1360 823 1360 806 1360 c 2,14,-1
 480 1360 l 1,15,-1
 480 127 l 1,16,-1
 170 -20 l 1,17,-1
 160 -20 l 1,18,-1
 160 1383 l 1,19,-1
 428 1510 l 1,20,-1
 750 1510 l 2,21,22
 1017 1510 1017 1510 1124 1303 c 1,23,-1
 952 952 l 1,24,25
 1250 943 1250 943 1250 583 c 2,26,-1
 1250 376 l 2,27,28
 1250 0 1250 0 840 0 c 2,0,-1
EndSplineSet
Validated: 1
EndChar

StartChar: uni203D
Encoding: 8253 8253 230
Width: 1300
Flags: W
HStem: -20 365<487.131 721.878> 1360 150<435.217 853.271>
VStem: 110 320<1100 1338.46> 425 360<42.5657 282.578> 501 230<742 963> 860 330<883.399 1338.46>
LayerCount: 2
Fore
SplineSet
605 -20 m 0,0,1
 529 -20 529 -20 477 34 c 128,-1,2
 425 88 425 88 425 162 c 0,3,4
 425 238 425 238 477 291 c 0,5,6
 530 345 530 345 605 345 c 128,-1,7
 680 345 680 345 732.5 291.5 c 128,-1,8
 785 238 785 238 785 163 c 128,-1,9
 785 88 785 88 732 34 c 128,-1,10
 679 -20 679 -20 605 -20 c 0,0,1
520 1510 m 2,11,-1
 780 1510 l 2,12,13
 1190 1510 1190 1510 1190 1130 c 2,14,-1
 1190 1056 l 2,15,16
 1190 813 1190 813 904 683 c 0,17,18
 771 622 771 622 771 506 c 1,19,-1
 458 359 l 1,20,-1
 448 359 l 1,21,22
 448 477 448 477 501 564 c 1,23,-1
 501 963 l 1,24,-1
 721 1068 l 1,25,-1
 731 1068 l 1,26,-1
 731 742 l 1,27,28
 860 818 860 818 860 963 c 2,29,-1
 860 1289 l 2,30,31
 860 1360 860 1360 780 1360 c 2,32,-1
 510 1360 l 2,33,34
 430 1360 430 1360 430 1289 c 2,35,-1
 430 1100 l 1,36,-1
 120 952 l 1,37,-1
 110 952 l 1,38,-1
 110 1130 l 2,39,40
 110 1510 110 1510 520 1510 c 2,11,-1
EndSplineSet
Validated: 1
EndChar

StartChar: afii61352
Encoding: 8470 8470 231
Width: 2010
Flags: W
HStem: -20 21G<140 192.177 950 1002.18> 0 180<1437 1819> 236 91<1576 1710> 736 91<1576 1710> 1360 150<465.217 944.783>
VStem: 140 320<127 1338.46> 950 320<127 1338.46> 1386 190<329.3 733.7> 1710 190<329.3 733.7>
LayerCount: 2
Fore
SplineSet
1710 327 m 1,0,-1
 1710 736 l 1,1,-1
 1576 736 l 1,2,-1
 1576 327 l 1,3,-1
 1710 327 l 1,0,-1
1576 827 m 2,4,-1
 1710 827 l 2,5,6
 1900 827 1900 827 1900 654 c 2,7,-1
 1900 409 l 2,8,9
 1900 236 1900 236 1710 236 c 2,10,-1
 1576 236 l 2,11,12
 1386 236 1386 236 1386 409 c 2,13,-1
 1386 654 l 2,14,15
 1386 827 1386 827 1576 827 c 2,4,-1
1437 180 m 1,16,-1
 1900 180 l 1,17,-1
 1900 170 l 1,18,-1
 1819 0 l 1,19,-1
 1356 0 l 1,20,-1
 1356 10 l 1,21,-1
 1437 180 l 1,16,-1
150 -20 m 1,22,-1
 140 -20 l 1,23,-1
 140 1130 l 2,24,25
 140 1510 140 1510 550 1510 c 2,26,-1
 860 1510 l 2,27,28
 1270 1510 1270 1510 1270 1130 c 2,29,-1
 1270 127 l 1,30,-1
 960 -20 l 1,31,-1
 950 -20 l 1,32,-1
 950 1289 l 2,33,34
 950 1360 950 1360 870 1360 c 2,35,-1
 540 1360 l 2,36,37
 460 1360 460 1360 460 1289 c 2,38,-1
 460 127 l 1,39,-1
 150 -20 l 1,22,-1
EndSplineSet
Validated: 1
EndChar

StartChar: uni2117
Encoding: 8471 8471 232
Width: 1321
Flags: W
HStem: 386 48<505.181 810.676> 757 96<611 764.843> 1238 96<611 764.843> 1478 52<504.168 816.773>
VStem: 110 50<794.694 1125.05> 411 200<602 757 853 1238> 771 205<853.603 1237.4> 1160 51<785.868 1126.58>
LayerCount: 2
Fore
SplineSet
771 1222 m 2,0,1
 771 1238 771 1238 751 1238 c 2,2,-1
 611 1238 l 1,3,-1
 611 853 l 1,4,-1
 751 853 l 2,5,6
 771 853 771 853 771 869 c 2,7,-1
 771 1222 l 2,0,1
585 1334 m 1,8,-1
 751 1334 l 2,9,10
 976 1334 976 1334 976 1120 c 2,11,-1
 976 971 l 2,12,13
 976 757 976 757 751 757 c 2,14,-1
 611 757 l 1,15,-1
 611 602 l 1,16,-1
 421 527 l 1,17,-1
 411 527 l 1,18,-1
 411 1257 l 1,19,-1
 585 1334 l 1,8,-1
661 1530 m 0,20,21
 903 1530 903 1530 1059 1357 c 0,22,23
 1211 1188 1211 1188 1211 953 c 0,24,25
 1211 701 1211 701 1050 549 c 0,26,27
 879 386 879 386 659 386 c 0,28,29
 436 386 436 386 271 549 c 0,30,31
 110 708 110 708 110 953 c 0,32,33
 110 1197 110 1197 268 1362 c 0,34,35
 429 1530 429 1530 661 1530 c 0,20,21
659 1478 m 0,36,37
 459 1478 459 1478 310 1330 c 0,38,39
 160 1181 160 1181 160 953 c 0,40,41
 160 750 160 750 307 587 c 0,42,43
 445 434 445 434 661 434 c 0,44,45
 862 434 862 434 1014 587 c 0,46,47
 1160 734 1160 734 1160 953 c 0,48,49
 1160 1185 1160 1185 1016 1327 c 0,50,51
 863 1478 863 1478 659 1478 c 0,36,37
EndSplineSet
Validated: 1
EndChar

StartChar: integral
Encoding: 8747 8747 233
Width: 948
Flags: W
HStem: -410 150<77 308.783> 1630 150<639.217 871>
VStem: 314 320<-238.462 1608.46>
LayerCount: 2
Fore
SplineSet
10 -410 m 1,0,-1
 10 -400 l 1,1,-1
 77 -260 l 1,2,-1
 234 -260 l 2,3,4
 314 -260 314 -260 314 -189 c 2,5,-1
 314 1400 l 2,6,7
 314 1780 314 1780 724 1780 c 2,8,-1
 938 1780 l 1,9,-1
 938 1770 l 1,10,-1
 871 1630 l 1,11,-1
 714 1630 l 2,12,13
 634 1630 634 1630 634 1559 c 2,14,-1
 634 -30 l 2,15,16
 634 -410 634 -410 224 -410 c 2,17,-1
 10 -410 l 1,0,-1
EndSplineSet
Validated: 1
EndChar

StartChar: Agrave
Encoding: 192 192 234
Width: 1410
Flags: W
HStem: -20 21G<140 192.177 950 1002.18> 680 150<460 950> 1360 150<465.217 944.783>
VStem: 140 320<127 680 830 1338.46> 950 320<127 680 830 1338.46>
DStem2: 730 1980 540 1895 0.429396 -0.903116<0 356.108>
LayerCount: 2
Fore
SplineSet
150 -20 m 1,0,-1
 140 -20 l 1,1,-1
 140 1130 l 2,2,3
 140 1510 140 1510 550 1510 c 2,4,-1
 860 1510 l 2,5,6
 1270 1510 1270 1510 1270 1130 c 2,7,-1
 1270 127 l 1,8,-1
 960 -20 l 1,9,-1
 950 -20 l 1,10,-1
 950 680 l 1,11,-1
 460 680 l 1,12,-1
 460 127 l 1,13,-1
 150 -20 l 1,0,-1
460 830 m 1,14,-1
 950 830 l 1,15,-1
 950 1289 l 2,16,17
 950 1360 950 1360 870 1360 c 2,18,19
 540 1360 l 2,20,21
 460 1360 460 1360 460 1289 c 2,22,-1
 460 830 l 1,14,-1
720 1980 m 1,23,-1
 730 1980 l 1,24,-1
 885 1654 l 1,25,-1
 707 1570 l 1,26,-1
 697 1570 l 1,27,-1
 540 1895 l 1,28,-1
 720 1980 l 1,23,-1
EndSplineSet
Validated: 1
EndChar

StartChar: Aacute
Encoding: 193 193 235
Width: 1410
Flags: W
HStem: -20 21G<140 192.177 950 1002.18> 680 150<460 950> 1360 150<465.217 944.783>
VStem: 140 320<127 680 830 1338.46> 950 320<127 680 830 1338.46>
DStem2: 532 1654 720 1570 0.429396 0.903116<4.86464 360.972>
LayerCount: 2
Fore
SplineSet
150 -20 m 1,0,-1
 140 -20 l 1,1,-1
 140 1130 l 2,2,3
 140 1510 140 1510 550 1510 c 2,4,-1
 860 1510 l 2,5,6
 1270 1510 1270 1510 1270 1130 c 2,7,-1
 1270 127 l 1,8,-1
 960 -20 l 1,9,-1
 950 -20 l 1,10,-1
 950 680 l 1,11,-1
 460 680 l 1,12,-1
 460 127 l 1,13,-1
 150 -20 l 1,0,-1
460 830 m 1,14,-1
 950 830 l 1,15,-1
 950 1289 l 2,16,17
 950 1360 950 1360 870 1360 c 2,18,19
 540 1360 l 2,20,21
 460 1360 460 1360 460 1289 c 2,22,-1
 460 830 l 1,14,-1
697 1980 m 1,23,-1
 877 1895 l 1,24,-1
 720 1570 l 1,25,-1
 710 1570 l 1,26,-1
 532 1654 l 1,27,-1
 687 1980 l 1,28,-1
 697 1980 l 1,23,-1
EndSplineSet
Validated: 1
EndChar

StartChar: Acircumflex
Encoding: 194 194 236
Width: 1410
Flags: W
HStem: -20 21G<140 192.177 950 1002.18> 680 150<460 950> 1360 150<465.217 944.783>
VStem: 140 320<127 680 830 1338.46> 950 320<127 680 830 1338.46>
LayerCount: 2
Fore
SplineSet
150 -20 m 1,0,-1
 140 -20 l 1,1,-1
 140 1130 l 2,2,3
 140 1510 140 1510 550 1510 c 2,4,-1
 860 1510 l 2,5,6
 1270 1510 1270 1510 1270 1130 c 2,7,-1
 1270 127 l 1,8,-1
 960 -20 l 1,9,-1
 950 -20 l 1,10,-1
 950 680 l 1,11,-1
 460 680 l 1,12,-1
 460 127 l 1,13,-1
 150 -20 l 1,0,-1
460 830 m 1,14,-1
 950 830 l 1,15,-1
 950 1289 l 2,16,17
 950 1360 950 1360 870 1360 c 2,18,19
 540 1360 l 2,20,21
 460 1360 460 1360 460 1289 c 2,22,-1
 460 830 l 1,14,-1
774 1980 m 1,23,-1
 784 1980 l 1,24,-1
 1000 1655 l 1,25,-1
 822 1570 l 1,26,-1
 812 1570 l 1,27,-1
 711 1732 l 1,28,-1
 606 1570 l 1,29,-1
 596 1570 l 1,30,-1
 418 1655 l 1,31,-1
 594 1894 l 1,32,-1
 774 1980 l 1,23,-1
EndSplineSet
Validated: 1
EndChar

StartChar: Atilde
Encoding: 195 195 237
Width: 1410
Flags: W
HStem: -20 21G<140 192.177 950 1002.18> 680 150<460 950> 1360 150<465.217 944.783> 1620 182<770.253 833.619> 1749 182<586.381 649.747>
VStem: 140 320<127 680 830 1338.46> 950 320<127 680 830 1338.46>
LayerCount: 2
Fore
SplineSet
150 -20 m 1,0,-1
 140 -20 l 1,1,-1
 140 1130 l 2,2,3
 140 1510 140 1510 550 1510 c 2,4,-1
 860 1510 l 2,5,6
 1270 1510 1270 1510 1270 1130 c 2,7,-1
 1270 127 l 1,8,-1
 960 -20 l 1,9,-1
 950 -20 l 1,10,-1
 950 680 l 1,11,-1
 460 680 l 1,12,-1
 460 127 l 1,13,-1
 150 -20 l 1,0,-1
460 830 m 1,14,-1
 950 830 l 1,15,-1
 950 1289 l 2,16,17
 950 1360 950 1360 870 1360 c 2,18,19
 540 1360 l 2,20,21
 460 1360 460 1360 460 1289 c 2,22,-1
 460 830 l 1,14,-1
1010 1931 m 1,23,-1
 1020 1931 l 1,24,25
 1020 1620 1020 1620 821 1620 c 0,26,27
 723 1620 723 1620 642 1715 c 0,28,29
 613 1749 613 1749 604 1749 c 0,30,31
 586 1749 586 1749 586 1704 c 1,32,-1
 410 1620 l 1,33,-1
 400 1620 l 1,34,35
 400 1931 400 1931 599 1931 c 0,36,37
 697 1931 697 1931 778 1836 c 0,38,39
 807 1802 807 1802 816 1802 c 0,40,41
 834 1802 834 1802 834 1847 c 1,42,-1
 1010 1931 l 1,23,-1
EndSplineSet
Validated: 1
EndChar

StartChar: Adieresis
Encoding: 196 196 238
Width: 1410
Flags: W
HStem: -20 21G<140 192.177 950 1002.18> 680 150<460 950> 1360 150<465.217 944.783> 1620 297<433.833 637.652 771.833 976.167>
VStem: 140 320<127 680 830 1338.46> 390 292<1665.38 1871.62> 728 292<1665.38 1871.62> 950 320<127 680 830 1338.46>
LayerCount: 2
Fore
SplineSet
150 -20 m 1,0,-1
 140 -20 l 1,1,-1
 140 1130 l 2,2,3
 140 1510 140 1510 550 1510 c 2,4,-1
 860 1510 l 2,5,6
 1270 1510 1270 1510 1270 1130 c 2,7,-1
 1270 127 l 1,8,-1
 960 -20 l 1,9,-1
 950 -20 l 1,10,-1
 950 680 l 1,11,-1
 460 680 l 1,12,-1
 460 127 l 1,13,-1
 150 -20 l 1,0,-1
460 830 m 1,14,-1
 950 830 l 1,15,-1
 950 1289 l 2,16,17
 950 1360 950 1360 870 1360 c 2,18,19
 540 1360 l 2,20,21
 460 1360 460 1360 460 1289 c 2,22,-1
 460 830 l 1,14,-1
874.5 1917 m 128,-1,24
 935 1917 935 1917 977.5 1873 c 128,-1,25
 1020 1829 1020 1829 1020 1768.5 c 128,-1,26
 1020 1708 1020 1708 977.5 1664 c 128,-1,27
 935 1620 935 1620 874 1620 c 128,-1,28
 813 1620 813 1620 770.5 1664 c 128,-1,29
 728 1708 728 1708 728 1768 c 0,30,31
 728 1829 728 1829 771 1872 c 0,32,23
 814 1917 814 1917 874.5 1917 c 128,-1,24
535.5 1917 m 128,-1,34
 596 1917 596 1917 639 1873 c 128,-1,35
 682 1829 682 1829 682 1768.5 c 128,-1,36
 682 1708 682 1708 639 1664 c 128,-1,37
 596 1620 596 1620 536 1620 c 0,38,39
 475 1620 475 1620 432.5 1664 c 128,-1,40
 390 1708 390 1708 390 1768 c 0,41,42
 390 1829 390 1829 432 1872 c 0,43,33
 475 1917 475 1917 535.5 1917 c 128,-1,34
EndSplineSet
Validated: 1
EndChar

StartChar: Aring
Encoding: 197 197 239
Width: 1410
Flags: W
HStem: -20 21G<140 192.177 950 1002.18> 680 150<460 950> 1360 150<465.217 944.783> 1570 112<640.15 777.342> 1858 112<639.9 777.373>
VStem: 140 320<127 680 830 1338.46> 510 111<1701.16 1838.97> 795 111<1702.14 1838.97> 950 320<127 680 830 1338.46>
LayerCount: 2
Fore
SplineSet
150 -20 m 1,0,-1
 140 -20 l 1,1,-1
 140 1130 l 2,2,3
 140 1510 140 1510 550 1510 c 2,4,-1
 860 1510 l 2,5,6
 1270 1510 1270 1510 1270 1130 c 2,7,-1
 1270 127 l 1,8,-1
 960 -20 l 1,9,-1
 950 -20 l 1,10,-1
 950 680 l 1,11,-1
 460 680 l 1,12,-1
 460 127 l 1,13,-1
 150 -20 l 1,0,-1
460 830 m 1,14,-1
 950 830 l 1,15,-1
 950 1289 l 2,16,17
 950 1360 950 1360 870 1360 c 2,18,19
 540 1360 l 2,20,21
 460 1360 460 1360 460 1289 c 2,22,-1
 460 830 l 1,14,-1
709.5 1858 m 128,-1,24
 672 1858 672 1858 646.5 1832 c 128,-1,25
 621 1806 621 1806 621 1770 c 128,-1,26
 621 1734 621 1734 646.5 1708 c 128,-1,27
 672 1682 672 1682 708 1682 c 256,28,29
 746 1682 746 1682 772 1710 c 0,30,31
 795 1735 795 1735 795 1770 c 0,32,33
 795 1806 795 1806 771 1832 c 128,-1,23
 747 1858 747 1858 709.5 1858 c 128,-1,24
710 1970 m 0,34,35
 790 1970 790 1970 848 1912 c 0,36,37
 906 1852 906 1852 906 1771 c 0,38,39
 906 1687 906 1687 848 1629 c 0,40,41
 789 1570 789 1570 708 1570 c 256,42,43
 628 1570 628 1570 568 1629 c 0,44,45
 510 1687 510 1687 510 1771 c 0,46,47
 510 1852 510 1852 568 1912 c 0,48,49
 626 1970 626 1970 710 1970 c 0,34,35
EndSplineSet
Validated: 1
EndChar

StartChar: Amacron
Encoding: 256 256 240
Width: 1410
Flags: W
HStem: -20 21G<140 192.177 950 1002.18> 680 150<460 950> 1360 150<465.217 944.783> 1680 190<498 946>
VStem: 140 320<127 680 830 1338.46> 950 320<127 680 830 1338.46>
LayerCount: 2
Fore
SplineSet
150 -20 m 1,0,-1
 140 -20 l 1,1,-1
 140 1130 l 2,2,3
 140 1510 140 1510 550 1510 c 2,4,-1
 860 1510 l 2,5,6
 1270 1510 1270 1510 1270 1130 c 2,7,-1
 1270 127 l 1,8,-1
 960 -20 l 1,9,-1
 950 -20 l 1,10,-1
 950 680 l 1,11,-1
 460 680 l 1,12,-1
 460 127 l 1,13,-1
 150 -20 l 1,0,-1
460 830 m 1,14,-1
 950 830 l 1,15,-1
 950 1289 l 2,16,17
 950 1360 950 1360 870 1360 c 2,18,19
 540 1360 l 2,20,21
 460 1360 460 1360 460 1289 c 2,22,-1
 460 830 l 1,14,-1
498 1870 m 1,23,-1
 1032 1870 l 1,24,-1
 1032 1860 l 1,25,-1
 946 1680 l 1,26,-1
 412 1680 l 1,27,-1
 412 1690 l 1,28,-1
 498 1870 l 1,23,-1
EndSplineSet
Validated: 1
EndChar

StartChar: Abreve
Encoding: 258 258 241
Width: 1410
Flags: W
HStem: -20 21G<140 192.177 950 1002.18> 680 150<460 950> 1360 150<465.217 944.783> 1650 200<542.531 877.469>
VStem: 140 320<127 680 830 1338.46> 950 320<127 680 830 1338.46>
LayerCount: 2
Fore
SplineSet
150 -20 m 1,0,-1
 140 -20 l 1,1,-1
 140 1130 l 2,2,3
 140 1510 140 1510 550 1510 c 2,4,-1
 860 1510 l 2,5,6
 1270 1510 1270 1510 1270 1130 c 2,7,-1
 1270 127 l 1,8,-1
 960 -20 l 1,9,-1
 950 -20 l 1,10,-1
 950 680 l 1,11,-1
 460 680 l 1,12,-1
 460 127 l 1,13,-1
 150 -20 l 1,0,-1
460 830 m 1,14,-1
 950 830 l 1,15,-1
 950 1289 l 2,16,17
 950 1360 950 1360 870 1360 c 2,18,19
 540 1360 l 2,20,21
 460 1360 460 1360 460 1289 c 2,22,-1
 460 830 l 1,14,-1
490 1945 m 1,23,24
 560 1850 560 1850 710 1850 c 128,-1,25
 860 1850 860 1850 930 1945 c 1,26,-1
 1020 1756 l 1,27,-1
 1020 1746 l 1,28,29
 888 1650 888 1650 710 1650 c 128,-1,30
 532 1650 532 1650 400 1746 c 1,31,-1
 400 1756 l 1,32,-1
 490 1945 l 1,23,24
EndSplineSet
Validated: 1
EndChar

StartChar: Aogonek
Encoding: 260 260 242
Width: 1410
Flags: W
HStem: -430 21G<839.5 940.818> -20 21G<140 192.177> 680 150<460 950> 1360 150<465.217 944.783>
VStem: 140 320<127 680 830 1338.46> 950 320<127 680 830 1338.46>
LayerCount: 2
Fore
SplineSet
150 -20 m 1,0,-1
 140 -20 l 1,1,-1
 140 1130 l 2,2,3
 140 1510 140 1510 550 1510 c 2,4,5
 860 1510 l 2,6,7
 1270 1510 1270 1510 1270 1130 c 2,8,-1
 1270 127 l 1,9,-1
 1105 49 l 1,10,11
 997 -60 997 -60 997 -164 c 0,12,13
 997 -287 997 -287 1129 -320 c 1,14,-1
 899 -430 l 1,15,-1
 889 -430 l 1,16,17
 790 -354 790 -354 790 -236 c 0,18,19
 790 -94 790 -94 950 -1 c 1,20,-1
 950 680 l 1,21,-1
 460 680 l 1,22,-1
 460 127 l 1,23,-1
 150 -20 l 1,0,-1
460 830 m 1,24,-1
 950 830 l 1,25,-1
 950 1289 l 2,26,27
 950 1360 950 1360 870 1360 c 2,28,-1
 540 1360 l 2,29,30
 460 1360 460 1360 460 1289 c 2,31,-1
 460 830 l 1,24,-1
EndSplineSet
Validated: 1
EndChar

StartChar: Aringacute
Encoding: 506 506 243
Width: 1410
Flags: W
HStem: -20 21G<140 192.177 950 1002.18> 680 150<460 950> 1360 150<465.217 944.783> 1570 112<542.15 679.342> 1858 112<541.9 679.373>
VStem: 140 320<127 680 830 1338.46> 412 111<1701.16 1838.97> 697 111<1702.14 1838.97> 950 320<127 680 830 1338.46>
DStem2: 802 1644 990 1560 0.429396 0.903116<4.86464 360.972>
LayerCount: 2
Fore
SplineSet
150 -20 m 1,0,-1
 140 -20 l 1,1,-1
 140 1130 l 2,2,3
 140 1510 140 1510 550 1510 c 2,4,-1
 860 1510 l 2,5,6
 1270 1510 1270 1510 1270 1130 c 2,7,-1
 1270 127 l 1,8,-1
 960 -20 l 1,9,-1
 950 -20 l 1,10,-1
 950 680 l 1,11,-1
 460 680 l 1,12,-1
 460 127 l 1,13,-1
 150 -20 l 1,0,-1
460 830 m 1,14,-1
 950 830 l 1,15,-1
 950 1289 l 2,16,17
 950 1360 950 1360 870 1360 c 2,18,19
 540 1360 l 2,20,21
 460 1360 460 1360 460 1289 c 2,22,-1
 460 830 l 1,14,-1
611.5 1858 m 128,-1,24
 574 1858 574 1858 548.5 1832 c 128,-1,25
 523 1806 523 1806 523 1770 c 128,-1,26
 523 1734 523 1734 548.5 1708 c 128,-1,27
 574 1682 574 1682 610 1682 c 256,28,29
 648 1682 648 1682 674 1710 c 0,30,31
 697 1735 697 1735 697 1770 c 0,32,33
 697 1806 697 1806 673 1832 c 128,-1,23
 649 1858 649 1858 611.5 1858 c 128,-1,24
612 1970 m 0,34,35
 692 1970 692 1970 750 1912 c 0,36,37
 808 1852 808 1852 808 1771 c 0,38,39
 808 1687 808 1687 750 1629 c 0,40,41
 691 1570 691 1570 610 1570 c 256,42,43
 530 1570 530 1570 470 1629 c 0,44,45
 412 1687 412 1687 412 1771 c 0,46,47
 412 1852 412 1852 470 1912 c 0,48,49
 528 1970 528 1970 612 1970 c 0,34,35
967 1970 m 1,50,-1
 1147 1885 l 1,51,-1
 990 1560 l 1,52,-1
 980 1560 l 1,53,-1
 802 1644 l 1,54,-1
 957 1970 l 1,55,-1
 967 1970 l 1,50,-1
EndSplineSet
Validated: 1
EndChar

StartChar: Ccedilla
Encoding: 199 199 244
Width: 1250
Flags: W
HStem: -410 21G<476 666> 0 150<456.729 582 745 861.56> 1360 150<456.729 861.56>
VStem: 120 330<171.538 1338.46> 582 163<-61.7314 0> 648 208<-207.507 -85.3716> 875 335<171.538 403 1122 1334.85>
LayerCount: 2
Fore
SplineSet
530 0 m 2,0,1
 120 0 120 0 120 380 c 2,2,-1
 120 1130 l 2,3,4
 120 1510 120 1510 530 1510 c 2,5,-1
 800 1510 l 2,6,7
 1210 1510 1210 1510 1210 1122 c 1,8,-1
 885 967 l 1,9,-1
 875 967 l 1,10,-1
 875 1289 l 2,11,12
 875 1360 875 1360 795 1360 c 2,13,-1
 530 1360 l 2,14,15
 450 1360 450 1360 450 1289 c 2,16,-1
 450 221 l 2,17,18
 450 150 450 150 530 150 c 2,19,-1
 795 150 l 2,20,21
 875 150 875 150 875 221 c 2,22,-1
 875 403 l 1,23,-1
 1200 558 l 1,24,-1
 1210 558 l 1,25,-1
 1210 380 l 2,26,27
 1210 0 1210 0 800 0 c 2,28,-1
 745 0 l 1,29,-1
 745 -40 l 1,30,31
 856 -83 856 -83 856 -187 c 0,32,33
 856 -410 856 -410 476 -410 c 1,34,-1
 476 -400 l 1,35,-1
 562 -220 l 1,36,37
 648 -204 648 -204 648 -145 c 0,38,39
 648 -100 648 -100 582 -76 c 1,40,-1
 582 0 l 1,41,-1
 530 0 l 2,0,1
EndSplineSet
Validated: 1
EndChar

StartChar: Cacute
Encoding: 262 262 245
Width: 1250
Flags: W
HStem: 0 150<456.729 861.56> 1360 150<456.729 861.56>
VStem: 120 330<171.538 1338.46> 875 335<171.538 403 1122 1334.85>
DStem2: 511 1654 699 1570 0.429396 0.903116<4.86464 360.972>
LayerCount: 2
Fore
SplineSet
530 0 m 2,0,1
 120 0 120 0 120 380 c 2,2,-1
 120 1130 l 2,3,4
 120 1510 120 1510 530 1510 c 2,5,-1
 800 1510 l 2,6,7
 1210 1510 1210 1510 1210 1122 c 1,8,-1
 885 967 l 1,9,-1
 875 967 l 1,10,-1
 875 1289 l 2,11,12
 875 1360 875 1360 795 1360 c 2,13,-1
 530 1360 l 2,14,15
 450 1360 450 1360 450 1289 c 2,16,-1
 450 221 l 2,17,18
 450 150 450 150 530 150 c 2,19,-1
 795 150 l 2,20,21
 875 150 875 150 875 221 c 2,22,-1
 875 403 l 1,23,-1
 1200 558 l 1,24,-1
 1210 558 l 1,25,-1
 1210 380 l 2,26,27
 1210 0 1210 0 800 0 c 2,28,-1
 530 0 l 2,0,1
676 1980 m 1,29,-1
 856 1895 l 1,30,-1
 699 1570 l 1,31,-1
 689 1570 l 1,32,-1
 511 1654 l 1,33,-1
 666 1980 l 1,34,-1
 676 1980 l 1,29,-1
EndSplineSet
Validated: 1
EndChar

StartChar: Ccircumflex
Encoding: 264 264 246
Width: 1250
Flags: W
HStem: 0 150<456.729 861.56> 1360 150<456.729 861.56>
VStem: 120 330<171.538 1338.46> 875 335<171.538 403 1122 1334.85>
LayerCount: 2
Fore
SplineSet
530 0 m 2,0,1
 120 0 120 0 120 380 c 2,2,-1
 120 1130 l 2,3,4
 120 1510 120 1510 530 1510 c 2,5,-1
 800 1510 l 2,6,7
 1210 1510 1210 1510 1210 1122 c 1,8,-1
 885 967 l 1,9,-1
 875 967 l 1,10,-1
 875 1289 l 2,11,12
 875 1360 875 1360 795 1360 c 2,13,-1
 530 1360 l 2,14,15
 450 1360 450 1360 450 1289 c 2,16,-1
 450 221 l 2,17,18
 450 150 450 150 530 150 c 2,19,-1
 795 150 l 2,20,21
 875 150 875 150 875 221 c 2,22,-1
 875 403 l 1,23,-1
 1200 558 l 1,24,-1
 1210 558 l 1,25,-1
 1210 380 l 2,26,27
 1210 0 1210 0 800 0 c 2,28,-1
 530 0 l 2,0,1
731 1980 m 1,29,-1
 741 1980 l 1,30,-1
 957 1655 l 1,31,-1
 779 1570 l 1,32,-1
 769 1570 l 1,33,-1
 668 1732 l 1,34,-1
 563 1570 l 1,35,-1
 553 1570 l 1,36,-1
 375 1655 l 1,37,-1
 551 1894 l 1,38,-1
 731 1980 l 1,29,-1
EndSplineSet
Validated: 1
EndChar

StartChar: Cdotaccent
Encoding: 266 266 247
Width: 1250
Flags: W
HStem: 0 150<456.729 861.56> 1360 150<456.729 861.56> 1590 364<548.131 782.338>
VStem: 120 330<171.538 1338.46> 486 360<1654.3 1891.73> 875 335<171.538 403 1122 1334.85>
LayerCount: 2
Fore
SplineSet
530 0 m 2,0,1
 120 0 120 0 120 380 c 2,2,-1
 120 1130 l 2,3,4
 120 1510 120 1510 530 1510 c 2,5,-1
 800 1510 l 2,6,7
 1210 1510 1210 1510 1210 1122 c 1,8,-1
 885 967 l 1,9,-1
 875 967 l 1,10,-1
 875 1289 l 2,11,12
 875 1360 875 1360 795 1360 c 2,13,-1
 530 1360 l 2,14,15
 450 1360 450 1360 450 1289 c 2,16,-1
 450 221 l 2,17,18
 450 150 450 150 530 150 c 2,19,-1
 795 150 l 2,20,21
 875 150 875 150 875 221 c 2,22,-1
 875 403 l 1,23,-1
 1200 558 l 1,24,-1
 1210 558 l 1,25,-1
 1210 380 l 2,26,27
 1210 0 1210 0 800 0 c 2,28,-1
 530 0 l 2,0,1
666 1954 m 0,29,30
 742 1954 742 1954 794 1901 c 128,-1,31
 846 1848 846 1848 846 1773 c 0,32,33
 846 1699 846 1699 793 1644 c 0,34,35
 741 1590 741 1590 666 1590 c 0,36,37
 589 1590 589 1590 537.5 1644 c 128,-1,38
 486 1698 486 1698 486 1772 c 0,39,40
 486 1848 486 1848 538 1900 c 0,41,42
 591 1954 591 1954 666 1954 c 0,29,30
EndSplineSet
Validated: 1
EndChar

StartChar: Ccaron
Encoding: 268 268 248
Width: 1250
Flags: W
HStem: 0 150<456.729 861.56> 1360 150<456.729 861.56>
VStem: 120 330<171.538 1338.46> 875 335<171.538 403 1122 1334.85>
LayerCount: 2
Fore
SplineSet
530 0 m 2,0,1
 120 0 120 0 120 380 c 2,2,-1
 120 1130 l 2,3,4
 120 1510 120 1510 530 1510 c 2,5,-1
 800 1510 l 2,6,7
 1210 1510 1210 1510 1210 1122 c 1,8,-1
 885 967 l 1,9,-1
 875 967 l 1,10,-1
 875 1289 l 2,11,12
 875 1360 875 1360 795 1360 c 2,13,-1
 530 1360 l 2,14,15
 450 1360 450 1360 450 1289 c 2,16,-1
 450 221 l 2,17,18
 450 150 450 150 530 150 c 2,19,-1
 795 150 l 2,20,21
 875 150 875 150 875 221 c 2,22,-1
 875 403 l 1,23,-1
 1200 558 l 1,24,-1
 1210 558 l 1,25,-1
 1210 380 l 2,26,27
 1210 0 1210 0 800 0 c 2,28,-1
 530 0 l 2,0,1
532 1980 m 1,29,-1
 542 1980 l 1,30,-1
 643 1818 l 1,31,-1
 748 1980 l 1,32,-1
 758 1980 l 1,33,-1
 936 1895 l 1,34,-1
 760 1656 l 1,35,-1
 580 1570 l 1,36,-1
 570 1570 l 1,37,-1
 354 1895 l 1,38,-1
 532 1980 l 1,29,-1
EndSplineSet
Validated: 1
EndChar

StartChar: Dcaron
Encoding: 270 270 249
Width: 1390
Flags: W
HStem: 0 150<480 933.271> 1360 150<480 933.271>
VStem: 160 320<150 1360> 940 330<171.538 1338.46>
LayerCount: 2
Fore
SplineSet
480 150 m 1,0,-1
 860 150 l 2,1,2
 940 150 940 150 940 221 c 2,3,-1
 940 1289 l 2,4,5
 940 1360 940 1360 860 1360 c 2,6,-1
 480 1360 l 1,7,-1
 480 150 l 1,0,-1
160 0 m 1,8,-1
 160 1383 l 1,9,-1
 428 1510 l 1,10,-1
 860 1510 l 2,11,12
 1270 1510 1270 1510 1270 1130 c 2,13,-1
 1270 380 l 2,14,15
 1270 0 1270 0 860 0 c 2,16,-1
 160 0 l 1,8,-1
552 1980 m 1,17,-1
 562 1980 l 1,18,-1
 663 1818 l 1,19,-1
 768 1980 l 1,20,-1
 778 1980 l 1,21,-1
 956 1895 l 1,22,-1
 780 1656 l 1,23,-1
 600 1570 l 1,24,-1
 590 1570 l 1,25,-1
 374 1895 l 1,26,-1
 552 1980 l 1,17,-1
EndSplineSet
Validated: 1
EndChar

StartChar: Egrave
Encoding: 200 200 250
Width: 1100
Flags: W
HStem: 0 150<480 1023> 680 150<480 973> 1360 150<480 973>
VStem: 160 320<150 680 830 1360>
DStem2: 619 1980 429 1895 0.429396 -0.903116<0 356.108>
CounterMasks: 1 e0
LayerCount: 2
Fore
SplineSet
160 0 m 1,0,-1
 160 1384 l 1,1,-1
 428 1510 l 1,2,-1
 1040 1510 l 1,3,-1
 1040 1500 l 1,4,-1
 973 1360 l 1,5,-1
 480 1360 l 1,6,-1
 480 830 l 1,7,-1
 1040 830 l 1,8,-1
 1040 820 l 1,9,-1
 973 680 l 1,10,-1
 480 680 l 1,11,-1
 480 150 l 1,12,-1
 1090 150 l 1,13,-1
 1090 140 l 1,14,-1
 1023 0 l 1,15,-1
 160 0 l 1,0,-1
609 1980 m 1,16,-1
 619 1980 l 1,17,-1
 774 1654 l 1,18,-1
 596 1570 l 1,19,-1
 586 1570 l 1,20,-1
 429 1895 l 1,21,-1
 609 1980 l 1,16,-1
EndSplineSet
Validated: 1
EndChar

StartChar: Eacute
Encoding: 201 201 251
Width: 1100
Flags: W
HStem: 0 150<480 1023> 680 150<480 973> 1360 150<480 973>
VStem: 160 320<150 680 830 1360>
DStem2: 459 1654 647 1570 0.429396 0.903116<4.86464 360.972>
CounterMasks: 1 e0
LayerCount: 2
Fore
SplineSet
160 0 m 1,0,-1
 160 1384 l 1,1,-1
 428 1510 l 1,2,-1
 1040 1510 l 1,3,-1
 1040 1500 l 1,4,-1
 973 1360 l 1,5,-1
 480 1360 l 1,6,-1
 480 830 l 1,7,-1
 1040 830 l 1,8,-1
 1040 820 l 1,9,-1
 973 680 l 1,10,-1
 480 680 l 1,11,-1
 480 150 l 1,12,-1
 1090 150 l 1,13,-1
 1090 140 l 1,14,-1
 1023 0 l 1,15,-1
 160 0 l 1,0,-1
624 1980 m 1,16,-1
 804 1895 l 1,17,-1
 647 1570 l 1,18,-1
 637 1570 l 1,19,-1
 459 1654 l 1,20,-1
 614 1980 l 1,21,-1
 624 1980 l 1,16,-1
EndSplineSet
Validated: 1
EndChar

StartChar: Ecircumflex
Encoding: 202 202 252
Width: 1100
Flags: W
HStem: 0 150<480 1023> 680 150<480 973> 1360 150<480 973>
VStem: 160 320<150 680 830 1360>
CounterMasks: 1 e0
LayerCount: 2
Fore
SplineSet
160 0 m 1,0,-1
 160 1384 l 1,1,-1
 428 1510 l 1,2,-1
 1040 1510 l 1,3,-1
 1040 1500 l 1,4,-1
 973 1360 l 1,5,-1
 480 1360 l 1,6,-1
 480 830 l 1,7,-1
 1040 830 l 1,8,-1
 1040 820 l 1,9,-1
 973 680 l 1,10,-1
 480 680 l 1,11,-1
 480 150 l 1,12,-1
 1090 150 l 1,13,-1
 1090 140 l 1,14,-1
 1023 0 l 1,15,-1
 160 0 l 1,0,-1
645 1980 m 1,16,-1
 655 1980 l 1,17,-1
 871 1655 l 1,18,-1
 693 1570 l 1,19,-1
 683 1570 l 1,20,-1
 582 1732 l 1,21,-1
 477 1570 l 1,22,-1
 467 1570 l 1,23,-1
 289 1655 l 1,24,-1
 465 1894 l 1,25,-1
 645 1980 l 1,16,-1
EndSplineSet
Validated: 1
EndChar

